<?xml version="1.0" encoding="utf-8"?>
<!-- Generator: Adobe Illustrator 15.1.0, SVG Export Plug-In . SVG Version: 6.00 Build 0)  -->
<!DOCTYPE svg PUBLIC "-//W3C//DTD SVG 1.1//EN" "http://www.w3.org/Graphics/SVG/1.1/DTD/svg11.dtd">
<svg version="1.1" xmlns="http://www.w3.org/2000/svg" xmlns:xlink="http://www.w3.org/1999/xlink" x="0px" y="0px" width="476px"
	 height="400px" viewBox="0 0 476 400" enable-background="new 0 0 476 400" xml:space="preserve">
<g id="Layer_5" display="none">
	<circle display="inline" fill="#E3D8B5" cx="613.537" cy="301.973" r="77.4"/>
	<g display="inline">
		<g>
			<g>
				<path d="M627.005,342.101 M627.005,342.101c-0.776,3.971-1.309,8.293-1.196,12.597"/>
			</g>
		</g>
		<g>
			<g>
				<path fill="#E3D8B5" d="M586.047,292.784c9.335-2.337,16.805-10.699,16.699-18.669c-0.102-7.965-7.757-12.528-17.096-10.196
					c-9.326,2.354-16.795,10.71-16.693,18.669C569.05,290.563,576.707,295.126,586.047,292.784 M579.555,272.231
					c4.599-2.587,6.616,0.58,6.616,0.58c-2.313,1.146-4.32,3.167-4.32,3.167h7.486c-0.871,3.738-8.27,9.916-12.96,4.899
					C572.348,276.554,579.555,272.231,579.555,272.231"/>
				<path fill="#E3D8B5" d="M648.119,259.632c-0.096,0.112-3.091,2.648-4.69,3.203c-1.609,0.556,0.683-5.464,0-5.53
					c-0.3-0.04-2.194,4.66-3.233,4.293c-2.627-0.877-0.402-5.062-0.952-5.561c-0.163-0.164-2.331,3.769-3.605,3.635
					c-2.123-0.224-1.039-5.57-1.36-4.669c-0.32,0.892-2.617,4.472-2.617,4.472c4.966,0.493,14.265,5.188,14.265,5.188
					C645.711,263.629,648.506,259.245,648.119,259.632"/>
				<path fill="#E3D8B5" d="M613.853,270.285c-0.021,0.938,1.162,1.712,2.633,1.732c1.481,0.021,2.698-0.718,2.724-1.661
					c0.036-0.936-1.15-1.711-2.622-1.732C615.095,268.604,613.877,269.358,613.853,270.285"/>
				<path fill="#E3D8B5" d="M617.616,315.924c-0.215,1.101-0.362,2.297-0.331,3.489c5.769-0.342,10.581,0.015,14.05,0.479
					c0.605-1.004,1.136-2.002,1.619-2.955C627.897,315.812,622.576,315.634,617.616,315.924"/>
				<path fill="#E3D8B5" d="M612.305,266.695c1.471,0.015,2.709-0.738,2.729-1.665c0.021-0.938-1.146-1.711-2.639-1.731
					c-1.477-0.011-2.694,0.738-2.725,1.666C609.64,265.906,610.828,266.686,612.305,266.695"/>
				<path fill="#E3D8B5" d="M637.96,275.577c-4.553-0.394-22.116,2.693-21.348,3.865c0.534,0.794,0.936,1.589,1.223,2.361
					c3.1-0.545,9.971-1.414,13.877-1.363c0,0-13.231,3.259-12.243,4.634c0.983,1.374,7.572,0.651,9.239,1.654
					c1.516,0.917-5.943,0.107-10.375,1.66c-0.381,1.94-1.182,2.959-1.182,2.959c8.138-0.488,12.355,1.182,12.355,1.182
					c-1.265-2.425,2.897-1.747,1.797-3.708c-1.08-1.966,4.313-3.162,2.282-6.202C631.564,279.563,642.497,275.969,637.96,275.577"/>
				<path fill="#E3D8B5" d="M632.231,269.445c1.465,0.004,2.693-0.739,2.724-1.67c0.025-0.943-1.156-1.706-2.634-1.732
					c-1.485-0.026-2.703,0.733-2.728,1.666C629.562,268.646,630.744,269.421,632.231,269.445"/>
				<path fill="#E3D8B5" d="M622.391,267.561c1.489,0.03,2.701-0.729,2.735-1.654c0.022-0.942-1.154-1.716-2.638-1.731
					c-1.486-0.021-2.703,0.732-2.729,1.659C619.734,266.775,620.904,267.546,622.391,267.561"/>
				<path fill="#E3D8B5" d="M623.712,271.91c-0.031,0.941,1.156,1.717,2.632,1.735c1.481,0.012,2.699-0.732,2.74-1.664
					c0.021-0.933-1.16-1.706-2.639-1.727C624.964,270.239,623.741,270.978,623.712,271.91"/>
				<path fill="#E3D8B5" d="M637.318,352.416c0,0,3.137,3.052,3.683,3.882c0.538,0.84-1.88-4.318,0.126-5.072
					c1.192-0.449,4.319,3.014,4.451,2.806c0.388-0.637-2.846-4.344-0.523-5.892c0.911-0.603,5.361,3.249,5.641,3.142
					c0.659-0.239-4.521-5.342-2.819-5.185c1.716,0.174,5.26,2.022,5.392,2.094c0.479,0.301-3.371-3.468-3.432-4.553
					C649.836,343.638,642.008,350.681,637.318,352.416"/>
				<path fill="#E3D8B5" d="M667.614,299.547l6.544-0.967c0.295-0.571,0.295-1.213,0.295-1.213l-7.125,0.143
					C667.435,298.228,667.527,298.904,667.614,299.547"/>
				<path fill="#E3D8B5" d="M595.168,323.746c5.185-1.757,10.094-2.876,14.62-3.564c-0.382-1.253-0.622-2.353-0.784-3.3
					c-6.829,1.084-11.743,2.617-12.171,2.607c-0.9-0.011-2.349-1.447-2.349-1.447s5.821-2.148,14.295-3.534
					c-0.05-1.578,0.205-2.338,0.205-2.338s9.349-0.997,9.909-1.165c0.229-0.062-0.188,0.942-0.651,2.465
					c5.052-0.274,10.494-0.102,15.938,0.906c1.089-2.506,1.641-4.278,1.641-4.278c-18.711-1.97-35.928,2.095-45.649,5.164
					C591.277,318.139,592.86,321.246,595.168,323.746"/>
				<path fill="#E3D8B5" d="M666.376,292.112c0.112,0.519,0.208,1.028,0.301,1.521l7.41-1.237c0-0.651-0.147-1.08-0.147-1.08
					l-7.681,0.163C666.301,291.698,666.347,291.902,666.376,292.112"/>
				<path fill="#E3D8B5" d="M608.897,295.433c1.022-1.814,2.287-4.687,3.183-8.908c1.716-8.07-3.473-16.615-3.473-16.615
					c1.986,8.168,0.092,19.993-7.837,25.951c-11.159,9.146-36.773,7.588-36.773,7.588c0,25.64,21.22,46.433,47.404,46.433
					c26.167,0,47.387-20.793,47.387-46.433C641.159,296.857,623.823,295.065,608.897,295.433 M598.233,338.361
					c-0.55,1.839-3.27,2.689-6.07,1.895c-2.802-0.81-4.624-2.949-4.085-4.781c0.154-0.514,0.495-0.942,0.947-1.288
					c1.508-1.683,5.51-3.765,5.51-3.765c2.048-0.443,3.719,0.286,4.187,1.437C599.191,333.015,598.233,338.361,598.233,338.361
					 M612.392,340.893c-0.361,1.935-2.711,3.413-5.551,3.365c-3.087-0.04-5.557-1.832-5.521-4.002
					c-0.974-1.258,1.722-10.948,1.722-10.948c0.876-1.926,3.763-2.17,5.193-1.039c1.213,0.968,2.965,7.322,3.846,10.684
					c0.26,0.438,0.402,0.938,0.397,1.457C612.528,340.587,612.478,340.755,612.392,340.893 M622.229,343.047
					c-2.938,0.916-5.574-0.346-6.451-2.186c-1.008-2.244-1.05-10.954-1.05-10.954c0.347-2.118,3.016-3.259,4.665-2.611
					c1.391,0.545,4.711,6.096,6.438,9.03c0.351,0.599,0.829,1.598,0.789,1.76C626.768,340.057,624.933,342.202,622.229,343.047
					 M636.778,337.719c-2.291,1.691-5.164,1.799-6.386,0.246c0,0-2.995-4.711-3.014-5.954c-0.011-1.242,1.247-2.484,3.324-2.745
					c0,0,4.547,0.622,6.599,1.712c0.562,0.173,1.024,0.458,1.387,0.896C639.926,333.423,639.063,336.034,636.778,337.719
					 M628.854,301.533c0,0-2.099,1.599-5.089,3.626c5.409-0.429,11.093-0.556,16.903-0.235c2.18,0.133,12.09,6.244,12.09,6.244
					s-0.281,10.058-9.839,19.127c0,0-6.32-4.527-16.84-3.637c0.692-0.672,1.338-1.39,1.96-2.118
					c-15.466-2.179-29.486,1.763-33.683,3.127c-3.851,1.925-8.707,4.823-8.707,4.823c-13.297-5.505-15.98-22.738-15.98-22.738
					s9.768,0.877,18.257-3.106c0,0,0.28,2.303,1.177,5.413c5.321-1.7,12.501-3.672,20.837-5.132l7.823-4.305
					c-2.582-0.335-5.726,0.012-7.929,0.372c-3.479,3.255-7.395,4.721-7.395,4.721l-10.578-2.862
					c10.282-1.741,15.604-6.437,15.604-6.437l5.189,1.294c-0.291,0.447-0.61,0.855-0.926,1.242
					C615.518,300.377,623.931,299.46,628.854,301.533"/>
				<path fill="#E3D8B5" d="M665.443,288.063l7.704-2.073c0.078-0.509-0.355-1.294-0.355-1.294l-8.061,1.151
					C664.935,286.509,665.316,287.655,665.443,288.063"/>
				<path fill="#E3D8B5" d="M670.562,277.93l-8.464,1.206c0.341,0.724,0.702,1.508,1.054,2.363l7.979-2.124
					C671.062,278.657,670.562,277.93,670.562,277.93"/>
			</g>
		</g>
		<g>
			<g>
				<path fill="#B39B6E" d="M623.711,271.91c-0.03,0.941,1.157,1.716,2.633,1.736c1.481,0.01,2.699-0.733,2.74-1.665
					c0.021-0.932-1.16-1.706-2.639-1.727C624.964,270.239,623.74,270.978,623.711,271.91 M622.391,267.561
					c1.489,0.03,2.701-0.729,2.736-1.654c0.021-0.942-1.155-1.717-2.639-1.731c-1.486-0.021-2.703,0.732-2.729,1.659
					C619.734,266.775,620.903,267.546,622.391,267.561 M613.853,270.286c-0.021,0.937,1.162,1.711,2.632,1.731
					c1.481,0.02,2.698-0.718,2.724-1.662c0.037-0.935-1.15-1.71-2.621-1.731C615.095,268.604,613.878,269.358,613.853,270.286
					 M612.305,266.695c1.472,0.015,2.71-0.738,2.729-1.665c0.021-0.938-1.146-1.711-2.638-1.732
					c-1.477-0.01-2.694,0.739-2.725,1.666C609.641,265.906,610.828,266.686,612.305,266.695 M586.047,292.784
					c9.335-2.338,16.805-10.699,16.699-18.67c-0.102-7.963-7.757-12.526-17.096-10.194c-9.326,2.354-16.795,10.709-16.693,18.668
					C569.05,290.562,576.707,295.126,586.047,292.784 M579.555,272.23c4.599-2.587,6.616,0.581,6.616,0.581
					c-2.313,1.146-4.32,3.167-4.32,3.167h7.486c-0.871,3.738-8.27,9.916-12.96,4.898C572.348,276.555,579.555,272.23,579.555,272.23
					 M637.96,275.577c-4.553-0.394-22.116,2.693-21.348,3.865c0.534,0.794,0.936,1.588,1.223,2.361
					c3.1-0.545,9.971-1.414,13.877-1.363c0,0-13.231,3.259-12.243,4.634c0.983,1.374,7.572,0.651,9.239,1.653
					c1.516,0.918-5.943,0.108-10.375,1.661c-0.381,1.941-1.182,2.959-1.182,2.959c8.138-0.488,12.355,1.182,12.355,1.182
					c-1.265-2.425,2.897-1.747,1.797-3.707c-1.08-1.966,4.312-3.163,2.282-6.203C631.564,279.563,642.497,275.969,637.96,275.577
					 M632.231,269.445c1.465,0.004,2.693-0.738,2.723-1.671c0.026-0.942-1.154-1.705-2.633-1.731
					c-1.485-0.026-2.702,0.732-2.728,1.666C629.562,268.646,630.744,269.421,632.231,269.445 M648.119,259.632
					c-0.096,0.112-3.091,2.648-4.69,3.203c-1.608,0.555,0.682-5.464,0-5.53c-0.3-0.04-2.194,4.66-3.233,4.293
					c-2.627-0.877-0.402-5.062-0.952-5.561c-0.163-0.163-2.331,3.769-3.605,3.635c-2.123-0.224-1.039-5.571-1.36-4.669
					c-0.32,0.891-2.618,4.472-2.618,4.472c4.967,0.493,14.266,5.188,14.266,5.188C645.711,263.629,648.507,259.245,648.119,259.632
					 M667.614,299.547l6.544-0.967c0.295-0.571,0.295-1.213,0.295-1.213l-7.125,0.143
					C667.435,298.228,667.527,298.905,667.614,299.547 M672.792,284.696l-8.062,1.151c0.204,0.662,0.586,1.809,0.713,2.216
					l7.705-2.073C673.225,285.482,672.792,284.696,672.792,284.696 M637.317,352.416c0,0,3.138,3.051,3.683,3.882
					c0.54,0.84-1.878-4.318,0.127-5.072c1.192-0.449,4.318,3.014,4.451,2.805c0.388-0.636-2.846-4.343-0.524-5.891
					c0.912-0.603,5.362,3.248,5.643,3.142c0.658-0.239-4.522-5.341-2.82-5.185c1.715,0.174,5.26,2.022,5.393,2.094
					c0.479,0.301-3.372-3.468-3.433-4.553C649.836,343.638,642.008,350.681,637.317,352.416 M608.897,295.432
					c1.023-1.813,2.287-4.686,3.183-8.906c1.716-8.071-3.473-16.617-3.473-16.617c1.985,8.169,0.092,19.994-7.838,25.951
					c-11.158,9.146-36.772,7.588-36.772,7.588c0,25.642,21.22,46.435,47.405,46.435c26.166,0,47.386-20.793,47.386-46.435
					C641.159,296.857,623.823,295.065,608.897,295.432 M598.233,338.362c-0.55,1.838-3.27,2.688-6.071,1.894
					c-2.8-0.81-4.623-2.949-4.084-4.781c0.154-0.515,0.495-0.942,0.947-1.288c1.507-1.683,5.511-3.764,5.511-3.764
					c2.047-0.444,3.719,0.285,4.186,1.436C599.191,333.015,598.233,338.362,598.233,338.362 M612.392,340.893
					c-0.361,1.936-2.711,3.412-5.552,3.365c-3.086-0.04-5.556-1.832-5.521-4.002c-0.974-1.257,1.721-10.948,1.721-10.948
					c0.877-1.925,3.764-2.17,5.194-1.039c1.212,0.968,2.964,7.322,3.846,10.684c0.261,0.438,0.402,0.938,0.396,1.457
					C612.527,340.587,612.477,340.755,612.392,340.893 M626.618,338.086c0.148,1.971-1.686,4.116-4.39,4.962
					c-2.938,0.915-5.574-0.347-6.451-2.187c-1.009-2.245-1.05-10.954-1.05-10.954c0.347-2.118,3.016-3.259,4.664-2.611
					c1.392,0.545,4.712,6.095,6.438,9.029C626.182,336.925,626.659,337.924,626.618,338.086 M636.778,337.72
					c-2.291,1.69-5.164,1.798-6.387,0.245c0,0-2.995-4.71-3.013-5.954c-0.011-1.241,1.247-2.484,3.324-2.744
					c0,0,4.548,0.621,6.599,1.711c0.562,0.173,1.024,0.458,1.387,0.896C639.926,333.423,639.063,336.034,636.778,337.72
					 M628.854,301.533c0,0-2.097,1.599-5.087,3.625c5.409-0.428,11.092-0.555,16.902-0.233c2.18,0.132,12.09,6.243,12.09,6.243
					s-0.28,10.058-9.839,19.127c0,0-6.32-4.527-16.84-3.636c0.692-0.673,1.338-1.39,1.959-2.118
					c-15.465-2.18-29.485,1.762-33.682,3.126c-3.851,1.926-8.707,4.824-8.707,4.824c-13.297-5.506-15.98-22.739-15.98-22.739
					s9.768,0.876,18.256-3.107c0,0,0.281,2.303,1.178,5.414c5.321-1.7,12.501-3.672,20.837-5.133l7.823-4.304
					c-2.582-0.335-5.726,0.012-7.929,0.372c-3.479,3.255-7.395,4.721-7.395,4.721l-10.578-2.862
					c10.282-1.741,15.604-6.437,15.604-6.437l5.189,1.294c-0.29,0.448-0.611,0.855-0.926,1.241
					C615.518,300.376,623.931,299.46,628.854,301.533 M673.939,291.316l-7.681,0.164c0.041,0.218,0.088,0.423,0.117,0.632
					c0.112,0.52,0.208,1.028,0.301,1.521l7.41-1.237C674.087,291.745,673.939,291.316,673.939,291.316 M677.304,305.357
					c0,0-4.316,0.046-9.222,0.361c-0.561,13.485-6.009,25.737-14.665,35.067l3.538,5.103c-5.19,12.903-20.269,13.581-20.269,13.581
					l-3.834-4.568c-6.616,2.658-13.856,4.126-21.45,4.126c-31.345,0-56.735-24.877-56.735-55.58c0-0.917,0.016-1.823,0.062-2.729
					c-1.608-0.826-2.943-1.472-2.943-1.472l-3.061-2.526c7.965-12.701,6.411-24.231,6.411-24.231s4.767-0.259,9.717-0.799
					c0.504-0.713,1.033-1.425,1.584-2.118h0.015c0,0,13.683-18.263,34.542-9.783c0,0,11.998-2.79,26.079-1.181l2.993-5.933
					c0,0,14.739-2.892,22.933,7.812l-2.353,5.999c3.03,1.966,5.892,4.359,8.469,7.262c3.631-0.621,8.118-1.478,13.234-2.668
					C672.349,271.08,683.833,285.848,677.304,305.357 M595.168,323.746c5.185-1.757,10.093-2.877,14.62-3.564
					c-0.382-1.253-0.622-2.353-0.784-3.3c-6.829,1.084-11.743,2.617-12.171,2.607c-0.901-0.011-2.349-1.447-2.349-1.447
					s5.821-2.148,14.296-3.534c-0.051-1.578,0.204-2.338,0.204-2.338s9.349-0.997,9.909-1.165c0.229-0.061-0.188,0.942-0.651,2.465
					c5.052-0.275,10.495-0.102,15.939,0.906c1.089-2.506,1.64-4.277,1.64-4.277c-18.711-1.971-35.928,2.094-45.649,5.163
					C591.276,318.139,592.861,321.245,595.168,323.746 M670.562,277.93l-8.464,1.206c0.342,0.724,0.703,1.508,1.055,2.363
					l7.979-2.124C671.062,278.657,670.562,277.93,670.562,277.93 M617.616,315.924c-0.215,1.101-0.362,2.297-0.331,3.489
					c5.769-0.342,10.581,0.015,14.05,0.479c0.605-1.004,1.136-2.002,1.619-2.955C627.897,315.812,622.576,315.634,617.616,315.924"
					/>
			</g>
		</g>
	</g>
</g>
<g id="Layer_6" display="none">
	<circle display="inline" fill="#E3D8B5" cx="-109.443" cy="284.166" r="77.4"/>
	<g display="inline">
		<g>
			<path fill="#B49C6E" d="M-89.717,335.125c-7.764-0.001-14.918-3.536-19.627-9.698l-0.521-0.684l-0.281,0.371
				c-4.707,6.224-11.888,9.792-19.698,9.792c-5.407,0-10.551-1.728-14.873-4.997c-10.656-8.062-12.923-23.162-5.229-33.979
				c-5.751-2.262-10.382-6.526-13.115-12.111c-2.898-5.923-3.315-12.617-1.178-18.854c3.419-9.978,12.801-16.682,23.344-16.682
				c2.331,0,4.642,0.331,6.886,0.985c0.806-12.888,11.545-23.125,24.632-23.125c13.608,0,24.681,11.071,24.681,24.68v1.07
				l0.65-0.177c2.116-0.573,4.292-0.864,6.468-0.864c11.109,0,20.9,7.495,23.811,18.229c3.286,12.126-3.102,24.632-14.435,29.283
				c2.617,4.642,3.654,9.981,2.934,15.355c-0.875,6.534-4.244,12.337-9.482,16.338c-4.34,3.314-9.514,5.066-14.963,5.066
				C-89.715,335.125-89.715,335.125-89.717,335.125z"/>
			<path fill="#B49C6E" d="M-109.378,231.003c10.946,0,19.821,8.875,19.821,19.821v7.42l6.781-1.836
				c1.736-0.471,3.48-0.696,5.196-0.696c8.729,0,16.728,5.812,19.122,14.642c2.862,10.565-3.382,21.453-13.947,24.316l-3.674,0.995
				l2.1,2.749c6.646,8.698,4.979,21.139-3.723,27.784c-3.591,2.742-7.819,4.068-12.016,4.068c-5.965,0-11.865-2.683-15.767-7.79
				l-4.4-5.763l-4.137,5.471c-3.898,5.151-9.825,7.864-15.824,7.864c-4.165,0-8.364-1.309-11.942-4.014
				c-8.73-6.605-10.455-19.034-3.852-27.766l3.588-4.743l-5.271-1.807c-10.356-3.549-15.874-14.822-12.323-25.178
				c2.82-8.227,10.512-13.399,18.749-13.399c2.132,0,4.3,0.347,6.429,1.077l5.268,1.805v-5.2
				C-129.199,239.878-120.324,231.003-109.378,231.003 M-109.378,221.287c-13.784,0-25.394,9.49-28.637,22.279
				c-0.956-0.094-1.917-0.14-2.88-0.14c-12.619-0.001-23.848,8.021-27.941,19.965c-2.559,7.463-2.059,15.476,1.411,22.562
				c2.44,4.989,6.146,9.098,10.73,11.986c-5.632,12.31-2.188,27.344,9.045,35.843c5.174,3.914,11.331,5.981,17.805,5.981
				c7.521,0,14.552-2.765,19.948-7.725c5.428,5.096,12.559,7.942,20.18,7.942c6.525,0,12.72-2.096,17.913-6.063
				c6.271-4.788,10.302-11.732,11.35-19.553c0.634-4.73,0.132-9.439-1.427-13.809c10.71-6.732,16.277-19.917,12.802-32.745
				c-3.483-12.847-15.202-21.817-28.5-21.817c-0.88,0-1.76,0.04-2.636,0.119C-82.477,232.058-94.693,221.287-109.378,221.287
				L-109.378,221.287z"/>
		</g>
		<g>
			<path fill="#E3D8B5" d="M-89.717,332.966c-7.086-0.001-13.614-3.227-17.911-8.852l-2.245-2.938l-1.994,2.637
				c-4.297,5.678-10.85,8.935-17.978,8.935c-4.934,0-9.626-1.576-13.57-4.56c-9.902-7.492-11.866-21.644-4.376-31.547l1.339-1.77
				l-1.745-0.598c-5.69-1.95-10.28-6.001-12.925-11.403c-2.645-5.404-3.026-11.514-1.075-17.203
				c3.121-9.104,11.682-15.224,21.302-15.224c2.481,0,4.938,0.411,7.304,1.224l1.693,0.579v-1.422
				c0-12.418,10.103-22.521,22.521-22.521s22.521,10.103,22.521,22.521v3.893l3.375-0.915c1.933-0.523,3.919-0.789,5.903-0.789
				c10.137,0,19.071,6.841,21.727,16.635c3.229,11.92-3.783,24.244-15.649,27.573c3.415,4.7,4.867,10.436,4.093,16.214
				c-0.799,5.963-3.872,11.257-8.653,14.907c-3.96,3.025-8.682,4.624-13.652,4.624C-89.715,332.966-89.715,332.966-89.717,332.966z"
				/>
			<path fill="#E3D8B5" d="M-109.378,231.003c10.946,0,19.821,8.875,19.821,19.821v7.42l6.781-1.836
				c1.736-0.471,3.48-0.696,5.196-0.696c8.729,0,16.728,5.812,19.122,14.642c2.862,10.565-3.382,21.453-13.947,24.316l-3.674,0.995
				l2.1,2.749c6.646,8.698,4.979,21.139-3.723,27.784c-3.591,2.742-7.819,4.068-12.016,4.068c-5.965,0-11.865-2.683-15.767-7.79
				l-4.4-5.763l-4.137,5.471c-3.898,5.151-9.825,7.864-15.824,7.864c-4.165,0-8.364-1.309-11.942-4.014
				c-8.73-6.605-10.455-19.034-3.852-27.766l3.588-4.743l-5.271-1.807c-10.356-3.549-15.874-14.822-12.323-25.178
				c2.82-8.227,10.512-13.399,18.749-13.399c2.132,0,4.3,0.347,6.429,1.077l5.268,1.805v-5.2
				C-129.199,239.878-120.324,231.003-109.378,231.003 M-109.378,225.604c-13.147,0-23.978,10.113-25.12,22.969
				c-2.092-0.551-4.236-0.827-6.397-0.829c-10.773,0-20.36,6.85-23.854,17.048c-2.186,6.371-1.758,13.213,1.203,19.265
				c2.693,5.502,7.189,9.752,12.773,12.119c-7.396,11.01-4.978,26.062,5.729,34.163c4.417,3.342,9.673,5.108,15.199,5.108
				c7.899,0,15.169-3.573,19.981-9.812l0.09,0.118c4.812,6.3,12.123,9.912,20.057,9.912c5.57,0,10.857-1.791,15.292-5.179
				c5.354-4.088,8.796-10.018,9.69-16.693c0.709-5.289-0.248-10.546-2.709-15.164c11.235-4.928,17.5-17.496,14.196-29.688
				c-2.975-10.969-12.979-18.628-24.332-18.628c-2.213,0-4.427,0.294-6.579,0.875v-0.364
				C-84.158,236.919-95.472,225.604-109.378,225.604L-109.378,225.604z"/>
		</g>
		<g>
			<path fill="#B49C6E" d="M-89.717,331.238c-6.543,0-12.57-2.979-16.539-8.171l-3.624-4.746l-3.366,4.449
				c-3.967,5.243-10.017,8.249-16.599,8.249c-4.555,0-8.886-1.455-12.528-4.21c-9.143-6.917-10.955-19.983-4.039-29.127l2.777-3.673
				l-4.002-1.371c-5.254-1.8-9.492-5.54-11.934-10.528c-2.442-4.989-2.794-10.63-0.992-15.884
				c2.881-8.407,10.784-14.056,19.666-14.056c2.291,0,4.56,0.381,6.745,1.13l3.979,1.363v-3.84c0-11.466,9.328-20.793,20.794-20.793
				s20.793,9.327,20.793,20.793v6.15l5.556-1.505c1.784-0.483,3.619-0.729,5.45-0.729c9.358,0,17.607,6.316,20.06,15.358
				c2.998,11.067-3.564,22.51-14.63,25.509l-2.278,0.617l1.221,1.601c3.373,4.412,4.823,9.875,4.086,15.379
				c-0.738,5.505-3.576,10.394-7.99,13.765c-3.656,2.793-8.015,4.27-12.604,4.27C-89.715,331.238-89.715,331.238-89.717,331.238z"/>
			<path fill="#B49C6E" d="M-109.378,231.003c10.946,0,19.821,8.875,19.821,19.821v7.42l6.781-1.836
				c1.736-0.471,3.48-0.695,5.196-0.695c8.73,0,16.728,5.812,19.122,14.641c2.862,10.565-3.382,21.453-13.947,24.316l-3.674,0.995
				l2.1,2.749c6.646,8.698,4.979,21.139-3.723,27.784c-3.592,2.742-7.818,4.068-12.016,4.068c-5.965,0-11.865-2.683-15.767-7.79
				l-4.4-5.763l-4.137,5.471c-3.898,5.151-9.825,7.864-15.824,7.864c-4.165,0-8.364-1.309-11.942-4.014
				c-8.73-6.605-10.455-19.034-3.852-27.766l3.588-4.743l-5.271-1.807c-10.356-3.549-15.874-14.822-12.323-25.178
				c2.82-8.226,10.513-13.399,18.748-13.399c2.133,0,4.301,0.348,6.43,1.077l5.268,1.805v-5.2
				C-129.199,239.878-120.324,231.003-109.378,231.003 M-109.378,229.06c-12.001,0-21.765,9.763-21.765,21.765v2.48l-2.693-0.924
				c-2.287-0.783-4.662-1.182-7.061-1.182c-9.297,0-17.57,5.912-20.586,14.713c-1.886,5.499-1.517,11.403,1.039,16.626
				c2.556,5.221,6.992,9.136,12.492,11.021l2.731,0.937l-1.968,2.602c-7.238,9.57-5.342,23.246,4.229,30.487
				c3.812,2.884,8.347,4.407,13.114,4.407c6.89,0,13.222-3.147,17.374-8.636l2.595-3.429l2.848,3.729
				c4.153,5.436,10.464,8.554,17.312,8.554c4.806,0,9.368-1.545,13.195-4.469c4.621-3.529,7.591-8.646,8.363-14.407
				c0.771-5.762-0.746-11.48-4.276-16.1l-0.343-0.449l0.881-0.239c11.583-3.14,18.453-15.116,15.315-26.701
				c-2.568-9.465-11.202-16.076-20.998-16.076c-1.917,0-3.837,0.257-5.705,0.764l-4.329,1.172v-4.88
				C-87.613,238.822-97.377,229.06-109.378,229.06L-109.378,229.06z"/>
		</g>
		<path fill="#E3D8B5" d="M-58.457,270.354c-2.865-10.565-13.752-16.81-24.318-13.945l-6.781,1.836v-7.42
			c0-10.946-8.875-19.821-19.821-19.821s-19.821,8.875-19.821,19.821v5.2l-5.268-1.805c-10.355-3.55-21.629,1.967-25.178,12.322
			c-3.551,10.355,1.967,21.629,12.323,25.178l5.271,1.807l-3.588,4.743c-6.604,8.731-4.879,21.16,3.852,27.766
			c8.73,6.604,21.161,4.88,27.767-3.851l4.137-5.471l4.4,5.763c6.646,8.699,19.085,10.364,27.782,3.722
			c8.701-6.646,10.369-19.086,3.723-27.784l-2.1-2.749l3.674-0.995C-61.839,291.807-55.595,280.919-58.457,270.354z"/>
		<g>
			<path fill="#B49C6E" d="M-109.437,292.946c-4.911,0-8.906-3.995-8.906-8.907c0-4.911,3.995-8.906,8.906-8.906
				s8.907,3.995,8.907,8.906C-100.529,288.951-104.525,292.946-109.437,292.946z M-109.437,278.371
				c-3.125,0-5.667,2.544-5.667,5.668c0,3.125,2.542,5.668,5.667,5.668c3.126,0,5.668-2.543,5.668-5.668
				C-103.769,280.915-106.311,278.371-109.437,278.371z"/>
		</g>
		<g>
			<g>
				<path fill="#B49C6E" d="M-110.128,296.73c0.033-0.501,0.493-0.767,1.004-0.799l0,0c0.491,0.021,0.946,0.345,0.979,0.845
					c0.015,0.22,0.647,9.131,0.647,9.131c0,0.87-0.728,1.575-1.626,1.575l0,0c-0.897,0-1.627-0.705-1.627-1.575
					C-110.751,305.907-110.143,296.95-110.128,296.73z"/>
				<path fill="#E3D8B5" d="M-109.124,307.591c-0.956,0-1.734-0.756-1.734-1.684c0-0.008,0.608-8.964,0.623-9.184
					c0.033-0.506,0.466-0.859,1.104-0.899c0.52,0.02,1.054,0.352,1.094,0.944c0.014,0.218,0.64,9.042,0.646,9.131
					C-107.391,306.835-108.168,307.591-109.124,307.591z M-109.128,296.04c-0.386,0.025-0.86,0.223-0.893,0.698
					c-0.014,0.217-0.622,9.177-0.622,9.177c0,0.802,0.682,1.46,1.519,1.46s1.518-0.658,1.518-1.468
					c-0.006-0.082-0.632-8.906-0.647-9.123C-108.283,296.317-108.717,296.057-109.128,296.04z"/>
			</g>
			<g>
				<circle fill="#B49C6E" cx="-109.125" cy="311.674" r="2.142"/>
				<path fill="#E3D8B5" d="M-109.125,313.924c-1.24,0-2.25-1.009-2.25-2.25s1.01-2.25,2.25-2.25s2.25,1.009,2.25,2.25
					S-107.885,313.924-109.125,313.924z M-109.125,309.64c-1.121,0-2.033,0.913-2.033,2.034s0.912,2.033,2.033,2.033
					s2.034-0.912,2.034-2.033S-108.004,309.64-109.125,309.64z"/>
			</g>
		</g>
		<g>
			<g>
				<path fill="#B49C6E" d="M-121.797,287.127c0.487-0.116,0.877,0.244,1.061,0.722l0,0c0.126,0.476-0.05,1.006-0.518,1.187
					c-0.206,0.078-8.529,3.324-8.529,3.324c-0.832,0.257-1.721-0.229-1.986-1.084l0,0c-0.266-0.86,0.191-1.765,1.023-2.022
					C-130.746,289.253-122.012,287.181-121.797,287.127z"/>
				<path fill="#E3D8B5" d="M-130.237,292.537c-0.737,0-1.411-0.506-1.636-1.229c-0.283-0.915,0.208-1.883,1.094-2.157
					c0.096-0.023,8.744-2.076,8.956-2.127c0.489-0.116,0.963,0.201,1.187,0.787c0.135,0.503-0.024,1.112-0.579,1.325
					c-0.203,0.077-8.445,3.292-8.528,3.324C-129.91,292.511-130.072,292.537-130.237,292.537z M-121.614,287.213
					c-0.052,0-0.104,0.007-0.158,0.02c-0.212,0.053-8.862,2.105-8.949,2.126c-0.766,0.236-1.192,1.085-0.944,1.886
					c0.196,0.633,0.785,1.076,1.429,1.076c0.143,0,0.284-0.021,0.422-0.064c0.075-0.029,8.319-3.244,8.523-3.321
					c0.435-0.168,0.557-0.659,0.45-1.059C-120.963,287.562-121.232,287.213-121.614,287.213z"/>
			</g>
			<g>
				<circle fill="#B49C6E" cx="-135.773" cy="292.516" r="2.142"/>
				<path fill="#E3D8B5" d="M-135.774,294.766c-0.989,0-1.853-0.636-2.147-1.583c-0.178-0.574-0.122-1.183,0.158-1.715
					c0.279-0.531,0.75-0.923,1.324-1.102c0.217-0.067,0.441-0.102,0.668-0.102c0.99,0,1.854,0.637,2.146,1.583
					c0.179,0.575,0.123,1.185-0.157,1.717c-0.28,0.531-0.751,0.922-1.324,1.1C-135.324,294.73-135.549,294.766-135.774,294.766z
					 M-135.771,290.48c-0.204,0-0.408,0.031-0.604,0.093c-0.519,0.16-0.944,0.514-1.196,0.996c-0.254,0.48-0.305,1.03-0.143,1.549
					c0.266,0.855,1.046,1.432,1.94,1.432c0.204,0,0.407-0.031,0.604-0.092c0.518-0.161,0.943-0.514,1.197-0.995
					c0.252-0.48,0.303-1.03,0.143-1.551C-134.096,291.056-134.876,290.48-135.771,290.48z"/>
			</g>
		</g>
		<g>
			<g>
				<path fill="#B49C6E" d="M-116.553,273.439c0.274,0.419,0.068,0.906-0.32,1.241l0,0c-0.404,0.278-0.963,0.294-1.29-0.087
					c-0.144-0.167-6.012-6.902-6.012-6.902c-0.522-0.695-0.366-1.695,0.35-2.237l0,0c0.718-0.54,1.724-0.414,2.248,0.28
					C-121.577,265.734-116.674,273.255-116.553,273.439z"/>
				<path fill="#E3D8B5" d="M-117.509,274.993c-0.292,0-0.554-0.117-0.736-0.328c-0.143-0.166-5.952-6.836-6.011-6.903
					c-0.562-0.747-0.396-1.818,0.365-2.393c0.311-0.234,0.678-0.358,1.062-0.358c0.534,0,1.022,0.239,1.338,0.659
					c0.054,0.08,4.909,7.527,5.028,7.709c0.277,0.425,0.145,0.966-0.34,1.384C-117.021,274.914-117.27,274.993-117.509,274.993z
					 M-122.829,265.227c-0.337,0-0.658,0.108-0.931,0.315c-0.668,0.503-0.814,1.438-0.329,2.084
					c0.054,0.062,5.865,6.731,6.007,6.897c0.181,0.21,0.412,0.254,0.573,0.254c0.196,0,0.4-0.066,0.575-0.186
					c0.306-0.266,0.551-0.697,0.29-1.094c-0.119-0.182-4.976-7.629-5.024-7.704C-121.938,265.436-122.363,265.227-122.829,265.227z"
					/>
			</g>
			<g>
				<circle fill="#B49C6E" cx="-126.346" cy="262.106" r="2.142"/>
				<path fill="#E3D8B5" d="M-126.344,264.356c-0.714,0-1.37-0.326-1.8-0.896c-0.745-0.99-0.546-2.402,0.443-3.15
					c0.394-0.296,0.86-0.452,1.352-0.452c0.714,0,1.371,0.326,1.8,0.896c0.746,0.991,0.547,2.404-0.443,3.151
					C-125.386,264.2-125.854,264.356-126.344,264.356z M-126.349,260.072c-0.443,0-0.866,0.142-1.222,0.41
					c-0.895,0.676-1.074,1.953-0.4,2.848c0.389,0.516,0.981,0.812,1.627,0.812c0.443,0,0.866-0.143,1.221-0.411
					c0.896-0.674,1.076-1.951,0.402-2.848C-125.109,260.367-125.703,260.072-126.349,260.072z"/>
			</g>
		</g>
		<g>
			<g>
				<path fill="#B49C6E" d="M-101.076,274.408c-0.332,0.374-0.858,0.301-1.281,0.011l0,0c-0.374-0.316-0.533-0.853-0.251-1.268
					c0.126-0.183,5.11-7.594,5.11-7.594c0.537-0.686,1.543-0.793,2.252-0.241l0,0c0.709,0.554,0.848,1.558,0.311,2.244
					C-94.936,267.561-100.93,274.244-101.076,274.408z"/>
				<path fill="#E3D8B5" d="M-101.651,274.771c-0.247,0-0.52-0.094-0.767-0.264c-0.454-0.383-0.57-0.989-0.28-1.417
					c0.124-0.18,5.062-7.52,5.111-7.594c0.319-0.41,0.801-0.642,1.323-0.642c0.389,0,0.773,0.133,1.084,0.376
					c0.374,0.292,0.61,0.709,0.667,1.171c0.054,0.442-0.066,0.878-0.338,1.225c-0.064,0.072-6.001,6.69-6.145,6.852
					C-101.164,274.671-101.392,274.771-101.651,274.771z M-96.264,265.071c-0.455,0-0.874,0.202-1.148,0.553
					c-0.046,0.068-4.983,7.408-5.107,7.589c-0.262,0.387-0.082,0.857,0.232,1.123c0.203,0.139,0.432,0.22,0.636,0.22
					c0.198,0,0.366-0.075,0.495-0.22c0.144-0.161,6.08-6.781,6.141-6.849c0.231-0.295,0.336-0.673,0.289-1.059
					c-0.05-0.406-0.258-0.771-0.586-1.027C-95.59,265.186-95.918,265.071-96.264,265.071z"/>
			</g>
			<g>
				<circle fill="#B49C6E" cx="-92.664" cy="262.015" r="2.142"/>
				<path fill="#E3D8B5" d="M-92.666,264.266c-0.506,0-0.984-0.166-1.385-0.479c-0.977-0.764-1.15-2.181-0.387-3.158
					c0.43-0.549,1.076-0.863,1.774-0.863c0.505,0,0.984,0.165,1.384,0.477c0.977,0.763,1.15,2.18,0.388,3.158
					C-91.321,263.949-91.968,264.266-92.666,264.266z M-92.663,259.981c-0.632,0-1.217,0.285-1.604,0.78
					c-0.689,0.885-0.533,2.165,0.35,2.855c0.361,0.283,0.795,0.432,1.252,0.432c0.631,0,1.216-0.284,1.604-0.781
					c0.69-0.884,0.533-2.166-0.35-2.855C-91.773,260.131-92.207,259.981-92.663,259.981z"/>
			</g>
		</g>
		<g>
			<g>
				<path fill="#B49C6E" d="M-97.535,288.528c-0.467-0.183-0.58-0.703-0.456-1.2l0,0c0.167-0.46,0.615-0.794,1.103-0.675
					c0.214,0.055,8.896,2.161,8.896,2.161c0.827,0.264,1.277,1.17,1.006,2.026l0,0c-0.273,0.855-1.168,1.335-1.997,1.069
					C-88.983,291.91-97.332,288.607-97.535,288.528z"/>
				<path fill="#E3D8B5" d="M-88.517,292.091c-0.169,0-0.337-0.025-0.5-0.078c-0.09-0.035-8.356-3.306-8.559-3.384
					c-0.471-0.184-0.675-0.705-0.521-1.326c0.2-0.554,0.73-0.882,1.232-0.754c0.213,0.054,8.809,2.139,8.896,2.16
					c0.889,0.283,1.371,1.254,1.084,2.165C-87.117,291.603-87.773,292.091-88.517,292.091z M-97.087,286.736
					c-0.343,0-0.666,0.254-0.803,0.629c-0.093,0.377-0.048,0.891,0.394,1.062c0.202,0.078,8.469,3.349,8.553,3.382
					c0.134,0.043,0.28,0.065,0.427,0.065c0.649,0,1.224-0.429,1.427-1.066c0.253-0.797-0.167-1.646-0.936-1.892
					c-0.348-0.085-8.679-2.104-8.891-2.159C-96.971,286.744-97.029,286.736-97.087,286.736z"/>
			</g>
			<g>
				<circle fill="#B49C6E" cx="-82.993" cy="292.116" r="2.143"/>
				<path fill="#E3D8B5" d="M-82.995,294.365c-0.231,0-0.461-0.035-0.683-0.105c-0.573-0.183-1.04-0.577-1.316-1.111
					c-0.275-0.534-0.326-1.143-0.143-1.715c0.299-0.938,1.16-1.569,2.143-1.569c0.232,0,0.463,0.036,0.686,0.107
					c1.18,0.378,1.834,1.647,1.459,2.829C-81.15,293.736-82.012,294.365-82.995,294.365z M-82.994,290.08
					c-0.889,0-1.667,0.57-1.938,1.419c-0.166,0.517-0.119,1.068,0.129,1.551c0.25,0.482,0.672,0.839,1.191,1.005
					c0.2,0.063,0.407,0.096,0.616,0.096c0.89,0,1.669-0.569,1.94-1.416c0.338-1.067-0.254-2.215-1.32-2.557
					C-82.576,290.113-82.785,290.08-82.994,290.08z"/>
			</g>
		</g>
		<g>
			<path fill="#B49C6E" d="M-107.791,270.63c-0.043,0.688-0.655,1.052-1.334,1.096l0,0c-0.654-0.028-1.256-0.472-1.301-1.157
				c-0.019-0.302-0.859-12.517-0.859-12.517c0-1.193,0.967-2.16,2.16-2.16l0,0c1.193,0,2.161,0.967,2.161,2.16
				C-106.964,258.052-107.771,270.33-107.791,270.63z"/>
			<path fill="#E3D8B5" d="M-109.121,272.051h-0.019c-0.88-0.039-1.558-0.653-1.609-1.462c-0.019-0.301-0.859-12.515-0.859-12.515
				c-0.001-1.393,1.114-2.507,2.483-2.507c1.371,0,2.485,1.114,2.485,2.484c-0.001,0.021-0.809,12.3-0.827,12.6
				c-0.051,0.786-0.692,1.335-1.637,1.398L-109.121,272.051z M-110.962,258.052c0.001-0.001,0.841,12.195,0.859,12.497
				c0.034,0.526,0.513,0.826,0.975,0.853c0.472-0.036,0.98-0.262,1.015-0.792c0.019-0.299,0.826-12.579,0.826-12.579
				c0-0.99-0.824-1.814-1.838-1.814C-110.138,256.216-110.962,257.04-110.962,258.052L-110.962,258.052z"/>
		</g>
		<g>
			<path fill="#B49C6E" d="M-96.179,281.625c-0.668,0.16-1.196-0.313-1.44-0.948l0,0c-0.166-0.635,0.078-1.342,0.719-1.585
				c0.283-0.109,11.698-4.533,11.698-4.533c1.142-0.354,2.351,0.283,2.705,1.423l0,0c0.353,1.14-0.282,2.351-1.423,2.705
				C-83.92,278.687-95.887,281.554-96.179,281.625z"/>
			<path fill="#E3D8B5" d="M-96.438,281.98c-0.633,0-1.203-0.455-1.484-1.188c-0.234-0.888,0.151-1.717,0.906-2.004
				c0.282-0.108,11.696-4.533,11.696-4.533c1.408-0.438,2.732,0.346,3.132,1.63c0.195,0.634,0.135,1.307-0.174,1.894
				c-0.31,0.587-0.829,1.02-1.463,1.216c-0.02,0.006-11.984,2.873-12.277,2.945C-96.215,281.967-96.327,281.98-96.438,281.98z
				 M-85.106,274.868c0.002,0-11.396,4.417-11.678,4.524c-0.499,0.191-0.641,0.749-0.522,1.201c0.152,0.387,0.539,0.841,1.053,0.717
				c0.291-0.071,12.259-2.94,12.259-2.94c0.448-0.14,0.832-0.458,1.06-0.893c0.229-0.434,0.273-0.931,0.129-1.4
				C-83.102,275.129-84.145,274.567-85.106,274.868z"/>
		</g>
		<g>
			<path fill="#B49C6E" d="M-102.714,295.69c-0.378-0.575-0.108-1.232,0.407-1.678l0,0c0.538-0.372,1.287-0.38,1.733,0.142
				c0.198,0.229,8.22,9.478,8.22,9.478c0.719,0.953,0.527,2.309-0.424,3.026l0,0c-0.955,0.72-2.31,0.529-3.027-0.424
				C-95.805,306.234-102.549,295.941-102.714,295.69z"/>
			<path fill="#E3D8B5" d="M-94.078,307.418c-0.788,0-1.512-0.36-1.984-0.988c-0.014-0.017-6.756-10.311-6.922-10.562
				c-0.432-0.657-0.249-1.48,0.465-2.1c0.757-0.527,1.681-0.421,2.193,0.176c0.197,0.229,8.219,9.478,8.219,9.478
				c0.837,1.11,0.618,2.671-0.477,3.496C-93.019,307.245-93.535,307.418-94.078,307.418z M-101.476,294.07
				c-0.223,0-0.452,0.074-0.647,0.209c-0.334,0.291-0.614,0.784-0.32,1.232c0.166,0.251,6.91,10.545,6.91,10.545
				c0.569,0.756,1.77,0.938,2.561,0.343c0.809-0.609,0.971-1.764,0.361-2.571l0,0c-0.001,0-8.01-9.233-8.207-9.463
				C-101.027,294.122-101.291,294.07-101.476,294.07z"/>
		</g>
		<g>
			<path fill="#B49C6E" d="M-118.984,293.535c0.454-0.514,1.162-0.424,1.725-0.041l0,0c0.498,0.425,0.698,1.146,0.312,1.711
				c-0.172,0.252-7.028,10.395-7.028,10.395c-0.735,0.939-2.093,1.106-3.032,0.371l0,0c-0.942-0.734-1.108-2.093-0.374-3.032
				C-127.382,302.938-119.185,293.761-118.984,293.535z"/>
			<path fill="#E3D8B5" d="M-125.68,306.753c-0.559,0-1.087-0.182-1.527-0.527c-0.523-0.407-0.856-0.995-0.938-1.653
				c-0.082-0.659,0.1-1.311,0.508-1.834c0.014-0.016,8.21-9.192,8.41-9.417c0.508-0.575,1.398-0.606,2.148-0.095
				c0.699,0.593,0.855,1.493,0.398,2.162c-0.171,0.25-7.027,10.394-7.027,10.394C-124.195,306.406-124.908,306.753-125.68,306.753z
				 M-118.188,293.502c-0.223,0-0.41,0.083-0.555,0.248c-0.199,0.225-8.398,9.404-8.398,9.404c-0.288,0.37-0.422,0.851-0.361,1.338
				s0.307,0.922,0.693,1.224c0.777,0.607,1.973,0.457,2.578-0.315c-0.002,0.001,6.844-10.126,7.015-10.376
				c0.303-0.444,0.101-0.981-0.255-1.284C-117.688,293.595-117.953,293.502-118.188,293.502z"/>
		</g>
		<g>
			<path fill="#B49C6E" d="M-121.689,278.369c0.641,0.249,0.8,0.944,0.637,1.601l0,0c-0.225,0.617-0.832,1.056-1.496,0.891
				c-0.295-0.075-12.187-2.986-12.187-2.986c-1.137-0.362-1.765-1.577-1.401-2.715l0,0c0.363-1.139,1.579-1.766,2.715-1.403
				C-133.422,273.756-121.97,278.26-121.689,278.369z"/>
			<path fill="#E3D8B5" d="M-122.267,281.219c-0.12,0-0.241-0.015-0.36-0.043c-0.291-0.075-12.066-2.958-12.186-2.986
				c-0.654-0.208-1.17-0.644-1.475-1.234c-0.304-0.589-0.359-1.262-0.158-1.895c0.33-1.035,1.281-1.731,2.367-1.731
				c0.255,0,0.51,0.04,0.754,0.118l11.754,4.621c0.722,0.28,1.057,1.076,0.832,1.98
				C-120.996,280.762-121.606,281.219-122.267,281.219z M-134.078,273.977c-0.803,0-1.506,0.515-1.75,1.28
				c-0.148,0.468-0.107,0.966,0.117,1.402c0.226,0.436,0.607,0.758,1.074,0.906c0.465,0.113,11.875,2.906,12.168,2.982
				c0.44,0.108,0.93-0.188,1.112-0.689c0.104-0.429,0.05-0.993-0.449-1.187l-11.735-4.614
				C-133.702,274.007-133.891,273.977-134.078,273.977z"/>
		</g>
	</g>
</g>
<g id="Layer_1" display="none">
	<circle display="inline" fill="#E3D8B5" cx="344.347" cy="105.083" r="77.4"/>
</g>
<g id="Layer_9">
	<g>
		<g>
			<path d="M399.917,88.775c5.029-8.135,4.326-8.659,3.758-9.083c-5.004-3.741-13.884-7.738-23.802-7.738
				c-3.405,0-6.683,0.487-9.741,1.448c-0.768,0.242-1.515,0.521-2.253,0.816c0.068-0.832,0.114-1.668,0.114-2.513
				c0-12.797-8.186-23.878-15.846-29.98c-0.184-0.146-0.409-0.224-0.654-0.224c-1.26,0-4.364,3.323-6.968,6.398
				c-5.612-6.488-6.629-6.488-6.971-6.488l-0.356,0.026l-0.213,0.153c-0.291,0.21-0.583,0.436-0.874,0.67
				c-0.061,0.049-0.12,0.09-0.181,0.139c-7.417,5.848-15.003,17.14-15.003,29.306c0,0.966,0.054,1.921,0.141,2.868
				c-0.807-0.332-1.619-0.64-2.441-0.898c-3.065-0.967-6.321-1.457-9.677-1.457c-11.251,0-20.31,5.283-23.682,7.553
				c-0.575,0.387-1.525,1.025,3.595,9.129c-8.781,3.785-8.506,4.62-8.282,5.295c0.136,0.411,0.288,0.829,0.456,1.252
				c3.348,8.83,11.835,19.459,23.437,23.117c0.522,0.165,1.06,0.296,1.593,0.434c-0.314,0.396-0.635,0.785-0.933,1.199
				c-7.468,10.389-7.29,24.164-4.633,33.592c0.244,0.866,1.322,0.866,1.728,0.866c1.972,0,6.185-0.974,8.065-1.434
				c0.854,9.526,1.729,9.526,2.438,9.526h0.001c0.434,0,0.879-0.015,1.334-0.042c9.436-0.421,22.184-5.163,29.283-15.038
				c0.373-0.52,0.724-1.05,1.061-1.586c0.363,0.573,0.738,1.137,1.135,1.68c7.54,10.337,20.684,14.465,30.47,14.883l0.043,0.001
				c0.679,0,1.8,0,2.478-9.484c1.956,0.443,6.423,1.407,8.284,1.407c0.35,0,1.278,0,1.524-0.752c0.135-0.411,0.26-0.838,0.376-1.277
				c2.545-9.094,2.019-22.686-5.151-32.516c-0.318-0.438-0.661-0.85-0.999-1.266c0.561-0.143,1.124-0.281,1.673-0.453
				c12.207-3.839,20.324-14.971,23.85-24.109C408.343,93.551,408.755,92.484,399.917,88.775z M349.011,110.644
				c-0.006,0.007-0.011,0.013-0.017,0.019c-0.128,0.129-0.263,0.25-0.4,0.366c-0.415,0.35-0.878,0.643-1.375,0.875
				c-0.02,0.009-0.038,0.019-0.058,0.028c-0.034,0.016-0.067,0.033-0.102,0.049c-0.018,0.008-0.033,0.017-0.051,0.023
				c-0.007,0.004-0.016,0.006-0.022,0.009c-0.458,0.191-0.945,0.323-1.449,0.399c-0.014,0.002-0.027,0.005-0.041,0.007
				c-0.011,0.001-0.021,0.003-0.03,0.005c-0.027,0.004-0.054,0.008-0.081,0.012c-0.258,0.033-0.518,0.055-0.783,0.055
				c-0.471,0-0.928-0.057-1.368-0.156c-0.015-0.004-0.029-0.008-0.045-0.012c-0.019-0.005-0.037-0.01-0.056-0.015
				c-0.015-0.004-0.029-0.008-0.044-0.011c-0.487-0.124-0.955-0.301-1.39-0.531c-0.011-0.006-0.023-0.011-0.034-0.018
				c-0.017-0.008-0.033-0.019-0.05-0.027c-0.019-0.011-0.035-0.022-0.053-0.033c-0.092-0.051-0.18-0.106-0.269-0.162
				c-0.447-0.285-0.855-0.624-1.216-1.01c-0.001-0.002-0.002-0.002-0.003-0.004c-0.011-0.011-0.021-0.022-0.03-0.033
				c-0.003-0.004-0.006-0.006-0.009-0.01c-0.018-0.02-0.036-0.039-0.054-0.059c-0.324-0.363-0.61-0.762-0.843-1.195
				c-0.011-0.02-0.019-0.039-0.029-0.059c-0.009-0.018-0.017-0.037-0.025-0.055c-0.008-0.015-0.015-0.03-0.022-0.045
				c-0.32-0.641-0.538-1.343-0.619-2.086c-0.002-0.017-0.006-0.033-0.007-0.05c-0.002-0.013-0.001-0.026-0.003-0.04
				c-0.001-0.013,0-0.025-0.001-0.038c-0.017-0.182-0.028-0.364-0.028-0.551c0-0.323,0.032-0.639,0.08-0.948
				c0.003-0.017,0.005-0.033,0.008-0.05s0.005-0.033,0.008-0.05c0.002-0.011,0.003-0.021,0.005-0.033
				c0.012-0.063,0.019-0.128,0.032-0.19c0.113-0.542,0.301-1.056,0.546-1.534c0.041-0.082,0.083-0.162,0.128-0.24
				c0.017-0.03,0.036-0.059,0.053-0.088c0.007-0.012,0.015-0.023,0.021-0.034c0.005-0.009,0.01-0.018,0.016-0.026
				c0.265-0.438,0.576-0.843,0.937-1.201c0.007-0.007,0.016-0.014,0.022-0.021c0.006-0.005,0.011-0.009,0.017-0.015
				c0.016-0.016,0.033-0.029,0.05-0.045c0.362-0.346,0.766-0.648,1.203-0.9c0.014-0.008,0.027-0.017,0.041-0.024
				c0.016-0.009,0.031-0.021,0.048-0.028c0.012-0.008,0.022-0.016,0.035-0.021c0.438-0.238,0.912-0.419,1.407-0.546
				c0.012-0.003,0.024-0.007,0.037-0.01c0.015-0.004,0.029-0.008,0.044-0.011c0.022-0.006,0.045-0.013,0.067-0.018
				c0.181-0.042,0.364-0.074,0.551-0.1c0.275-0.038,0.556-0.064,0.842-0.064c0.267,0,0.527,0.022,0.785,0.055
				c0.056,0.008,0.11,0.018,0.166,0.025c0.034,0.006,0.069,0.011,0.104,0.017c0.015,0.003,0.029,0.004,0.043,0.007
				c0.01,0.002,0.019,0.002,0.027,0.004c0.503,0.093,0.982,0.246,1.436,0.452c0.011,0.005,0.022,0.011,0.034,0.017
				c0.006,0.002,0.012,0.006,0.018,0.008c0.023,0.012,0.047,0.023,0.07,0.035c0.575,0.277,1.1,0.639,1.56,1.07
				c0.023,0.022,0.048,0.043,0.07,0.064c0.001,0.001,0.002,0.002,0.003,0.002c0.01,0.01,0.021,0.019,0.031,0.029
				c0.354,0.348,0.661,0.74,0.924,1.163c0.007,0.011,0.014,0.022,0.021,0.034c0.013,0.02,0.025,0.041,0.038,0.062
				c0.007,0.013,0.015,0.024,0.021,0.036c0.069,0.118,0.134,0.238,0.195,0.361c0.241,0.482,0.425,0.997,0.534,1.54
				c0.015,0.074,0.022,0.151,0.034,0.226c0.003,0.02,0.006,0.04,0.009,0.061c0.003,0.018,0.006,0.035,0.009,0.053
				c0.003,0.021,0.007,0.044,0.01,0.066c0.035,0.266,0.06,0.535,0.06,0.812c0,0.218-0.012,0.433-0.034,0.646
				c-0.002,0.017-0.006,0.032-0.007,0.049c-0.003,0.02-0.007,0.039-0.01,0.059c-0.002,0.018-0.006,0.035-0.008,0.053
				c-0.102,0.775-0.342,1.508-0.703,2.166c-0.003,0.005-0.006,0.01-0.009,0.015c-0.012,0.021-0.026,0.042-0.038,0.063
				c-0.011,0.019-0.022,0.035-0.033,0.054c-0.244,0.42-0.536,0.809-0.869,1.159c-0.022,0.023-0.044,0.05-0.066,0.074
				C349.021,110.633,349.016,110.639,349.011,110.644z M282.35,94.248c2.192,0,7.774-1.649,9.919-3.98l0.296-0.32l-0.104-0.425
				c-0.688-2.796-3.932-6.604-5.854-8.674c4.917-3.168,11.347-4.913,18.182-4.913c4.192,0,8.401,0.656,12.51,1.952
				c1.629,0.514,3.176,1.14,4.656,1.839c2.586,10.195,9.616,18.674,15.861,22.686c-0.108,0.189-0.208,0.386-0.302,0.586
				l-18.562-5.771c-0.051-0.947-0.668-1.809-1.626-2.111c-1.233-0.392-2.552,0.293-2.942,1.527
				c-0.392,1.232,0.291,2.551,1.525,2.941c0.965,0.305,1.972-0.051,2.557-0.805l18.518,5.758c-0.039,0.171-0.07,0.345-0.098,0.52
				c-0.464-0.025-0.938-0.041-1.43-0.041c-7.991,0-18.342,3.223-25.95,10.269c-1.252-0.256-2.491-0.551-3.702-0.933
				c-12.665-3.992-20.824-12.864-23.473-20.104C282.337,94.248,282.343,94.248,282.35,94.248z M352.388,107.104
				c6.097,0.209,14.226,2.961,21.109,8.641c-0.687,0.035-1.371,0.076-2.064,0.076c-8.133,0-15.589-2.459-20.095-5.561
				C351.896,109.314,352.27,108.247,352.388,107.104z M362.124,82.051c-1.538,5.439-3.972,9.604-5.674,12.057
				c-1.938,2.795-4.128,5.119-6.245,6.731c-0.691-0.711-1.517-1.288-2.435-1.697C349.712,93.743,354.689,86.906,362.124,82.051z
				 M317.206,116.078c-0.734,0-1.461-0.041-2.188-0.082c6.975-5.9,15.463-8.988,21.791-9.072c0.092,1.141,0.426,2.213,0.956,3.165
				C333.423,113.264,325.99,116.078,317.206,116.078z M326.947,82.546c6.288,4.202,10.713,9.737,12.947,14.153
				c0.457,0.904,0.841,1.786,1.147,2.632c-0.78,0.401-1.483,0.928-2.085,1.556C334.45,97.539,329.446,90.922,326.947,82.546z
				 M344.397,136.423c-2.823-7.358-3.163-14.764-2.313-19.813c0.164-0.975,0.373-1.889,0.62-2.733
				c0.608,0.153,1.242,0.243,1.897,0.243c0.445,0,0.88-0.047,1.305-0.118C347.525,119.598,347.554,128.094,344.397,136.423z
				 M382.917,114.091c-1.263,0.396-2.558,0.7-3.867,0.962c-7.552-6.781-17.778-9.881-25.696-9.881c-0.345,0-0.678,0.012-1.01,0.023
				c-0.029-0.204-0.062-0.406-0.105-0.605l18.141-5.646c0.578,0.75,1.576,1.107,2.536,0.814c1.237-0.378,1.934-1.689,1.557-2.928
				c-0.38-1.238-1.687-1.936-2.927-1.556c-0.967,0.295-1.594,1.159-1.646,2.112l-18.182,5.66c-0.114-0.248-0.24-0.487-0.378-0.721
				c6.214-4.115,13.23-12.755,15.716-23.009c1.403-0.646,2.869-1.22,4.399-1.701c4.104-1.29,8.351-1.943,12.622-1.943
				c7.056,0,13.617,1.813,18.135,4.981c-1.788,1.234-5.443,5.804-5.866,8.951l-0.059,0.433l0.328,0.288
				c2.164,1.898,7.004,3.162,9.767,3.758C403.463,101.186,395.849,110.027,382.917,114.091z M398.622,87.77
				c0.346-0.727,0.785-1.447,1.267-2.125c-0.008,0.015-0.018,0.029-0.025,0.043c-0.39,0.671-0.799,1.356-1.21,2.03
				C398.644,87.734,398.633,87.752,398.622,87.77z M345.013,51.516c2.462-1.496,5.115-5.732,6.513-8.189
				c5.9,4.912,12.053,14.824,12.053,28.38c0,1.669-0.122,3.267-0.32,4.804c-9.152,5.452-15.293,14.812-17.32,22.078
				c-0.186-0.031-0.37-0.064-0.56-0.083l-0.106-19.473c0.887-0.335,1.521-1.185,1.521-2.188c0-1.295-1.051-2.344-2.345-2.344
				c-1.295,0-2.344,1.049-2.344,2.344c0,1.012,0.644,1.865,1.54,2.194l0.106,19.476c-0.318,0.035-0.629,0.094-0.935,0.166
				c-0.505-1.748-1.249-3.621-2.222-5.545c-3.446-6.812-8.754-12.517-14.877-16.215c-0.24-1.692-0.375-3.432-0.375-5.214
				c0-13.281,6.012-23.731,12.121-28.433c0.639,2.072,3.904,6.936,6.78,8.283l0.396,0.186L345.013,51.516z M287.095,91.482
				c0.74-0.344,1.51-0.689,2.272-1.023c-0.706,0.402-1.488,0.744-2.279,1.026C287.09,91.484,287.092,91.483,287.095,91.482z
				 M301.939,152.855c-1.923-7.433-1.132-19.076,6.78-30.081c0.731-1.018,1.521-1.973,2.339-2.896
				c1.125,0.111,2.259,0.188,3.41,0.188c10.081,0,19.184-4.102,24.398-8.467c0.062,0.066,0.121,0.139,0.186,0.203l-11.342,15.159
				c-0.908-0.269-1.928,0.025-2.533,0.826c-0.781,1.032-0.576,2.503,0.455,3.282c1.032,0.783,2.501,0.579,3.282-0.453
				c0.609-0.806,0.613-1.874,0.097-2.678l11.305-15.107c0.199,0.132,0.405,0.256,0.617,0.369c-0.643,1.725-1.164,3.703-1.527,5.861
				c-1.306,7.757-0.332,15.745,2.603,22.484c-0.673,1.201-1.413,2.387-2.244,3.543c-7.752,10.784-18.733,15.763-26.439,16.014
				c0.695-2.054,0.885-7.902-0.669-10.685l-0.213-0.382l-0.436-0.033C309.123,149.784,304.508,151.673,301.939,152.855z
				 M341.529,46.988c0.549,0.602,1.109,1.229,1.654,1.854C342.592,48.293,342.033,47.652,341.529,46.988z M312.194,155.708
				c-0.095-0.805-0.183-1.638-0.261-2.46C312.093,154.037,312.173,154.878,312.194,155.708z M376.607,150.045l-0.428,0.083
				l-0.168,0.402c-1.108,2.658-0.755,7.647-0.435,10.455c-7.661-0.492-18.477-4.877-26.465-15.827
				c-0.861-1.182-1.631-2.393-2.323-3.62c4.19-9.765,3.626-20.931,0.987-28.099c0.135-0.061,0.268-0.125,0.397-0.191l11.037,15.525
				c-0.534,0.784-0.565,1.844,0.012,2.664c0.745,1.061,2.208,1.315,3.268,0.57c1.059-0.744,1.314-2.205,0.568-3.266
				c-0.58-0.826-1.598-1.155-2.521-0.909l-10.999-15.475c0.243-0.198,0.472-0.413,0.689-0.639
				c5.292,4.237,14.275,8.086,23.965,8.086c1.131,0,2.244-0.072,3.347-0.177c0.856,0.947,1.688,1.936,2.462,2.997
				c7.827,10.731,9.131,22.718,6.966,30.115C385.233,151.441,379.729,149.432,376.607,150.045z M379.073,151.612
				c0.802,0.095,1.628,0.281,2.425,0.521C380.571,151.944,379.711,151.756,379.073,151.612z"/>
		</g>
	</g>
</g>
<g id="Layer_8" display="none">
	<circle display="inline" fill="#E3D8B5" cx="128.534" cy="97.646" r="77.4"/>
	<g display="inline">
		
			<polygon fill="none" stroke="#B49C6E" stroke-width="2.1" stroke-linecap="round" stroke-linejoin="round" stroke-miterlimit="10" points="
			128.548,97.646 162.163,154.483 95.196,154.483 		"/>
		
			<line fill="none" stroke="#B49C6E" stroke-width="2.1" stroke-linecap="round" stroke-linejoin="round" stroke-miterlimit="10" x1="128.527" y1="135.364" x2="128.527" y2="98.039"/>
		
			<line fill="none" stroke="#B49C6E" stroke-width="2.1" stroke-linecap="round" stroke-linejoin="round" stroke-miterlimit="10" x1="128.542" y1="135.383" x2="96.075" y2="153.957"/>
		
			<line fill="none" stroke="#B49C6E" stroke-width="2.1" stroke-linecap="round" stroke-linejoin="round" stroke-miterlimit="10" x1="128.552" y1="135.375" x2="160.999" y2="153.822"/>
		
			<polygon fill="none" stroke="#B49C6E" stroke-width="2.1" stroke-linecap="round" stroke-linejoin="round" stroke-miterlimit="10" points="
			95.201,154.483 61.589,97.646 128.554,97.646 		"/>
		
			<line fill="none" stroke="#B49C6E" stroke-width="2.1" stroke-linecap="round" stroke-linejoin="round" stroke-miterlimit="10" x1="95.209" y1="116.769" x2="95.209" y2="154.092"/>
		
			<line fill="none" stroke="#B49C6E" stroke-width="2.1" stroke-linecap="round" stroke-linejoin="round" stroke-miterlimit="10" x1="95.208" y1="116.746" x2="127.661" y2="98.17"/>
		
			<line fill="none" stroke="#B49C6E" stroke-width="2.1" stroke-linecap="round" stroke-linejoin="round" stroke-miterlimit="10" x1="95.196" y1="116.756" x2="62.752" y2="98.305"/>
		
			<polygon fill="none" stroke="#B49C6E" stroke-width="2.1" stroke-linecap="round" stroke-linejoin="round" stroke-miterlimit="10" points="
			162.141,154.483 128.527,97.646 195.494,97.646 		"/>
		
			<line fill="none" stroke="#B49C6E" stroke-width="2.1" stroke-linecap="round" stroke-linejoin="round" stroke-miterlimit="10" x1="162.147" y1="116.769" x2="162.147" y2="154.092"/>
		
			<line fill="none" stroke="#B49C6E" stroke-width="2.1" stroke-linecap="round" stroke-linejoin="round" stroke-miterlimit="10" x1="162.145" y1="116.746" x2="194.612" y2="98.17"/>
		
			<line fill="none" stroke="#B49C6E" stroke-width="2.1" stroke-linecap="round" stroke-linejoin="round" stroke-miterlimit="10" x1="162.134" y1="116.756" x2="129.689" y2="98.305"/>
		
			<polygon fill="none" stroke="#B49C6E" stroke-width="2.1" stroke-linecap="round" stroke-linejoin="round" stroke-miterlimit="10" points="
			94.929,40.808 128.527,97.646 61.574,97.646 		"/>
		
			<line fill="none" stroke="#B49C6E" stroke-width="2.1" stroke-linecap="round" stroke-linejoin="round" stroke-miterlimit="10" x1="94.908" y1="78.524" x2="94.908" y2="41.201"/>
		
			<line fill="none" stroke="#B49C6E" stroke-width="2.1" stroke-linecap="round" stroke-linejoin="round" stroke-miterlimit="10" x1="94.908" y1="78.545" x2="62.456" y2="97.121"/>
		
			<line fill="none" stroke="#B49C6E" stroke-width="2.1" stroke-linecap="round" stroke-linejoin="round" stroke-miterlimit="10" x1="94.932" y1="78.537" x2="127.378" y2="96.988"/>
		
			<polygon fill="none" stroke="#B49C6E" stroke-width="2.1" stroke-linecap="round" stroke-linejoin="round" stroke-miterlimit="10" points="
			161.864,40.808 195.479,97.646 128.512,97.646 		"/>
		
			<line fill="none" stroke="#B49C6E" stroke-width="2.1" stroke-linecap="round" stroke-linejoin="round" stroke-miterlimit="10" x1="161.857" y1="78.524" x2="161.857" y2="41.201"/>
		
			<line fill="none" stroke="#B49C6E" stroke-width="2.1" stroke-linecap="round" stroke-linejoin="round" stroke-miterlimit="10" x1="161.859" y1="78.545" x2="129.406" y2="97.121"/>
		
			<line fill="none" stroke="#B49C6E" stroke-width="2.1" stroke-linecap="round" stroke-linejoin="round" stroke-miterlimit="10" x1="161.872" y1="78.537" x2="194.314" y2="96.988"/>
		
			<polygon fill="none" stroke="#B49C6E" stroke-width="2.1" stroke-linecap="round" stroke-linejoin="round" stroke-miterlimit="10" points="
			128.517,97.646 94.906,40.808 161.872,40.808 		"/>
		
			<line fill="none" stroke="#B49C6E" stroke-width="2.1" stroke-linecap="round" stroke-linejoin="round" stroke-miterlimit="10" x1="128.526" y1="59.929" x2="128.526" y2="97.252"/>
		
			<line fill="none" stroke="#B49C6E" stroke-width="2.1" stroke-linecap="round" stroke-linejoin="round" stroke-miterlimit="10" x1="128.523" y1="59.908" x2="160.989" y2="41.332"/>
		
			<line fill="none" stroke="#B49C6E" stroke-width="2.1" stroke-linecap="round" stroke-linejoin="round" stroke-miterlimit="10" x1="128.514" y1="59.916" x2="96.069" y2="41.467"/>
	</g>
</g>
<g id="Layer_4" display="none">
	<circle display="inline" fill="#E3D8B5" cx="125.606" cy="284.185" r="77.4"/>
</g>
<g id="Layer_2" display="none">
	<path display="inline" fill="#B49C6E" d="M188.447,267.304c-3.627-13.376-15.828-22.717-29.674-22.717
		c-0.916,0-1.832,0.042-2.744,0.124c-2.354-14.635-15.074-25.849-30.364-25.849c-14.352,0-26.439,9.881-29.816,23.197
		c-0.995-0.098-1.995-0.146-2.999-0.146c-13.139-0.001-24.83,8.352-29.091,20.787c-2.664,7.771-2.143,16.112,1.469,23.491
		c2.542,5.195,6.4,9.473,11.173,12.479c-5.863,12.817-2.279,28.471,9.417,37.319c5.386,4.074,11.797,6.228,18.538,6.228
		c7.83,0,15.151-2.879,20.769-8.042c5.652,5.305,13.076,8.27,21.012,8.27c6.792,0,13.243-2.183,18.65-6.313
		c6.529-4.985,10.727-12.216,11.816-20.358c0.66-4.925,0.137-9.828-1.484-14.377C186.27,294.387,192.066,280.659,188.447,267.304z"
		/>
	<path display="inline" fill="#E3D8B5" d="M184.454,268.406c-3.115-11.488-13.595-19.511-25.483-19.511
		c-2.318,0-4.637,0.308-6.891,0.917v-0.381c0-14.564-11.85-26.415-26.416-26.415c-13.77,0-25.113,10.592-26.31,24.057
		c-2.191-0.577-4.436-0.866-6.7-0.869c-11.284,0-21.325,7.174-24.985,17.856c-2.288,6.672-1.841,13.838,1.261,20.177
		c2.821,5.763,7.529,10.214,13.379,12.693c-7.747,11.53-5.214,27.297,6,35.781c4.626,3.5,10.13,5.351,15.919,5.351
		c8.274,0,15.887-3.742,20.927-10.277l0.095,0.123c5.041,6.599,12.697,10.383,21.007,10.383c5.833,0,11.371-1.877,16.016-5.425
		c5.607-4.281,9.213-10.491,10.149-17.484c0.743-5.539-0.26-11.045-2.837-15.882C181.354,294.339,187.914,281.175,184.454,268.406z"
		/>
</g>
<g id="Layer_7" display="none">
	<circle display="inline" fill="#E3D8B5" cx="346.896" cy="293.445" r="77.4"/>
	<g display="inline">
		<g>
			<g>
				<g>
					<g>
						<circle fill="#B39B6E" cx="413.901" cy="293.447" r="3.6"/>
						<circle fill="#B39B6E" cx="279.89" cy="293.447" r="3.6"/>
					</g>
					<g>
						<circle fill="#E3D8B5" cx="346.895" cy="360.452" r="1.26"/>
						<circle fill="#E3D8B5" cx="346.895" cy="226.439" r="1.26"/>
					</g>
				</g>
				<g>
					<g>
						<circle fill="#B39B6E" cx="394.276" cy="340.827" r="1.98"/>
						<circle fill="#B39B6E" cx="299.515" cy="246.066" r="1.98"/>
					</g>
					<g>
						<circle fill="#B39B6E" cx="299.515" cy="340.827" r="1.98"/>
						<circle fill="#B39B6E" cx="394.276" cy="246.066" r="1.98"/>
					</g>
				</g>
			</g>
			<g>
				<g>
					<g>
						<circle fill="#B39B6E" cx="408.801" cy="319.087" r="3.059"/>
						<circle fill="#B39B6E" cx="284.991" cy="267.803" r="3.059"/>
					</g>
					<g>
						<circle fill="#E3D8B5" cx="321.253" cy="355.351" r="1.26"/>
						<circle fill="#E3D8B5" cx="372.538" cy="231.54" r="1.259"/>
					</g>
				</g>
				<g>
					<g>
						<circle fill="#E3D8B5" cx="372.538" cy="355.351" r="1.26"/>
						<circle fill="#E3D8B5" cx="321.253" cy="231.54" r="1.259"/>
					</g>
					<g>
						<path fill="#B39B6E" d="M283.82,316.261c1.56-0.646,3.35,0.096,3.997,1.656c0.646,1.561-0.095,3.35-1.656,3.998
							c-1.561,0.645-3.351-0.096-3.998-1.658C281.518,318.698,282.26,316.907,283.82,316.261z"/>
						<circle fill="#B39B6E" cx="408.801" cy="267.803" r="3.059"/>
					</g>
				</g>
			</g>
		</g>
		<g>
			<g>
				<g>
					<g>
						<circle fill="#B39B6E" cx="412.613" cy="280.373" r="3.419"/>
						<circle fill="#B39B6E" cx="281.178" cy="306.518" r="3.42"/>
					</g>
					<g>
						<circle fill="#E3D8B5" cx="359.968" cy="359.165" r="1.26"/>
						<circle fill="#E3D8B5" cx="333.823" cy="227.728" r="1.259"/>
					</g>
				</g>
				<g>
					<g>
						<circle fill="#B39B6E" cx="402.609" cy="330.673" r="2.52"/>
						<circle fill="#B39B6E" cx="291.182" cy="256.22" r="2.519"/>
					</g>
					<g>
						<circle fill="#B39B6E" cx="309.669" cy="349.16" r="1.26"/>
						<circle fill="#B39B6E" cx="384.123" cy="237.733" r="1.26"/>
					</g>
				</g>
			</g>
			<g>
				<g>
					<g>
						<circle fill="#B39B6E" cx="412.613" cy="306.517" r="3.419"/>
						<circle fill="#B39B6E" cx="281.179" cy="280.373" r="3.419"/>
					</g>
					<g>
						<circle fill="#E3D8B5" cx="333.823" cy="359.163" r="1.26"/>
						<circle fill="#E3D8B5" cx="359.968" cy="227.727" r="1.26"/>
					</g>
				</g>
				<g>
					<g>
						<circle fill="#B39B6E" cx="384.122" cy="349.158" r="1.259"/>
						<circle fill="#B39B6E" cx="309.669" cy="237.731" r="1.26"/>
					</g>
					<g>
						<circle fill="#B39B6E" cx="291.182" cy="330.672" r="2.519"/>
						<circle fill="#B39B6E" cx="402.609" cy="256.218" r="2.52"/>
					</g>
				</g>
			</g>
		</g>
	</g>
	<g display="inline">
		<g>
			<path fill-rule="evenodd" clip-rule="evenodd" fill="#E3D8B5" d="M346.549,350.404c-10.993,0-20.771-3.429-26.155-9.171
				c-3.232-3.448-4.807-7.544-4.685-12.185c-12.669-8.438-20.079-25.324-19.379-44.291c0.853-23.142,18.642-43.378,41.378-47.072
				c3.233-0.525,6.465-0.792,9.606-0.792c17.928,0,33.449,8.511,42.584,23.35c9.624,15.633,10.149,35.316,1.405,52.652
				c-2.875,5.699-7.162,9.822-14.003,15.293c0.293,4.922-1.229,9.25-4.532,12.872C367.436,346.912,357.634,350.404,346.549,350.404z
				"/>
			<path fill="#B39B6E" d="M347.314,238.16c38.089-0.002,60.383,39.425,42.86,74.167c-2.945,5.838-7.61,10.064-14.186,15.291
				c1.334,14.392-14.049,21.521-29.44,21.521c-15.212,0-30.433-6.961-29.544-20.756c-12.648-8.043-20.106-24.725-19.411-43.579
				c0.855-23.213,18.68-42.355,40.317-45.87C341.137,238.411,344.277,238.16,347.314,238.16 M347.317,235.63v2.53V235.63
				c-3.213,0-6.513,0.272-9.812,0.808c-23.32,3.788-41.565,24.541-42.44,48.274c-0.705,19.12,6.689,36.203,19.375,45.004
				c0.051,4.654,1.774,8.909,5.03,12.383c5.619,5.993,15.742,9.57,27.078,9.57c11.435,0,21.586-3.646,27.154-9.755
				c3.343-3.667,5.018-8.185,4.888-13.138c6.691-5.386,10.936-9.548,13.843-15.31c8.942-17.731,8.397-37.876-1.459-53.886
				C381.604,244.359,365.691,235.63,347.317,235.63L347.317,235.63z"/>
		</g>
		<g>
			<path fill-rule="evenodd" clip-rule="evenodd" fill="#E3D8B5" d="M346.549,347.387c-11.118,0-20.95-3.412-26.301-9.127
				c-3.12-3.332-4.641-7.274-4.525-11.728c-12.669-8.244-20.078-24.741-19.378-43.271c0.854-22.61,18.639-42.379,41.37-45.985
				c3.231-0.513,6.461-0.772,9.6-0.772c18.23,0,33.889,8.543,42.961,23.438c9.235,15.163,9.612,34.16,1.01,50.817
				c-2.877,5.567-7.162,9.593-13.998,14.932c0.283,4.725-1.186,8.892-4.372,12.396C367.618,343.91,357.762,347.387,346.549,347.387z
				"/>
			<path fill="#B39B6E" d="M347.314,237.754c38.089-0.002,60.383,38.503,42.86,72.433c-2.945,5.699-7.61,9.828-14.186,14.932
				c1.334,14.056-14.049,21.019-29.44,21.019c-15.212,0-30.433-6.798-29.544-20.271c-12.648-7.855-20.106-24.146-19.411-42.558
				c0.855-22.67,18.68-41.365,40.317-44.798C341.137,237.999,344.277,237.754,347.314,237.754 M347.317,235.254v2.5V235.254
				c-3.208,0-6.504,0.265-9.798,0.788c-23.311,3.698-41.549,23.978-42.424,47.172c-0.706,18.689,6.688,35.385,19.375,43.987
				c0.058,4.465,1.724,8.558,4.864,11.913c5.583,5.963,15.756,9.522,27.214,9.522c11.559,0,21.761-3.629,27.291-9.709
				c3.224-3.544,4.842-7.893,4.723-12.646c6.683-5.255,10.925-9.318,13.833-14.947c8.805-17.048,8.41-36.503-1.054-52.042
				C382.038,244.015,365.991,235.254,347.317,235.254L347.317,235.254z"/>
		</g>
		<g>
			<path fill-rule="evenodd" clip-rule="evenodd" fill="#E3D8B5" d="M346.549,349.389c-11.118,0-20.95-3.412-26.301-9.127
				c-3.12-3.332-4.641-7.274-4.525-11.728c-12.669-8.244-20.078-24.741-19.378-43.271c0.854-22.61,18.639-42.379,41.37-45.985
				c3.231-0.513,6.461-0.772,9.6-0.772c18.23,0,33.889,8.543,42.961,23.438c9.235,15.163,9.612,34.16,1.01,50.817
				c-2.877,5.567-7.162,9.593-13.998,14.932c0.283,4.725-1.186,8.892-4.372,12.396C367.618,345.912,357.762,349.389,346.549,349.389
				z"/>
			<path fill="#B39B6E" d="M347.314,239.756c38.089-0.002,60.383,38.503,42.86,72.433c-2.945,5.699-7.61,9.828-14.186,14.932
				c1.334,14.056-14.049,21.019-29.44,21.019c-15.212,0-30.433-6.798-29.544-20.271c-12.648-7.855-20.106-24.146-19.411-42.558
				c0.855-22.67,18.68-41.365,40.317-44.798C341.137,240.001,344.277,239.756,347.314,239.756 M347.317,237.256v2.5V237.256
				c-3.208,0-6.504,0.265-9.798,0.788c-23.311,3.698-41.549,23.978-42.424,47.172c-0.706,18.689,6.688,35.385,19.375,43.987
				c0.058,4.465,1.724,8.558,4.864,11.913c5.583,5.963,15.756,9.522,27.214,9.522c11.559,0,21.761-3.629,27.291-9.709
				c3.224-3.544,4.842-7.893,4.723-12.646c6.683-5.255,10.925-9.318,13.833-14.947c8.805-17.048,8.41-36.503-1.054-52.042
				C382.038,246.017,365.991,237.256,347.317,237.256L347.317,237.256z"/>
		</g>
		<g>
			<path fill-rule="evenodd" clip-rule="evenodd" fill="#E3D8B5" d="M375.989,327.12c2.652,27.947-60.772,27.852-58.984,0.748
				c-12.648-7.855-20.106-24.146-19.411-42.558c0.855-22.67,18.68-41.365,40.317-44.798c43.68-6.929,71.184,35.04,52.264,71.676
				C387.229,317.888,382.564,322.017,375.989,327.12z"/>
		</g>
		<g>
			<path fill="#B39B6E" d="M389.064,297.418c0-3.113-2.522-5.637-5.636-5.637c-0.223,0-0.44,0.016-0.657,0.041
				c0.172-0.133,0.337-0.277,0.494-0.434c2.201-2.201,2.201-5.77,0-7.971s-5.771-2.201-7.972-0.002
				c-0.157,0.158-0.3,0.322-0.434,0.492c0.025-0.215,0.041-0.432,0.041-0.654c0-3.113-2.523-5.637-5.637-5.637
				s-5.637,2.523-5.637,5.637c0,0.223,0.016,0.439,0.041,0.656c-0.134-0.17-0.277-0.336-0.435-0.494
				c-2.2-2.199-5.77-2.199-7.972,0.002c-2.2,2.201-2.2,5.77,0,7.971c0.158,0.156,0.322,0.299,0.493,0.434
				c-0.216-0.025-0.434-0.041-0.655-0.041c-3.113,0-5.636,2.523-5.636,5.637s2.522,5.637,5.636,5.637
				c0.222,0,0.439-0.016,0.655-0.041c-0.171,0.135-0.335,0.277-0.493,0.435c-2.2,2.199-2.2,5.77,0.001,7.973
				c2.201,2.199,5.771,2.199,7.971,0c0.157-0.158,0.3-0.324,0.435-0.494c-0.025,0.215-0.041,0.434-0.041,0.654
				c0,3.113,2.523,5.637,5.637,5.637s5.637-2.523,5.637-5.637c0-0.221-0.016-0.439-0.041-0.652c0.134,0.17,0.276,0.334,0.434,0.492
				c2.201,2.199,5.771,2.199,7.972,0c2.201-2.203,2.201-5.773,0-7.973c-0.157-0.157-0.322-0.3-0.494-0.435
				c0.217,0.025,0.435,0.041,0.657,0.041C386.542,303.055,389.064,300.531,389.064,297.418z"/>
			<circle fill="#E3D8B5" cx="369.265" cy="297.418" r="12.811"/>
		</g>
		<g>
			<path fill="#B39B6E" d="M343.208,297.418c0-3.113-2.523-5.637-5.637-5.637c-0.223,0-0.44,0.016-0.655,0.041
				c0.169-0.133,0.335-0.277,0.491-0.434c2.203-2.201,2.203-5.77,0-7.971c-2.2-2.201-5.77-2.201-7.97,0
				c-0.157,0.156-0.3,0.32-0.434,0.49c0.024-0.215,0.041-0.432,0.041-0.652c0-3.114-2.524-5.638-5.638-5.638
				s-5.636,2.523-5.636,5.638c0,0.221,0.017,0.439,0.041,0.654c-0.134-0.17-0.277-0.336-0.435-0.492
				c-2.201-2.201-5.771-2.201-7.972,0c-2.2,2.201-2.2,5.77,0,7.971c0.157,0.156,0.322,0.299,0.492,0.434
				c-0.215-0.025-0.432-0.041-0.654-0.041c-3.113,0-5.637,2.523-5.637,5.637s2.523,5.637,5.637,5.637
				c0.223,0,0.439-0.016,0.654-0.041c-0.17,0.135-0.335,0.277-0.492,0.435c-2.2,2.199-2.2,5.77,0.001,7.971
				c2.2,2.201,5.77,2.201,7.971,0c0.157-0.156,0.3-0.324,0.435-0.492c-0.024,0.215-0.041,0.432-0.041,0.654
				c0,3.113,2.522,5.637,5.636,5.637s5.638-2.523,5.638-5.637c0-0.221-0.017-0.439-0.041-0.652c0.134,0.168,0.276,0.334,0.434,0.49
				c2.2,2.201,5.77,2.201,7.97,0c2.203-2.201,2.203-5.771,0-7.971c-0.156-0.157-0.322-0.3-0.491-0.435
				c0.215,0.025,0.433,0.041,0.655,0.041C340.685,303.055,343.208,300.531,343.208,297.418z"/>
			<circle fill="#E3D8B5" cx="323.408" cy="297.418" r="12.81"/>
		</g>
		<g>
			<ellipse fill-rule="evenodd" clip-rule="evenodd" fill="#B39B6E" cx="350.352" cy="335.29" rx="3.599" ry="3.764"/>
			<ellipse fill-rule="evenodd" clip-rule="evenodd" fill="#B39B6E" cx="350.352" cy="330.81" rx="3.599" ry="3.764"/>
			<rect x="346.753" y="330.778" fill-rule="evenodd" clip-rule="evenodd" fill="#B39B6E" width="7.2" height="4.52"/>
		</g>
		<g>
			<ellipse fill-rule="evenodd" clip-rule="evenodd" fill="#B39B6E" cx="341.751" cy="335.29" rx="3.6" ry="3.764"/>
			<ellipse fill-rule="evenodd" clip-rule="evenodd" fill="#B39B6E" cx="341.751" cy="330.81" rx="3.6" ry="3.764"/>
			<rect x="338.151" y="330.778" fill-rule="evenodd" clip-rule="evenodd" fill="#B39B6E" width="7.2" height="4.52"/>
		</g>
		<g>
			<ellipse fill-rule="evenodd" clip-rule="evenodd" fill="#B39B6E" cx="358.596" cy="334.298" rx="3.24" ry="3.406"/>
			<ellipse fill-rule="evenodd" clip-rule="evenodd" fill="#B39B6E" cx="358.596" cy="330.243" rx="3.24" ry="3.406"/>
			<rect x="355.356" y="330.216" fill-rule="evenodd" clip-rule="evenodd" fill="#B39B6E" width="6.48" height="4.088"/>
		</g>
		<g>
			<ellipse fill-rule="evenodd" clip-rule="evenodd" fill="#B39B6E" cx="333.508" cy="334.298" rx="3.24" ry="3.406"/>
			<ellipse fill-rule="evenodd" clip-rule="evenodd" fill="#B39B6E" cx="333.508" cy="330.243" rx="3.24" ry="3.406"/>
			<rect x="330.268" y="330.216" fill-rule="evenodd" clip-rule="evenodd" fill="#B39B6E" width="6.48" height="4.088"/>
		</g>
		<g>
			<ellipse fill-rule="evenodd" clip-rule="evenodd" fill="#B39B6E" cx="365.829" cy="332.546" rx="2.52" ry="2.752"/>
			<ellipse fill-rule="evenodd" clip-rule="evenodd" fill="#B39B6E" cx="365.829" cy="329.271" rx="2.52" ry="2.752"/>
			<rect x="363.309" y="329.247" fill-rule="evenodd" clip-rule="evenodd" fill="#B39B6E" width="5.04" height="3.305"/>
		</g>
		<g>
			<ellipse fill-rule="evenodd" clip-rule="evenodd" fill="#B39B6E" cx="326.276" cy="332.546" rx="2.52" ry="2.752"/>
			<ellipse fill-rule="evenodd" clip-rule="evenodd" fill="#B39B6E" cx="326.276" cy="329.271" rx="2.52" ry="2.752"/>
			<rect x="323.756" y="329.247" fill-rule="evenodd" clip-rule="evenodd" fill="#B39B6E" width="5.04" height="3.305"/>
		</g>
		<g>
			<g>
				<circle fill="#B39B6E" cx="355.627" cy="265.137" r="2.426"/>
				<circle fill="#B39B6E" cx="336.588" cy="265.322" r="2.426"/>
			</g>
			<g>
				<g>
					<path fill="#B39B6E" d="M354.042,251.998c0-1.568-1.03-3.182-3.413-3.139c-2.498,0.045-3.812,1.795-4.47,2.152
						c-0.866-0.492-2.257-2.307-4.752-2.195c-3.002,0.135-3.405,2.957-3.181,3.943c0.358,3.764,6.361,7.885,7.933,8.658
						C347.775,260.48,353.953,255.986,354.042,251.998z"/>
				</g>
				<path fill="#B39B6E" d="M350.4,277.32c0,2.371-1.922,4.293-4.293,4.293s-4.293-1.922-4.293-4.293
					c0-5.299,3.732-9.893,4.105-9.893C346.338,267.428,350.4,272.201,350.4,277.32z"/>
			</g>
		</g>
		<g>
			<g>
				<path fill="#B39B6E" d="M377.155,265.098c0.129,0.846-0.105,1.709-0.532,2.402c-1.034,1.682-4.74,2.311-6.526-0.402
					c-4.147-6.303-6.684-4.582-6.786-5.447c-0.079-0.67,1.169-0.91,2.134-1.066C370.528,259.756,376.471,260.607,377.155,265.098z"
					/>
				<path fill="#B39B6E" d="M315.06,265.098c-0.129,0.846,0.106,1.709,0.532,2.402c1.034,1.682,4.74,2.311,6.526-0.402
					c4.147-6.303,6.684-4.582,6.786-5.447c0.079-0.67-1.168-0.91-2.134-1.066C321.687,259.756,315.744,260.607,315.06,265.098z"/>
			</g>
			<g>
				<path fill="#B39B6E" d="M368.032,251.727c0.855,1.002,0.539,2.783-1.096,3.307c-2.863,0.918-3.363,2.25-3.841,2.07
					c-0.371-0.143-0.332-0.859-0.285-1.406c0.163-1.967,0.759-3.58,1.933-4.387C366.062,250.404,367.356,250.939,368.032,251.727z"
					/>
				<path fill="#B39B6E" d="M324.418,251.727c-0.856,1.002-0.539,2.783,1.096,3.307c2.863,0.918,3.362,2.25,3.841,2.07
					c0.371-0.143,0.331-0.859,0.285-1.406c-0.164-1.967-0.759-3.58-1.934-4.387C326.388,250.404,325.093,250.939,324.418,251.727z"
					/>
			</g>
		</g>
		<g>
			<path fill="#B39B6E" d="M340.366,318.567c0,1.113,0.734,2.262,2.428,2.23c1.778-0.031,2.713-1.275,3.182-1.531
				c0.615,0.352,1.605,1.643,3.379,1.562c2.136-0.096,2.422-2.104,2.264-2.805c-0.256-2.678-4.526-5.609-5.643-6.158
				C344.825,312.532,340.431,315.731,340.366,318.567z"/>
		</g>
		<path fill="none" stroke="#E3D8B5" stroke-width="1.3439" d="M369.893,330.63c-11.081,3.395-36.7,4.426-48.617-0.379"/>
	</g>
</g>
<g id="Layer_3" display="none">
	<g display="inline">
		<path fill="#B49C6E" d="M145.907,332.745c-6.736,0-12.941-3.065-17.026-8.411l-3.731-4.886l-3.465,4.58
			c-4.083,5.397-10.312,8.491-17.087,8.491c-4.688,0-9.147-1.497-12.896-4.333c-9.412-7.12-11.278-20.571-4.159-29.983l2.859-3.781
			l-4.119-1.412c-5.409-1.852-9.772-5.703-12.285-10.838c-2.514-5.136-2.876-10.941-1.021-16.351
			c2.966-8.654,11.102-14.469,20.245-14.469c2.358,0,4.694,0.392,6.944,1.163l4.097,1.404v-3.953
			c0-11.803,9.602-21.404,21.405-21.404c11.803,0,21.405,9.602,21.405,21.404v6.332l5.718-1.549
			c1.837-0.498,3.726-0.751,5.611-0.751c9.634,0,18.125,6.502,20.649,15.81c3.086,11.394-3.67,23.172-15.061,26.26l-2.346,0.635
			l1.258,1.648c3.472,4.541,4.965,10.165,4.205,15.831c-0.76,5.667-3.68,10.699-8.225,14.169c-3.764,2.875-8.25,4.396-12.974,4.396
			C145.909,332.745,145.909,332.745,145.907,332.745z"/>
		<path fill="#B49C6E" d="M125.667,229.562c11.269,0,20.405,9.136,20.405,20.404v7.638l6.981-1.89
			c1.787-0.485,3.582-0.716,5.349-0.716c8.987,0,17.22,5.983,19.685,15.072c2.946,10.875-3.481,22.084-14.357,25.031l-3.782,1.023
			l2.161,2.83c6.842,8.955,5.125,21.761-3.832,28.602c-3.697,2.823-8.049,4.188-12.368,4.188c-6.141,0-12.214-2.762-16.231-8.019
			l-4.53-5.934l-4.259,5.633c-4.013,5.303-10.114,8.096-16.29,8.096c-4.288,0-8.61-1.348-12.293-4.133
			c-8.987-6.799-10.763-19.594-3.964-28.582l3.693-4.883l-5.426-1.859c-10.661-3.653-16.341-15.258-12.686-25.918
			c2.903-8.468,10.822-13.794,19.299-13.794c2.195,0,4.427,0.358,6.62,1.109l5.421,1.857v-5.353
			C105.262,238.698,114.398,229.562,125.667,229.562 M125.667,227.561c-12.354,0-22.405,10.05-22.405,22.405v2.554l-2.772-0.951
			c-2.354-0.806-4.799-1.216-7.268-1.216c-9.57,0-18.087,6.086-21.191,15.146c-1.941,5.66-1.562,11.738,1.069,17.115
			c2.631,5.373,7.198,9.404,12.859,11.344l2.812,0.965l-2.026,2.678c-7.451,9.852-5.499,23.93,4.353,31.384
			c3.924,2.969,8.593,4.537,13.5,4.537c7.092,0,13.611-3.24,17.885-8.89l2.671-3.529l2.932,3.839
			c4.276,5.595,10.771,8.806,17.821,8.806c4.946,0,9.644-1.591,13.583-4.601c4.757-3.634,7.814-8.899,8.609-14.831
			s-0.769-11.818-4.402-16.573l-0.354-0.462l0.907-0.247c11.924-3.231,18.996-15.561,15.767-27.486
			c-2.645-9.743-11.532-16.549-21.616-16.549c-1.974,0-3.95,0.264-5.873,0.786l-4.456,1.206v-5.023
			C148.072,237.611,138.021,227.561,125.667,227.561L125.667,227.561z"/>
	</g>
	<path display="inline" fill="#E3D8B5" d="M178.086,270.07c-2.95-10.877-14.157-17.305-25.033-14.356l-6.981,1.89v-7.638
		c0-11.268-9.136-20.404-20.405-20.404s-20.405,9.136-20.405,20.404v5.353l-5.421-1.857c-10.661-3.654-22.265,2.024-25.919,12.685
		c-3.655,10.66,2.025,22.265,12.686,25.918l5.426,1.859l-3.693,4.883c-6.798,8.988-5.023,21.783,3.964,28.582
		s21.784,5.023,28.583-3.963l4.259-5.633l4.53,5.934c6.841,8.955,19.646,10.668,28.599,3.83c8.957-6.841,10.674-19.646,3.832-28.602
		l-2.161-2.83l3.782-1.023C174.604,292.154,181.032,280.945,178.086,270.07z"/>
	<g display="inline">
		<g>
			<path fill="#B49C6E" d="M125.612,292.965c-4.911,0-8.906-3.995-8.906-8.907c0-4.911,3.995-8.906,8.906-8.906
				c4.912,0,8.907,3.995,8.907,8.906C134.519,288.97,130.524,292.965,125.612,292.965z M125.612,278.39
				c-3.125,0-5.667,2.544-5.667,5.668c0,3.125,2.542,5.668,5.667,5.668c3.125,0,5.668-2.543,5.668-5.668
				C131.28,280.934,128.738,278.39,125.612,278.39z"/>
		</g>
		<g>
			<g>
				<path fill="#B49C6E" d="M124.921,296.749c0.033-0.501,0.493-0.767,1.004-0.799l0,0c0.491,0.021,0.946,0.345,0.979,0.845
					c0.015,0.22,0.647,9.131,0.647,9.131c0,0.87-0.727,1.575-1.625,1.575l0,0c-0.898,0-1.627-0.705-1.627-1.575
					C124.298,305.926,124.907,296.969,124.921,296.749z"/>
				<path fill="#E3D8B5" d="M125.925,307.609c-0.957,0-1.734-0.756-1.734-1.684c0-0.008,0.608-8.964,0.623-9.184
					c0.033-0.506,0.466-0.859,1.104-0.899c0.52,0.02,1.054,0.352,1.093,0.944c0.014,0.218,0.64,9.042,0.646,9.131
					C127.658,306.854,126.881,307.609,125.925,307.609z M125.921,296.059c-0.386,0.025-0.861,0.223-0.893,0.698
					c-0.014,0.217-0.623,9.177-0.623,9.177c0,0.802,0.682,1.46,1.519,1.46c0.837,0,1.518-0.658,1.518-1.468
					c-0.006-0.082-0.632-8.906-0.647-9.123C126.765,296.336,126.332,296.075,125.921,296.059z"/>
			</g>
			<g>
				<circle fill="#B49C6E" cx="125.924" cy="311.692" r="2.142"/>
				<path fill="#E3D8B5" d="M125.924,313.942c-1.241,0-2.25-1.009-2.25-2.25s1.009-2.25,2.25-2.25c1.24,0,2.25,1.009,2.25,2.25
					S127.165,313.942,125.924,313.942z M125.924,309.658c-1.122,0-2.034,0.913-2.034,2.034s0.913,2.033,2.034,2.033
					c1.121,0,2.034-0.912,2.034-2.033S127.045,309.658,125.924,309.658z"/>
			</g>
		</g>
		<g>
			<g>
				<path fill="#B49C6E" d="M113.251,287.146c0.488-0.116,0.877,0.244,1.061,0.722l0,0c0.126,0.476-0.049,1.006-0.518,1.187
					c-0.206,0.078-8.529,3.324-8.529,3.324c-0.831,0.257-1.72-0.229-1.986-1.084l0,0c-0.266-0.86,0.192-1.765,1.023-2.022
					C104.302,289.271,113.037,287.199,113.251,287.146z"/>
				<path fill="#E3D8B5" d="M104.812,292.556c-0.738,0-1.411-0.506-1.636-1.229c-0.283-0.915,0.208-1.883,1.094-2.157
					c0.095-0.023,8.744-2.076,8.956-2.127c0.489-0.116,0.963,0.201,1.187,0.787c0.134,0.503-0.025,1.112-0.58,1.325
					c-0.203,0.077-8.445,3.292-8.528,3.324C105.139,292.529,104.976,292.556,104.812,292.556z M113.435,287.231
					c-0.052,0-0.105,0.007-0.158,0.02c-0.211,0.053-8.862,2.105-8.949,2.126c-0.766,0.236-1.193,1.085-0.945,1.886
					c0.197,0.633,0.785,1.076,1.429,1.076c0.143,0,0.285-0.021,0.422-0.064c0.076-0.029,8.319-3.244,8.523-3.321
					c0.435-0.168,0.557-0.659,0.45-1.059C114.086,287.58,113.816,287.231,113.435,287.231z"/>
			</g>
			<g>
				<circle fill="#B49C6E" cx="99.275" cy="292.534" r="2.142"/>
				<path fill="#E3D8B5" d="M99.274,294.784c-0.99,0-1.853-0.636-2.147-1.583c-0.178-0.574-0.123-1.183,0.158-1.715
					c0.28-0.531,0.75-0.923,1.324-1.102c0.218-0.067,0.442-0.102,0.668-0.102c0.99,0,1.854,0.637,2.147,1.583
					c0.178,0.575,0.122,1.185-0.158,1.717c-0.28,0.531-0.75,0.922-1.324,1.1C99.725,294.749,99.5,294.784,99.274,294.784z
					 M99.277,290.499c-0.204,0-0.408,0.031-0.604,0.093c-0.519,0.16-0.944,0.514-1.197,0.996c-0.253,0.48-0.304,1.03-0.143,1.549
					c0.266,0.855,1.046,1.432,1.941,1.432c0.204,0,0.407-0.031,0.604-0.092c0.518-0.161,0.943-0.514,1.197-0.995
					c0.253-0.48,0.304-1.03,0.143-1.551C100.953,291.074,100.173,290.499,99.277,290.499z"/>
			</g>
		</g>
		<g>
			<g>
				<path fill="#B49C6E" d="M118.497,273.458c0.274,0.419,0.067,0.906-0.321,1.241l0,0c-0.405,0.278-0.963,0.294-1.29-0.087
					c-0.144-0.167-6.012-6.902-6.012-6.902c-0.523-0.695-0.367-1.695,0.35-2.237l0,0c0.718-0.54,1.724-0.414,2.248,0.28
					C113.472,265.753,118.375,273.273,118.497,273.458z"/>
				<path fill="#E3D8B5" d="M117.54,275.012c-0.292,0-0.554-0.117-0.736-0.328c-0.143-0.166-5.952-6.836-6.011-6.903
					c-0.562-0.747-0.396-1.818,0.366-2.393c0.31-0.234,0.677-0.358,1.061-0.358c0.535,0,1.022,0.239,1.338,0.659
					c0.053,0.08,4.909,7.527,5.029,7.709c0.277,0.425,0.144,0.966-0.34,1.384C118.027,274.933,117.78,275.012,117.54,275.012z
					 M112.22,265.245c-0.336,0-0.658,0.108-0.931,0.315c-0.667,0.503-0.814,1.438-0.329,2.084c0.054,0.062,5.865,6.731,6.007,6.897
					c0.18,0.21,0.411,0.254,0.573,0.254c0.197,0,0.4-0.066,0.575-0.186c0.306-0.266,0.551-0.697,0.291-1.094
					c-0.119-0.182-4.975-7.629-5.024-7.704C113.111,265.454,112.686,265.245,112.22,265.245z"/>
			</g>
			<g>
				<circle fill="#B49C6E" cx="108.703" cy="262.125" r="2.142"/>
				<path fill="#E3D8B5" d="M108.705,264.375c-0.713,0-1.37-0.326-1.799-0.896c-0.746-0.99-0.546-2.402,0.443-3.15
					c0.394-0.296,0.86-0.452,1.352-0.452c0.714,0,1.371,0.326,1.8,0.896c0.746,0.991,0.547,2.404-0.444,3.151
					C109.663,264.219,109.196,264.375,108.705,264.375z M108.7,260.091c-0.443,0-0.867,0.142-1.221,0.41
					c-0.895,0.676-1.075,1.953-0.401,2.848c0.389,0.516,0.981,0.812,1.626,0.812c0.444,0,0.867-0.143,1.222-0.411
					c0.896-0.674,1.076-1.951,0.402-2.848C109.94,260.386,109.346,260.091,108.7,260.091z"/>
			</g>
		</g>
		<g>
			<g>
				<path fill="#B49C6E" d="M133.973,274.427c-0.333,0.374-0.859,0.301-1.282,0.011l0,0c-0.374-0.316-0.533-0.853-0.251-1.268
					c0.125-0.183,5.111-7.594,5.111-7.594c0.536-0.686,1.543-0.793,2.252-0.241l0,0c0.708,0.554,0.847,1.558,0.31,2.244
					C140.113,267.579,134.119,274.263,133.973,274.427z"/>
				<path fill="#E3D8B5" d="M133.397,274.79c-0.248,0-0.52-0.094-0.767-0.264c-0.454-0.383-0.57-0.989-0.28-1.417
					c0.124-0.18,5.062-7.52,5.111-7.594c0.32-0.41,0.801-0.642,1.323-0.642c0.389,0,0.774,0.133,1.085,0.376
					c0.374,0.292,0.61,0.709,0.667,1.171c0.053,0.442-0.066,0.878-0.338,1.225c-0.064,0.072-6,6.69-6.145,6.852
					C133.884,274.689,133.657,274.79,133.397,274.79z M138.785,265.09c-0.455,0-0.874,0.202-1.148,0.553
					c-0.046,0.068-4.983,7.408-5.107,7.589c-0.262,0.387-0.082,0.857,0.232,1.123c0.203,0.139,0.433,0.22,0.636,0.22
					c0.198,0,0.366-0.075,0.496-0.22c0.143-0.161,6.08-6.781,6.14-6.849c0.232-0.295,0.336-0.673,0.289-1.059
					c-0.049-0.406-0.257-0.771-0.585-1.027C139.459,265.204,139.131,265.09,138.785,265.09z"/>
			</g>
			<g>
				<circle fill="#B49C6E" cx="142.385" cy="262.033" r="2.142"/>
				<path fill="#E3D8B5" d="M142.383,264.284c-0.506,0-0.985-0.166-1.384-0.479c-0.977-0.764-1.15-2.181-0.387-3.158
					c0.429-0.549,1.076-0.863,1.774-0.863c0.505,0,0.984,0.165,1.384,0.477c0.977,0.763,1.15,2.18,0.388,3.158
					C143.728,263.968,143.081,264.284,142.383,264.284z M142.386,260c-0.632,0-1.217,0.285-1.604,0.78
					c-0.69,0.885-0.533,2.165,0.35,2.855c0.361,0.283,0.794,0.432,1.251,0.432c0.631,0,1.216-0.284,1.604-0.781
					c0.69-0.884,0.532-2.166-0.35-2.855C143.275,260.149,142.842,260,142.386,260z"/>
			</g>
		</g>
		<g>
			<g>
				<path fill="#B49C6E" d="M137.513,288.547c-0.467-0.183-0.579-0.703-0.456-1.2l0,0c0.167-0.46,0.615-0.794,1.103-0.675
					c0.214,0.055,8.896,2.161,8.896,2.161c0.828,0.264,1.278,1.17,1.006,2.026l0,0c-0.274,0.855-1.168,1.335-1.997,1.069
					C146.065,291.929,137.717,288.626,137.513,288.547z"/>
				<path fill="#E3D8B5" d="M146.532,292.109c-0.169,0-0.337-0.025-0.5-0.078c-0.09-0.035-8.356-3.306-8.559-3.384
					c-0.471-0.184-0.675-0.705-0.521-1.326c0.201-0.554,0.731-0.882,1.233-0.754c0.212,0.054,8.808,2.139,8.896,2.16
					c0.89,0.283,1.372,1.254,1.084,2.165C147.932,291.621,147.275,292.109,146.532,292.109z M137.962,286.755
					c-0.343,0-0.666,0.254-0.803,0.629c-0.093,0.377-0.048,0.891,0.393,1.062c0.203,0.078,8.469,3.349,8.553,3.382
					c0.134,0.043,0.281,0.065,0.427,0.065c0.649,0,1.223-0.429,1.427-1.066c0.252-0.797-0.167-1.646-0.936-1.892
					c-0.347-0.085-8.679-2.104-8.89-2.159C138.078,286.763,138.02,286.755,137.962,286.755z"/>
			</g>
			<g>
				<circle fill="#B49C6E" cx="152.056" cy="292.134" r="2.143"/>
				<path fill="#E3D8B5" d="M152.054,294.384c-0.231,0-0.461-0.035-0.683-0.105c-0.573-0.183-1.04-0.577-1.316-1.111
					c-0.275-0.534-0.326-1.143-0.143-1.715c0.299-0.938,1.161-1.569,2.143-1.569c0.232,0,0.463,0.036,0.686,0.107
					c1.18,0.378,1.834,1.647,1.459,2.829C153.898,293.755,153.037,294.384,152.054,294.384z M152.055,290.099
					c-0.889,0-1.667,0.57-1.938,1.419c-0.166,0.517-0.12,1.068,0.129,1.551c0.25,0.482,0.672,0.839,1.191,1.005
					c0.2,0.063,0.407,0.096,0.616,0.096c0.89,0,1.669-0.569,1.94-1.416c0.338-1.067-0.254-2.215-1.32-2.557
					C152.473,290.132,152.264,290.099,152.055,290.099z"/>
			</g>
		</g>
		<g>
			<path fill="#B49C6E" d="M127.258,270.648c-0.044,0.688-0.656,1.052-1.334,1.096l0,0c-0.655-0.028-1.257-0.472-1.301-1.157
				c-0.019-0.302-0.86-12.517-0.86-12.517c0-1.193,0.967-2.16,2.161-2.16l0,0c1.193,0,2.161,0.967,2.161,2.16
				C128.085,258.07,127.277,270.349,127.258,270.648z"/>
			<path fill="#E3D8B5" d="M125.928,272.069h-0.019c-0.88-0.039-1.557-0.653-1.609-1.462c-0.019-0.301-0.859-12.515-0.859-12.515
				c-0.001-1.393,1.114-2.507,2.484-2.507s2.485,1.114,2.485,2.484c0,0.021-0.809,12.3-0.828,12.6
				c-0.05,0.786-0.692,1.335-1.636,1.398L125.928,272.069z M124.087,258.07c0-0.001,0.841,12.195,0.859,12.497
				c0.034,0.526,0.513,0.826,0.975,0.853c0.472-0.036,0.98-0.262,1.014-0.792c0.019-0.299,0.827-12.579,0.827-12.579
				c0-0.99-0.825-1.814-1.838-1.814S124.087,257.059,124.087,258.07L124.087,258.07z"/>
		</g>
		<g>
			<path fill="#B49C6E" d="M138.87,281.644c-0.668,0.16-1.197-0.313-1.441-0.948l0,0c-0.166-0.635,0.079-1.342,0.719-1.585
				c0.283-0.109,11.698-4.533,11.698-4.533c1.142-0.354,2.351,0.283,2.705,1.423l0,0c0.353,1.14-0.282,2.351-1.423,2.705
				C151.129,278.705,139.163,281.572,138.87,281.644z"/>
			<path fill="#E3D8B5" d="M138.611,281.999c-0.633,0-1.203-0.455-1.484-1.188c-0.234-0.888,0.151-1.717,0.906-2.004
				c0.283-0.108,11.697-4.533,11.697-4.533c1.408-0.438,2.732,0.346,3.132,1.63c0.195,0.634,0.135,1.307-0.174,1.894
				c-0.31,0.587-0.829,1.02-1.463,1.216c-0.02,0.006-11.985,2.873-12.278,2.945C138.834,281.985,138.722,281.999,138.611,281.999z
				 M149.942,274.887c0.002,0-11.396,4.417-11.678,4.524c-0.5,0.191-0.641,0.749-0.522,1.201c0.151,0.387,0.539,0.841,1.052,0.717
				c0.292-0.071,12.259-2.94,12.259-2.94c0.448-0.14,0.832-0.458,1.06-0.893c0.229-0.434,0.273-0.931,0.129-1.4
				C151.947,275.147,150.904,274.586,149.942,274.887z"/>
		</g>
		<g>
			<path fill="#B49C6E" d="M132.335,295.709c-0.377-0.575-0.108-1.232,0.407-1.678l0,0c0.539-0.372,1.287-0.38,1.734,0.142
				c0.198,0.229,8.22,9.478,8.22,9.478c0.718,0.953,0.527,2.309-0.425,3.026l0,0c-0.954,0.72-2.309,0.529-3.027-0.424
				C139.244,306.253,132.5,295.96,132.335,295.709z"/>
			<path fill="#E3D8B5" d="M140.97,307.437c-0.788,0-1.512-0.36-1.984-0.988c-0.013-0.017-6.756-10.311-6.921-10.562
				c-0.432-0.657-0.25-1.48,0.465-2.1c0.756-0.527,1.68-0.421,2.192,0.176c0.197,0.229,8.219,9.478,8.219,9.478
				c0.837,1.11,0.619,2.671-0.476,3.496C142.03,307.264,141.514,307.437,140.97,307.437z M133.573,294.089
				c-0.223,0-0.453,0.074-0.648,0.209c-0.333,0.291-0.614,0.784-0.319,1.232c0.166,0.251,6.91,10.545,6.91,10.545
				c0.569,0.756,1.769,0.938,2.561,0.343c0.809-0.609,0.97-1.764,0.361-2.571l0,0c-0.001,0-8.01-9.233-8.207-9.463
				C134.022,294.141,133.758,294.089,133.573,294.089z"/>
		</g>
		<g>
			<path fill="#B49C6E" d="M116.064,293.554c0.454-0.514,1.162-0.424,1.724-0.041l0,0c0.499,0.425,0.699,1.146,0.312,1.711
				c-0.171,0.252-7.028,10.395-7.028,10.395c-0.735,0.939-2.093,1.106-3.032,0.371l0,0c-0.943-0.734-1.109-2.093-0.375-3.032
				C107.667,302.957,115.864,293.779,116.064,293.554z"/>
			<path fill="#E3D8B5" d="M109.37,306.771c-0.559,0-1.087-0.182-1.528-0.527c-0.523-0.407-0.856-0.995-0.938-1.653
				c-0.081-0.659,0.1-1.311,0.508-1.834c0.014-0.016,8.21-9.192,8.41-9.417c0.508-0.575,1.398-0.606,2.149-0.095
				c0.699,0.593,0.855,1.493,0.398,2.162c-0.17,0.25-7.027,10.394-7.027,10.394C110.854,306.425,110.14,306.771,109.37,306.771z
				 M116.861,293.521c-0.222,0-0.41,0.083-0.555,0.248c-0.2,0.225-8.398,9.404-8.398,9.404c-0.289,0.37-0.422,0.851-0.362,1.338
				s0.306,0.922,0.694,1.224c0.776,0.607,1.972,0.457,2.578-0.315c-0.001,0.001,6.844-10.126,7.015-10.376
				c0.303-0.444,0.101-0.981-0.254-1.284C117.36,293.613,117.095,293.521,116.861,293.521z"/>
		</g>
		<g>
			<path fill="#B49C6E" d="M113.36,278.388c0.64,0.249,0.799,0.944,0.637,1.601l0,0c-0.226,0.617-0.832,1.056-1.497,0.891
				c-0.294-0.075-12.186-2.986-12.186-2.986c-1.137-0.362-1.765-1.577-1.401-2.715l0,0c0.362-1.139,1.579-1.766,2.714-1.403
				C101.627,273.774,113.079,278.278,113.36,278.388z"/>
			<path fill="#E3D8B5" d="M112.782,281.237c-0.12,0-0.241-0.015-0.36-0.043c-0.291-0.075-12.066-2.958-12.186-2.986
				c-0.654-0.208-1.169-0.644-1.474-1.234c-0.304-0.589-0.36-1.262-0.158-1.895c0.33-1.035,1.281-1.731,2.366-1.731
				c0.255,0,0.51,0.04,0.755,0.118l11.753,4.621c0.722,0.28,1.057,1.076,0.833,1.98C114.052,280.78,113.442,281.237,112.782,281.237
				z M100.97,273.995c-0.803,0-1.505,0.515-1.749,1.28c-0.149,0.468-0.108,0.966,0.117,1.402c0.226,0.436,0.607,0.758,1.074,0.906
				c0.465,0.113,11.876,2.906,12.168,2.982c0.44,0.108,0.93-0.188,1.112-0.689c0.104-0.429,0.05-0.993-0.449-1.187l-11.735-4.614
				C101.347,274.025,101.159,273.995,100.97,273.995z"/>
		</g>
	</g>
</g>
</svg>
