<?xml version="1.0" encoding="utf-8"?>
<!-- Generator: Adobe Illustrator 15.1.0, SVG Export Plug-In . SVG Version: 6.00 Build 0)  -->
<!DOCTYPE svg PUBLIC "-//W3C//DTD SVG 1.1//EN" "http://www.w3.org/Graphics/SVG/1.1/DTD/svg11.dtd">
<svg version="1.1" xmlns="http://www.w3.org/2000/svg" xmlns:xlink="http://www.w3.org/1999/xlink" x="0px" y="0px"
	 width="136.02px" height="115.775px" viewBox="0 0 136.02 115.775" enable-background="new 0 0 136.02 115.775"
	 xml:space="preserve">
<g id="Layer_5" display="none">
	<circle display="inline" fill="#E3D8B5" cx="553.013" cy="262.215" r="77.4"/>
	<g display="inline">
		<g>
			<g>
				<path d="M566.48,302.343 M566.48,302.343c-0.776,3.971-1.309,8.293-1.196,12.597"/>
			</g>
		</g>
		<g>
			<g>
				<path fill="#E3D8B5" d="M525.522,253.026c9.335-2.337,16.805-10.699,16.699-18.669c-0.102-7.965-7.757-12.528-17.096-10.196
					c-9.326,2.354-16.795,10.71-16.693,18.669C508.525,250.806,516.183,255.368,525.522,253.026 M519.03,232.474
					c4.599-2.587,6.616,0.58,6.616,0.58c-2.313,1.146-4.32,3.167-4.32,3.167h7.486c-0.871,3.738-8.27,9.916-12.96,4.899
					C511.823,236.796,519.03,232.474,519.03,232.474"/>
				<path fill="#E3D8B5" d="M587.595,219.874c-0.096,0.112-3.091,2.648-4.69,3.203c-1.609,0.556,0.683-5.464,0-5.53
					c-0.3-0.04-2.194,4.66-3.233,4.293c-2.627-0.877-0.402-5.062-0.952-5.561c-0.163-0.164-2.331,3.769-3.605,3.635
					c-2.123-0.224-1.039-5.57-1.36-4.669c-0.32,0.892-2.617,4.472-2.617,4.472c4.966,0.493,14.265,5.188,14.265,5.188
					C585.187,223.871,587.981,219.487,587.595,219.874"/>
				<path fill="#E3D8B5" d="M553.328,230.527c-0.021,0.938,1.162,1.712,2.633,1.732c1.481,0.021,2.698-0.718,2.724-1.661
					c0.036-0.936-1.15-1.711-2.622-1.732C554.57,228.847,553.353,229.601,553.328,230.527"/>
				<path fill="#E3D8B5" d="M557.092,276.166c-0.215,1.101-0.362,2.297-0.331,3.489c5.769-0.342,10.581,0.015,14.05,0.479
					c0.605-1.004,1.136-2.002,1.619-2.955C567.373,276.055,562.052,275.876,557.092,276.166"/>
				<path fill="#E3D8B5" d="M551.78,226.938c1.471,0.015,2.709-0.738,2.729-1.665c0.021-0.938-1.146-1.711-2.639-1.731
					c-1.477-0.011-2.694,0.738-2.725,1.666C549.115,226.148,550.304,226.928,551.78,226.938"/>
				<path fill="#E3D8B5" d="M577.436,235.819c-4.553-0.394-22.116,2.693-21.348,3.865c0.534,0.794,0.936,1.589,1.223,2.361
					c3.1-0.545,9.971-1.414,13.877-1.363c0,0-13.231,3.259-12.243,4.634c0.983,1.374,7.572,0.651,9.239,1.654
					c1.516,0.917-5.943,0.107-10.375,1.66c-0.381,1.94-1.182,2.959-1.182,2.959c8.138-0.488,12.355,1.182,12.355,1.182
					c-1.265-2.425,2.897-1.747,1.797-3.708c-1.08-1.966,4.313-3.162,2.282-6.202C571.04,239.806,581.973,236.211,577.436,235.819"/>
				<path fill="#E3D8B5" d="M571.707,229.688c1.465,0.004,2.693-0.739,2.724-1.67c0.025-0.943-1.156-1.706-2.634-1.732
					c-1.485-0.026-2.703,0.733-2.728,1.666C569.038,228.888,570.22,229.663,571.707,229.688"/>
				<path fill="#E3D8B5" d="M561.866,227.803c1.489,0.03,2.701-0.729,2.735-1.654c0.022-0.942-1.154-1.716-2.638-1.731
					c-1.486-0.021-2.703,0.732-2.729,1.659C559.21,227.018,560.38,227.788,561.866,227.803"/>
				<path fill="#E3D8B5" d="M563.188,232.152c-0.031,0.941,1.156,1.717,2.632,1.735c1.481,0.012,2.699-0.732,2.74-1.664
					c0.021-0.933-1.16-1.706-2.639-1.727C564.439,230.481,563.217,231.22,563.188,232.152"/>
				<path fill="#E3D8B5" d="M576.794,312.658c0,0,3.137,3.052,3.683,3.882c0.538,0.84-1.88-4.318,0.126-5.072
					c1.192-0.449,4.319,3.014,4.451,2.806c0.388-0.637-2.846-4.344-0.523-5.892c0.911-0.603,5.361,3.249,5.641,3.142
					c0.659-0.239-4.521-5.342-2.819-5.185c1.716,0.174,5.26,2.022,5.392,2.094c0.479,0.301-3.371-3.468-3.432-4.553
					C589.312,303.88,581.483,310.923,576.794,312.658"/>
				<path fill="#E3D8B5" d="M607.09,259.789l6.544-0.967c0.295-0.571,0.295-1.213,0.295-1.213l-7.125,0.143
					C606.91,258.47,607.003,259.146,607.09,259.789"/>
				<path fill="#E3D8B5" d="M534.644,283.988c5.185-1.757,10.094-2.876,14.62-3.564c-0.382-1.253-0.622-2.353-0.784-3.3
					c-6.829,1.084-11.743,2.617-12.171,2.607c-0.9-0.011-2.349-1.447-2.349-1.447s5.821-2.148,14.295-3.534
					c-0.05-1.578,0.205-2.338,0.205-2.338s9.349-0.997,9.909-1.165c0.229-0.062-0.188,0.942-0.651,2.465
					c5.052-0.274,10.494-0.102,15.938,0.906c1.089-2.506,1.641-4.278,1.641-4.278c-18.711-1.97-35.928,2.095-45.649,5.164
					C530.753,278.381,532.336,281.488,534.644,283.988"/>
				<path fill="#E3D8B5" d="M605.852,252.354c0.112,0.519,0.208,1.028,0.301,1.521l7.41-1.237c0-0.651-0.147-1.08-0.147-1.08
					l-7.681,0.163C605.776,251.94,605.822,252.145,605.852,252.354"/>
				<path fill="#E3D8B5" d="M548.373,255.675c1.022-1.814,2.287-4.687,3.183-8.908c1.716-8.07-3.473-16.615-3.473-16.615
					c1.986,8.168,0.092,19.993-7.837,25.951c-11.159,9.146-36.773,7.588-36.773,7.588c0,25.64,21.22,46.433,47.404,46.433
					c26.167,0,47.387-20.793,47.387-46.433C580.635,257.1,563.299,255.308,548.373,255.675 M537.709,298.604
					c-0.55,1.839-3.27,2.689-6.07,1.895c-2.802-0.81-4.624-2.949-4.085-4.781c0.154-0.514,0.495-0.942,0.947-1.288
					c1.508-1.683,5.51-3.765,5.51-3.765c2.048-0.443,3.719,0.286,4.187,1.437C538.667,293.257,537.709,298.604,537.709,298.604
					 M551.867,301.135c-0.361,1.935-2.711,3.413-5.551,3.365c-3.087-0.04-5.557-1.832-5.521-4.002
					c-0.974-1.258,1.722-10.948,1.722-10.948c0.876-1.926,3.763-2.17,5.193-1.039c1.213,0.968,2.965,7.322,3.846,10.684
					c0.26,0.438,0.402,0.938,0.397,1.457C552.004,300.829,551.953,300.997,551.867,301.135 M561.704,303.289
					c-2.938,0.916-5.574-0.346-6.451-2.186c-1.008-2.244-1.05-10.954-1.05-10.954c0.347-2.118,3.016-3.259,4.665-2.611
					c1.391,0.545,4.711,6.096,6.438,9.03c0.351,0.599,0.829,1.598,0.789,1.76C566.243,300.299,564.408,302.444,561.704,303.289
					 M576.254,297.961c-2.291,1.691-5.164,1.799-6.386,0.246c0,0-2.995-4.711-3.014-5.954c-0.011-1.242,1.247-2.484,3.324-2.745
					c0,0,4.547,0.622,6.599,1.712c0.562,0.173,1.024,0.458,1.387,0.896C579.401,293.665,578.539,296.276,576.254,297.961
					 M568.33,261.775c0,0-2.099,1.599-5.089,3.626c5.409-0.429,11.093-0.556,16.903-0.235c2.18,0.133,12.09,6.244,12.09,6.244
					s-0.281,10.058-9.839,19.127c0,0-6.32-4.527-16.84-3.637c0.692-0.672,1.338-1.39,1.96-2.118
					c-15.466-2.179-29.486,1.763-33.683,3.127c-3.851,1.925-8.707,4.823-8.707,4.823c-13.297-5.505-15.98-22.738-15.98-22.738
					s9.768,0.877,18.257-3.106c0,0,0.28,2.303,1.177,5.413c5.321-1.7,12.501-3.672,20.837-5.132l7.823-4.305
					c-2.582-0.335-5.726,0.012-7.929,0.372c-3.479,3.255-7.395,4.721-7.395,4.721l-10.578-2.862
					c10.282-1.741,15.604-6.437,15.604-6.437l5.189,1.294c-0.291,0.447-0.61,0.855-0.926,1.242
					C554.993,260.619,563.406,259.702,568.33,261.775"/>
				<path fill="#E3D8B5" d="M604.919,248.306l7.704-2.073c0.078-0.509-0.355-1.294-0.355-1.294l-8.061,1.151
					C604.41,246.751,604.792,247.897,604.919,248.306"/>
				<path fill="#E3D8B5" d="M610.038,238.172l-8.464,1.206c0.341,0.724,0.702,1.508,1.054,2.363l7.979-2.124
					C610.537,238.899,610.038,238.172,610.038,238.172"/>
			</g>
		</g>
		<g>
			<g>
				<path fill="#B39B6E" d="M563.187,232.152c-0.03,0.941,1.157,1.716,2.633,1.736c1.481,0.01,2.699-0.733,2.74-1.665
					c0.021-0.932-1.16-1.706-2.639-1.727C564.439,230.481,563.216,231.22,563.187,232.152 M561.866,227.803
					c1.489,0.03,2.701-0.729,2.736-1.654c0.021-0.942-1.155-1.717-2.639-1.731c-1.486-0.021-2.703,0.732-2.729,1.659
					C559.21,227.018,560.379,227.788,561.866,227.803 M553.328,230.528c-0.021,0.937,1.162,1.711,2.632,1.731
					c1.481,0.02,2.698-0.718,2.724-1.662c0.037-0.935-1.15-1.71-2.621-1.731C554.57,228.847,553.354,229.601,553.328,230.528
					 M551.78,226.938c1.472,0.015,2.71-0.738,2.729-1.665c0.021-0.938-1.146-1.711-2.638-1.732c-1.477-0.01-2.694,0.739-2.725,1.666
					C549.116,226.148,550.304,226.928,551.78,226.938 M525.522,253.026c9.335-2.338,16.805-10.699,16.699-18.67
					c-0.102-7.963-7.757-12.526-17.096-10.194c-9.326,2.354-16.795,10.709-16.693,18.668
					C508.525,250.805,516.183,255.368,525.522,253.026 M519.03,232.473c4.599-2.587,6.616,0.581,6.616,0.581
					c-2.313,1.146-4.32,3.167-4.32,3.167h7.486c-0.871,3.738-8.27,9.916-12.96,4.898C511.823,236.797,519.03,232.473,519.03,232.473
					 M577.436,235.819c-4.553-0.394-22.116,2.693-21.348,3.865c0.534,0.794,0.936,1.588,1.223,2.361
					c3.1-0.545,9.971-1.414,13.877-1.363c0,0-13.231,3.259-12.243,4.634c0.983,1.374,7.572,0.651,9.239,1.653
					c1.516,0.918-5.943,0.108-10.375,1.661c-0.381,1.941-1.182,2.959-1.182,2.959c8.138-0.488,12.355,1.182,12.355,1.182
					c-1.265-2.425,2.897-1.747,1.797-3.707c-1.08-1.966,4.312-3.163,2.282-6.203C571.04,239.806,581.973,236.211,577.436,235.819
					 M571.707,229.688c1.465,0.004,2.693-0.738,2.723-1.671c0.026-0.942-1.154-1.705-2.633-1.731
					c-1.485-0.026-2.702,0.732-2.728,1.666C569.038,228.888,570.22,229.663,571.707,229.688 M587.595,219.874
					c-0.096,0.112-3.091,2.648-4.69,3.203c-1.608,0.555,0.682-5.464,0-5.53c-0.3-0.04-2.194,4.66-3.233,4.293
					c-2.627-0.877-0.402-5.062-0.952-5.561c-0.163-0.163-2.331,3.769-3.605,3.635c-2.123-0.224-1.039-5.571-1.36-4.669
					c-0.32,0.891-2.618,4.472-2.618,4.472c4.967,0.493,14.266,5.188,14.266,5.188C585.187,223.871,587.982,219.487,587.595,219.874
					 M607.09,259.789l6.544-0.967c0.295-0.571,0.295-1.213,0.295-1.213l-7.125,0.143C606.91,258.47,607.003,259.147,607.09,259.789
					 M612.268,244.938l-8.062,1.151c0.204,0.662,0.586,1.809,0.713,2.216l7.705-2.073
					C612.7,245.725,612.268,244.938,612.268,244.938 M576.793,312.658c0,0,3.138,3.051,3.683,3.882
					c0.54,0.84-1.878-4.318,0.127-5.072c1.192-0.449,4.318,3.014,4.451,2.805c0.388-0.636-2.846-4.343-0.524-5.891
					c0.912-0.603,5.362,3.248,5.643,3.142c0.658-0.239-4.522-5.341-2.82-5.185c1.715,0.174,5.26,2.022,5.393,2.094
					c0.479,0.301-3.372-3.468-3.433-4.553C589.312,303.88,581.483,310.923,576.793,312.658 M548.373,255.674
					c1.023-1.813,2.287-4.686,3.183-8.906c1.716-8.071-3.473-16.617-3.473-16.617c1.985,8.169,0.092,19.994-7.838,25.951
					c-11.158,9.146-36.772,7.588-36.772,7.588c0,25.642,21.22,46.435,47.405,46.435c26.166,0,47.386-20.793,47.386-46.435
					C580.635,257.1,563.299,255.308,548.373,255.674 M537.709,298.604c-0.55,1.838-3.27,2.688-6.071,1.894
					c-2.8-0.81-4.623-2.949-4.084-4.781c0.154-0.515,0.495-0.942,0.947-1.288c1.507-1.683,5.511-3.764,5.511-3.764
					c2.047-0.444,3.719,0.285,4.186,1.436C538.667,293.257,537.709,298.604,537.709,298.604 M551.867,301.135
					c-0.361,1.936-2.711,3.412-5.552,3.365c-3.086-0.04-5.556-1.832-5.521-4.002c-0.974-1.257,1.721-10.948,1.721-10.948
					c0.877-1.925,3.764-2.17,5.194-1.039c1.212,0.968,2.964,7.322,3.846,10.684c0.261,0.438,0.402,0.938,0.396,1.457
					C552.003,300.829,551.952,300.997,551.867,301.135 M566.094,298.328c0.148,1.971-1.686,4.116-4.39,4.962
					c-2.938,0.915-5.574-0.347-6.451-2.187c-1.009-2.245-1.05-10.954-1.05-10.954c0.347-2.118,3.016-3.259,4.664-2.611
					c1.392,0.545,4.712,6.095,6.438,9.029C565.657,297.167,566.135,298.166,566.094,298.328 M576.254,297.962
					c-2.291,1.69-5.164,1.798-6.387,0.245c0,0-2.995-4.71-3.013-5.954c-0.011-1.241,1.247-2.484,3.324-2.744
					c0,0,4.548,0.621,6.599,1.711c0.562,0.173,1.024,0.458,1.387,0.896C579.401,293.665,578.539,296.276,576.254,297.962
					 M568.329,261.775c0,0-2.097,1.599-5.087,3.625c5.409-0.428,11.092-0.555,16.902-0.233c2.18,0.132,12.09,6.243,12.09,6.243
					s-0.28,10.058-9.839,19.127c0,0-6.32-4.527-16.84-3.636c0.692-0.673,1.338-1.39,1.959-2.118
					c-15.465-2.18-29.485,1.762-33.682,3.126c-3.851,1.926-8.707,4.824-8.707,4.824c-13.297-5.506-15.98-22.739-15.98-22.739
					s9.768,0.876,18.256-3.107c0,0,0.281,2.303,1.178,5.414c5.321-1.7,12.501-3.672,20.837-5.133l7.823-4.304
					c-2.582-0.335-5.726,0.012-7.929,0.372c-3.479,3.255-7.395,4.721-7.395,4.721l-10.578-2.862
					c10.282-1.741,15.604-6.437,15.604-6.437l5.189,1.294c-0.29,0.448-0.611,0.855-0.926,1.241
					C554.993,260.618,563.406,259.702,568.329,261.775 M613.415,251.559l-7.681,0.164c0.041,0.218,0.088,0.423,0.117,0.632
					c0.112,0.52,0.208,1.028,0.301,1.521l7.41-1.237C613.562,251.987,613.415,251.559,613.415,251.559 M616.779,265.6
					c0,0-4.316,0.046-9.222,0.361c-0.561,13.485-6.009,25.737-14.665,35.067l3.538,5.103c-5.19,12.903-20.269,13.581-20.269,13.581
					l-3.834-4.568c-6.616,2.658-13.856,4.126-21.45,4.126c-31.345,0-56.735-24.877-56.735-55.58c0-0.917,0.016-1.823,0.062-2.729
					c-1.608-0.826-2.943-1.472-2.943-1.472l-3.061-2.526c7.965-12.701,6.411-24.231,6.411-24.231s4.767-0.259,9.717-0.799
					c0.504-0.713,1.033-1.425,1.584-2.118h0.015c0,0,13.683-18.263,34.542-9.783c0,0,11.998-2.79,26.079-1.181l2.993-5.933
					c0,0,14.739-2.892,22.933,7.812l-2.353,5.999c3.03,1.966,5.892,4.359,8.469,7.262c3.631-0.621,8.118-1.478,13.234-2.668
					C611.824,231.322,623.309,246.09,616.779,265.6 M534.644,283.988c5.185-1.757,10.093-2.877,14.62-3.564
					c-0.382-1.253-0.622-2.353-0.784-3.3c-6.829,1.084-11.743,2.617-12.171,2.607c-0.901-0.011-2.349-1.447-2.349-1.447
					s5.821-2.148,14.296-3.534c-0.051-1.578,0.204-2.338,0.204-2.338s9.349-0.997,9.909-1.165c0.229-0.061-0.188,0.942-0.651,2.465
					c5.052-0.275,10.495-0.102,15.939,0.906c1.089-2.506,1.64-4.277,1.64-4.277c-18.711-1.971-35.928,2.094-45.649,5.163
					C530.752,278.381,532.337,281.487,534.644,283.988 M610.037,238.172l-8.464,1.206c0.342,0.724,0.703,1.508,1.055,2.363
					l7.979-2.124C610.537,238.899,610.037,238.172,610.037,238.172 M557.092,276.166c-0.215,1.101-0.362,2.297-0.331,3.489
					c5.769-0.342,10.581,0.015,14.05,0.479c0.605-1.004,1.136-2.002,1.619-2.955C567.373,276.055,562.052,275.876,557.092,276.166"
					/>
			</g>
		</g>
	</g>
</g>
<g id="Layer_6" display="none">
	<g display="inline">
		<path d="M-109.604,228.055c-3.483-12.847-15.202-21.817-28.5-21.817c-0.88,0-1.76,0.04-2.636,0.119
			c-2.262-14.057-14.479-24.827-29.163-24.827c-13.784,0-25.394,9.49-28.637,22.279c-0.956-0.094-1.917-0.14-2.88-0.14
			c-12.619-0.001-23.848,8.021-27.941,19.965c-2.559,7.463-2.059,15.476,1.411,22.562c2.44,4.989,6.146,9.098,10.73,11.986
			c-5.632,12.31-2.188,27.344,9.045,35.843c5.174,3.914,11.331,5.981,17.805,5.981c7.521,0,14.552-2.765,19.948-7.725
			c5.428,5.096,12.559,7.942,20.18,7.942c6.525,0,12.72-2.096,17.913-6.063c6.271-4.788,10.302-11.732,11.35-19.553
			c0.634-4.73,0.132-9.439-1.427-13.809C-111.695,254.067-106.128,240.883-109.604,228.055z M-127.968,258.871
			c2.461,4.618,3.418,9.875,2.709,15.164c-0.895,6.676-4.336,12.605-9.69,16.693c-4.435,3.388-9.722,5.179-15.292,5.179
			c-7.934,0-15.244-3.612-20.057-9.912l-0.09-0.118c-4.812,6.239-12.082,9.812-19.981,9.812c-5.526,0-10.782-1.767-15.199-5.108
			c-10.707-8.101-13.126-23.153-5.729-34.163c-5.584-2.367-10.08-6.617-12.773-12.119c-2.961-6.052-3.389-12.894-1.203-19.265
			c3.494-10.198,13.081-17.048,23.854-17.048c2.161,0.002,4.306,0.278,6.397,0.829c1.143-12.855,11.973-22.969,25.12-22.969
			c13.906,0,25.22,11.314,25.22,25.22v0.364c2.152-0.581,4.366-0.875,6.579-0.875c11.353,0,21.357,7.659,24.332,18.628
			C-110.468,241.375-116.732,253.943-127.968,258.871z"/>
		<path d="M-139.25,215.993c0.524-0.031,1.045-0.031,1.564-0.021c-0.14-0.003-0.277-0.017-0.417-0.017
			C-138.484,215.955-138.867,215.97-139.25,215.993z"/>
		<path d="M-194.991,214.462c-0.598-0.205-1.198-0.372-1.8-0.518C-196.19,214.09-195.589,214.257-194.991,214.462z"/>
		<path d="M-202.858,213.441c-0.44,0.032-0.877,0.085-1.312,0.146c-0.102,0.014-0.204,0.02-0.305,0.036
			c-0.046,0.007-0.091,0.02-0.137,0.027C-204.033,213.555-203.448,213.484-202.858,213.441z"/>
		<path d="M-143.3,216.65c0.588-0.16,1.178-0.281,1.767-0.385C-142.122,216.37-142.711,216.491-143.3,216.65z"/>
		<path d="M-197.363,213.825c-0.418-0.088-0.835-0.166-1.253-0.227C-198.199,213.659-197.781,213.737-197.363,213.825z"/>
		<path d="M-201.09,213.398c-0.11-0.002-0.221-0.014-0.331-0.014c-0.369,0-0.734,0.022-1.1,0.043
			C-202.046,213.401-201.569,213.39-201.09,213.398z"/>
		<path d="M-199.261,213.519c-0.405-0.045-0.81-0.076-1.213-0.096C-200.071,213.443-199.667,213.474-199.261,213.519z"/>
		<path d="M-125.049,220.88c0.439,0.385,0.866,0.785,1.272,1.209C-124.183,221.665-124.61,221.265-125.049,220.88z"/>
		<path d="M-126.998,219.388c-0.304-0.206-0.613-0.404-0.928-0.592C-127.611,218.984-127.302,219.182-126.998,219.388z"/>
		<path d="M-135.856,216.1c-0.38-0.044-0.762-0.077-1.146-0.099C-136.618,216.022-136.236,216.056-135.856,216.1z"/>
		<path d="M-128.522,218.449c-0.333-0.185-0.674-0.355-1.018-0.521C-129.196,218.093-128.856,218.264-128.522,218.449z"/>
		<path d="M-125.508,220.504c-0.303-0.25-0.61-0.495-0.928-0.726C-126.119,220.009-125.812,220.254-125.508,220.504z"/>
		<path d="M-133.983,216.408c-0.4-0.086-0.802-0.165-1.208-0.225C-134.786,216.243-134.384,216.322-133.983,216.408z"/>
		<path d="M-130.106,217.657c-0.45-0.199-0.908-0.378-1.372-0.543C-131.014,217.278-130.556,217.458-130.106,217.657z"/>
		<path d="M-131.748,217.009c-0.554-0.188-1.118-0.348-1.688-0.488C-132.866,216.661-132.302,216.821-131.748,217.009z"/>
		<path d="M-139.36,215.996c-0.581,0.037-1.164,0.109-1.748,0.199C-140.524,216.105-139.941,216.034-139.36,215.996z"/>
		<path d="M-144.902,289.761c0.299-0.084,0.6-0.159,0.896-0.258c0.104-0.034,0.205-0.08,0.309-0.116
			C-144.096,289.525-144.498,289.647-144.902,289.761z"/>
		<path d="M-205.021,213.73c-0.441,0.082-0.878,0.176-1.311,0.287C-205.899,213.906-205.462,213.812-205.021,213.73z"/>
		<path d="M-217.633,221.828c-0.239,0.341-0.47,0.689-0.688,1.047C-218.103,222.517-217.872,222.169-217.633,221.828z"/>
		<path d="M-150.799,290.493c0.186,0.005,0.372,0.016,0.558,0.016c0.242,0,0.483-0.02,0.725-0.028
			C-149.944,290.496-150.372,290.505-150.799,290.493z"/>
		<path d="M-216.212,220.013c-0.388,0.435-0.754,0.892-1.105,1.363C-216.966,220.905-216.6,220.448-216.212,220.013z"/>
		<path d="M-147.141,290.264c0.579-0.092,1.154-0.212,1.726-0.355C-145.987,290.052-146.562,290.172-147.141,290.264z"/>
		<path d="M-148.897,290.455c0.474-0.031,0.948-0.085,1.42-0.151C-147.949,290.37-148.423,290.424-148.897,290.455z"/>
		<path d="M-220.169,226.784c0.202-0.591,0.437-1.16,0.688-1.719C-219.732,225.624-219.966,226.193-220.169,226.784z"/>
		<path d="M-208.573,214.735c-0.456,0.177-0.904,0.371-1.345,0.581C-209.477,215.106-209.028,214.912-208.573,214.735z"/>
		<path d="M-216.06,219.855c0.347-0.38,0.708-0.745,1.081-1.095C-215.353,219.11-215.713,219.476-216.06,219.855z"/>
		<path d="M-206.886,214.171c-0.393,0.113-0.781,0.239-1.165,0.375C-207.667,214.41-207.278,214.284-206.886,214.171z"/>
		<path d="M-210.172,215.43c-0.519,0.255-1.024,0.536-1.52,0.835C-211.196,215.966-210.69,215.686-210.172,215.43z"/>
		<path d="M-212.102,216.531c-0.354,0.227-0.702,0.461-1.042,0.71C-212.804,216.993-212.456,216.758-212.102,216.531z"/>
		<path d="M-213.626,217.609c-0.315,0.246-0.621,0.502-0.921,0.768C-214.248,218.112-213.941,217.855-213.626,217.609z"/>
		<path d="M-184.09,289.269c-0.503,0.168-1.013,0.315-1.527,0.441C-185.103,289.583-184.594,289.437-184.09,289.269z"/>
		<path d="M-163.369,285.547c-0.428-0.379-0.843-0.778-1.243-1.198C-164.212,284.77-163.797,285.168-163.369,285.547z"/>
		<path d="M-164.818,284.123c-0.412-0.447-0.812-0.911-1.189-1.404C-165.631,283.212-165.23,283.676-164.818,284.123z"/>
		<path d="M-175.939,284.068c-0.396,0.42-0.806,0.818-1.23,1.197C-176.745,284.887-176.334,284.488-175.939,284.068z"/>
		<path d="M-174.545,282.427c-0.373,0.493-0.77,0.956-1.178,1.403C-175.314,283.383-174.918,282.92-174.545,282.427z"/>
		<path d="M-180.527,287.684c-0.482,0.275-0.975,0.525-1.476,0.758C-181.502,288.209-181.009,287.959-180.527,287.684z"/>
		<path d="M-178.914,286.655c-0.446,0.315-0.905,0.608-1.372,0.884C-179.818,287.264-179.36,286.971-178.914,286.655z"/>
		<path d="M-177.43,285.492c-0.438,0.377-0.886,0.738-1.35,1.072C-178.316,286.23-177.868,285.869-177.43,285.492z"/>
		<path d="M-154.859,289.962c-0.526-0.125-1.045-0.274-1.56-0.442C-155.904,289.688-155.385,289.837-154.859,289.962z"/>
		<path d="M-182.322,288.585c-0.507,0.225-1.021,0.432-1.542,0.611C-183.343,289.017-182.829,288.81-182.322,288.585z"/>
		<path d="M-153.072,290.299c-0.554-0.079-1.105-0.176-1.65-0.302C-154.176,290.123-153.625,290.22-153.072,290.299z"/>
		<path d="M-156.673,289.438c-0.521-0.178-1.035-0.381-1.542-0.603C-157.708,289.058-157.195,289.26-156.673,289.438z"/>
		<path d="M-158.525,288.696c-0.506-0.231-1.004-0.481-1.492-0.757C-159.53,288.215-159.031,288.465-158.525,288.696z"/>
		<path d="M-161.758,286.833c-0.467-0.332-0.918-0.692-1.359-1.069C-162.676,286.141-162.225,286.501-161.758,286.833z"/>
		<path d="M-122.61,223.434c-0.329-0.413-0.674-0.811-1.033-1.194C-123.285,222.624-122.939,223.021-122.61,223.434z"/>
		<path d="M-160.226,287.815c-0.474-0.275-0.938-0.569-1.39-0.887C-161.163,287.246-160.699,287.54-160.226,287.815z"/>
		<path d="M-200.769,287.326c-0.524-0.324-1.041-0.669-1.543-1.049C-201.81,286.657-201.293,287.002-200.769,287.326z"/>
		<path d="M-197.455,288.963c-0.363-0.14-0.724-0.289-1.081-0.451C-198.178,288.674-197.818,288.823-197.455,288.963z"/>
		<path d="M-118.981,230.596c-0.166-0.612-0.365-1.206-0.583-1.789C-119.347,229.39-119.147,229.983-118.981,230.596z"/>
		<path d="M-199.153,288.22c-0.368-0.183-0.73-0.382-1.09-0.59C-199.883,287.838-199.521,288.037-199.153,288.22z"/>
		<path d="M-121.555,224.899c-0.219-0.333-0.45-0.655-0.687-0.972C-122.005,224.244-121.773,224.566-121.555,224.899z"/>
		<path d="M-119.795,228.25c-0.159-0.389-0.325-0.772-0.507-1.146C-120.12,227.478-119.954,227.861-119.795,228.25z"/>
		<path d="M-120.617,226.49c-0.182-0.342-0.372-0.678-0.572-1.007C-120.989,225.812-120.799,226.148-120.617,226.49z"/>
		<path d="M-191.649,290.24c-0.442-0.028-0.884-0.076-1.325-0.135C-192.533,290.164-192.092,290.212-191.649,290.24z"/>
		<path d="M-190.369,290.291c0.22,0,0.439-0.012,0.659-0.019c-0.438,0.015-0.877,0.007-1.316-0.007
			C-190.808,290.272-190.588,290.291-190.369,290.291z"/>
		<path d="M-195.591,289.575c-0.419-0.114-0.837-0.238-1.25-0.382C-196.427,289.337-196.01,289.461-195.591,289.575z"/>
		<path d="M-185.822,289.763c-0.539,0.126-1.083,0.226-1.631,0.306C-186.905,289.988-186.361,289.889-185.822,289.763z"/>
		<path d="M-187.791,290.116c-0.542,0.071-1.087,0.122-1.634,0.148C-188.878,290.238-188.333,290.188-187.791,290.116z"/>
		<path d="M-193.407,290.054c-0.577-0.089-1.152-0.205-1.722-0.347C-194.559,289.849-193.984,289.965-193.407,290.054z"/>
		<path d="M-151.118,290.484c-0.545-0.024-1.088-0.071-1.628-0.14C-152.206,290.413-151.663,290.46-151.118,290.484z"/>
		<path d="M-218.645,223.426c-0.206,0.364-0.399,0.737-0.583,1.117C-219.044,224.163-218.851,223.789-218.645,223.426z"/>
		<path d="M-143.078,289.152c0.363-0.142,0.723-0.294,1.079-0.458C-142.355,288.858-142.715,289.011-143.078,289.152z"/>
		<path d="M-138.226,286.44c-0.501,0.383-1.018,0.731-1.542,1.06C-139.244,287.172-138.727,286.823-138.226,286.44z"/>
		<path d="M-141.385,288.402c0.37-0.186,0.733-0.388,1.095-0.599C-140.651,288.015-141.015,288.217-141.385,288.402z"/>
		<path d="M-201.42,213.385L-201.42,213.385c-0.369,0-0.735,0.022-1.102,0.043c0,0,0.001,0,0.001,0
			C-202.155,213.407-201.789,213.385-201.42,213.385z"/>
		<path d="M-204.475,213.623c-0.046,0.007-0.091,0.02-0.137,0.027l0,0C-204.566,213.643-204.521,213.63-204.475,213.623z"/>
		<path d="M-150.241,290.509c0.242,0,0.483-0.02,0.725-0.028l0,0C-149.758,290.489-150,290.509-150.241,290.509z"/>
		<path d="M-202.858,213.441c-0.44,0.032-0.877,0.085-1.312,0.146C-203.735,213.526-203.298,213.473-202.858,213.441
			C-202.858,213.441-202.858,213.441-202.858,213.441z"/>
		<path d="M-144.903,289.761c0.3-0.084,0.601-0.159,0.897-0.258c-0.296,0.099-0.597,0.174-0.896,0.258
			C-144.902,289.761-144.903,289.761-144.903,289.761z"/>
		<path d="M-148.897,290.455C-148.897,290.455-148.897,290.455-148.897,290.455c0.475-0.031,0.949-0.085,1.422-0.151
			c-0.001,0-0.001,0-0.002,0C-147.949,290.37-148.423,290.424-148.897,290.455z"/>
		<path d="M-147.141,290.264C-147.141,290.264-147.141,290.264-147.141,290.264c0.579-0.092,1.154-0.212,1.726-0.355c0,0,0,0,0,0
			C-145.987,290.052-146.562,290.172-147.141,290.264z"/>
		<path d="M-138.104,214.011c-1.917,0-3.837,0.257-5.705,0.764l-4.329,1.172v-4.88c0-12.002-9.764-21.765-21.765-21.765
			s-21.765,9.763-21.765,21.765v2.48l-2.693-0.924c-2.287-0.783-4.662-1.182-7.061-1.182c-9.297,0-17.57,5.912-20.586,14.713
			c-1.886,5.499-1.517,11.403,1.039,16.626c2.556,5.221,6.992,9.136,12.492,11.021l2.731,0.937l-1.968,2.602
			c-7.238,9.57-5.342,23.246,4.229,30.487c3.812,2.884,8.347,4.407,13.114,4.407c6.89,0,13.222-3.147,17.374-8.636l2.595-3.429
			l2.848,3.729c4.153,5.436,10.464,8.554,17.312,8.554c4.806,0,9.368-1.545,13.195-4.469c4.621-3.529,7.591-8.646,8.363-14.407
			c0.771-5.762-0.746-11.48-4.276-16.1l-0.343-0.449l0.881-0.239c11.583-3.14,18.453-15.116,15.315-26.701
			C-119.674,220.622-128.308,214.011-138.104,214.011z M-132.674,255.85l-2.278,0.617l1.221,1.601
			c3.373,4.412,4.823,9.875,4.086,15.379c-0.738,5.505-3.576,10.394-7.99,13.765c-3.656,2.793-8.015,4.27-12.604,4.27
			c0,0,0,0-0.002,0c-6.543,0-12.57-2.979-16.539-8.171l-3.624-4.746l-3.366,4.449c-3.967,5.243-10.017,8.249-16.599,8.249
			c-4.555,0-8.886-1.455-12.528-4.21c-9.143-6.917-10.955-19.983-4.039-29.127l2.777-3.673l-4.002-1.371
			c-5.254-1.8-9.492-5.54-11.934-10.528c-2.442-4.989-2.794-10.63-0.992-15.884c2.881-8.407,10.784-14.056,19.666-14.056
			c2.291,0,4.56,0.381,6.745,1.13l3.979,1.363v-3.84c0-11.466,9.328-20.793,20.794-20.793s20.793,9.327,20.793,20.793v6.15
			l5.556-1.505c1.784-0.483,3.619-0.729,5.45-0.729c9.358,0,17.607,6.316,20.06,15.358
			C-115.046,241.408-121.608,252.851-132.674,255.85z"/>
		<path d="M-208.573,214.735c0.001,0,0.002-0.001,0.003-0.001c-0.462,0.179-0.917,0.375-1.365,0.589
			c0.006-0.003,0.012-0.005,0.017-0.007C-209.477,215.106-209.028,214.912-208.573,214.735z"/>
		<path d="M-138.104,215.955c0.14,0,0.277,0.014,0.417,0.017c0.006,0,0.012,0,0.018,0
			C-137.814,215.969-137.958,215.954-138.104,215.955c-0.395-0.001-0.791,0.014-1.188,0.038c0.014,0,0.027,0,0.041,0
			C-138.867,215.97-138.484,215.955-138.104,215.955z"/>
		<path d="M-135.856,216.1c0.008,0.001,0.016,0.001,0.024,0.002c-0.395-0.046-0.792-0.081-1.191-0.103
			c0.007,0,0.015,0.001,0.022,0.002C-136.618,216.022-136.237,216.056-135.856,216.1z"/>
		<path d="M-131.748,217.009c0.003,0.001,0.006,0.001,0.009,0.002c-0.56-0.19-1.131-0.353-1.708-0.493
			c0.003,0.001,0.007,0.002,0.011,0.003C-132.866,216.661-132.302,216.821-131.748,217.009z"/>
		<path d="M-204.475,213.623c0.101-0.016,0.204-0.021,0.305-0.036C-204.271,213.602-204.374,213.607-204.475,213.623z"/>
		<path d="M-133.983,216.408c0.013,0.002,0.026,0.004,0.04,0.007c-0.418-0.09-0.837-0.172-1.262-0.235
			c0.005,0.001,0.009,0.002,0.014,0.003C-134.785,216.243-134.384,216.322-133.983,216.408z"/>
		<path d="M-212.102,216.531c0.005-0.003,0.009-0.006,0.014-0.01c-0.361,0.231-0.716,0.471-1.062,0.725
			c0.002-0.001,0.004-0.003,0.007-0.004C-212.804,216.993-212.456,216.758-212.102,216.531z"/>
		<path d="M-210.172,215.43c0.001,0,0.002-0.001,0.003-0.002c-0.521,0.257-1.03,0.539-1.527,0.84
			c0.001-0.001,0.003-0.002,0.004-0.003C-211.196,215.966-210.69,215.686-210.172,215.43z"/>
		<path d="M-199.261,213.519c0.002,0,0.004,0,0.006,0c-0.409-0.045-0.816-0.077-1.224-0.096c0.001,0,0.002,0,0.004,0
			C-200.071,213.443-199.667,213.474-199.261,213.519z"/>
		<path d="M-197.363,213.825c0.005,0.001,0.01,0.002,0.015,0.003c-0.425-0.09-0.849-0.169-1.274-0.23
			c0.002,0,0.004,0.001,0.006,0.001C-198.198,213.659-197.781,213.737-197.363,213.825z"/>
		<path d="M-194.991,214.462c-0.599-0.206-1.202-0.373-1.806-0.519c0.001,0,0.003,0.001,0.005,0.001
			C-196.189,214.09-195.589,214.257-194.991,214.462z"/>
		<path d="M-201.089,213.398c-0.11-0.002-0.221-0.014-0.331-0.014h0C-201.311,213.385-201.2,213.396-201.089,213.398
			C-201.09,213.398-201.089,213.398-201.089,213.398z"/>
		<path d="M-206.886,214.171c0.001,0,0.001,0,0.002-0.001c-0.395,0.114-0.786,0.24-1.173,0.378c0.002,0,0.003-0.001,0.005-0.001
			C-207.667,214.41-207.279,214.285-206.886,214.171z"/>
		<path d="M-205.021,213.73L-205.021,213.73c-0.441,0.082-0.879,0.176-1.312,0.288c0,0,0,0,0.001,0
			C-205.899,213.906-205.462,213.812-205.021,213.73z"/>
		<path d="M-139.36,215.996c0.003,0,0.007,0,0.01-0.001c-0.586,0.038-1.175,0.11-1.765,0.201c0.002,0,0.005,0,0.007,0
			C-140.524,216.105-139.941,216.033-139.36,215.996z"/>
		<path d="M-141.528,216.265c-0.59,0.104-1.182,0.226-1.772,0.386c0.589-0.16,1.178-0.281,1.767-0.385
			C-141.531,216.266-141.529,216.265-141.528,216.265z"/>
		<path d="M-119.795,228.25c0,0.001,0.001,0.002,0.001,0.003c-0.16-0.391-0.327-0.775-0.509-1.15c0,0,0,0.001,0,0.001
			C-120.12,227.478-119.954,227.861-119.795,228.25z"/>
		<path d="M-217.633,221.828c0.002-0.003,0.004-0.006,0.006-0.009c-0.242,0.345-0.476,0.697-0.697,1.06
			c0-0.001,0.001-0.002,0.002-0.003C-218.103,222.517-217.872,222.169-217.633,221.828z"/>
		<path d="M-218.645,223.426c0.001-0.001,0.001-0.002,0.002-0.003c-0.208,0.366-0.401,0.741-0.587,1.123
			c0-0.001,0.001-0.002,0.001-0.002C-219.043,224.163-218.851,223.79-218.645,223.426z"/>
		<path d="M-122.61,223.434c0.001,0.001,0.001,0.001,0.002,0.002c-0.336-0.422-0.688-0.829-1.056-1.22
			c0.007,0.007,0.014,0.016,0.021,0.023C-123.285,222.624-122.939,223.021-122.61,223.434z"/>
		<path d="M-219.481,225.064c-0.251,0.559-0.485,1.129-0.688,1.72C-219.966,226.193-219.732,225.624-219.481,225.064
			C-219.481,225.065-219.481,225.065-219.481,225.064z"/>
		<path d="M-121.555,224.899c0,0,0.001,0.001,0.001,0.002c-0.221-0.336-0.454-0.661-0.693-0.98c0.001,0.002,0.003,0.004,0.004,0.006
			C-122.005,224.244-121.773,224.566-121.555,224.899z"/>
		<path d="M-118.981,230.596c-0.166-0.612-0.365-1.207-0.583-1.79c0,0.001,0,0.001,0,0.001
			C-119.347,229.39-119.147,229.983-118.981,230.596z"/>
		<path d="M-144.006,289.503c0.104-0.034,0.205-0.08,0.309-0.117c0,0,0,0,0,0.001C-143.801,289.423-143.902,289.469-144.006,289.503
			z"/>
		<path d="M-143.078,289.152C-143.079,289.152-143.079,289.152-143.078,289.152c0.363-0.142,0.724-0.294,1.082-0.459
			c-0.001,0.001-0.001,0.001-0.002,0.001C-142.355,288.858-142.715,289.011-143.078,289.152z"/>
		<path d="M-120.617,226.49c0,0.001,0.001,0.002,0.001,0.002c-0.183-0.344-0.374-0.681-0.574-1.011c0,0,0.001,0.001,0.001,0.002
			C-120.989,225.812-120.799,226.148-120.617,226.49z"/>
		<path d="M-123.777,222.089c0.001,0,0.002,0.001,0.002,0.002c-0.408-0.427-0.836-0.83-1.279-1.216
			c0.001,0.001,0.003,0.002,0.004,0.004C-124.61,221.265-124.183,221.665-123.777,222.089z"/>
		<path d="M-130.106,217.657c0.003,0.001,0.006,0.002,0.009,0.003c-0.474-0.21-0.957-0.4-1.447-0.573
			c0.023,0.008,0.044,0.018,0.067,0.026C-131.014,217.278-130.556,217.458-130.106,217.657z"/>
		<path d="M-126.998,219.388c0.003,0.002,0.007,0.004,0.011,0.007c-0.312-0.211-0.628-0.414-0.951-0.607
			c0.004,0.002,0.008,0.005,0.012,0.008C-127.611,218.984-127.302,219.182-126.998,219.388z"/>
		<path d="M-214.979,218.761c0.001-0.001,0.003-0.003,0.005-0.005c-0.383,0.358-0.752,0.731-1.107,1.122
			c0.007-0.008,0.014-0.014,0.021-0.022C-215.713,219.476-215.353,219.11-214.979,218.761z"/>
		<path d="M-213.626,217.609c0.002-0.002,0.005-0.004,0.007-0.006c-0.321,0.25-0.633,0.512-0.938,0.782
			c0.003-0.003,0.007-0.005,0.01-0.008C-214.248,218.112-213.941,217.855-213.626,217.609z"/>
		<path d="M-128.522,218.449c0.003,0.002,0.006,0.003,0.009,0.005c-0.344-0.19-0.695-0.367-1.049-0.537
			c0.008,0.004,0.015,0.008,0.022,0.012C-129.196,218.094-128.856,218.264-128.522,218.449z"/>
		<path d="M-216.212,220.013c0.001-0.001,0.002-0.002,0.003-0.003c-0.39,0.437-0.758,0.896-1.111,1.37
			c0.001-0.001,0.002-0.002,0.003-0.003C-216.966,220.905-216.6,220.448-216.212,220.013z"/>
		<path d="M-125.508,220.504c0.005,0.004,0.01,0.008,0.015,0.012c-0.311-0.256-0.625-0.506-0.95-0.743
			c0.002,0.002,0.004,0.004,0.007,0.005C-126.119,220.009-125.812,220.254-125.508,220.504z"/>
		<path d="M-141.385,288.402c-0.001,0.001-0.001,0.001-0.002,0.001c0.372-0.187,0.738-0.39,1.101-0.603
			c-0.001,0.001-0.003,0.002-0.004,0.003C-140.651,288.015-141.015,288.217-141.385,288.402z"/>
		<path d="M-139.77,287.501c0.525-0.328,1.042-0.677,1.544-1.061c-0.501,0.383-1.018,0.731-1.542,1.06
			C-139.769,287.5-139.769,287.501-139.77,287.501z"/>
		<path d="M-138.104,214.982c-1.831,0-3.666,0.246-5.45,0.729l-5.556,1.505v-6.15c0-11.466-9.327-20.793-20.793-20.793
			s-20.794,9.327-20.794,20.793v3.84l-3.979-1.363c-2.186-0.749-4.454-1.13-6.745-1.13c-8.882,0-16.785,5.648-19.666,14.056
			c-1.802,5.254-1.45,10.895,0.992,15.884c2.441,4.988,6.68,8.729,11.934,10.528l4.002,1.371l-2.777,3.673
			c-6.916,9.144-5.104,22.21,4.039,29.127c3.643,2.755,7.974,4.21,12.528,4.21c6.582,0,12.632-3.006,16.599-8.249l3.366-4.449
			l3.624,4.746c3.969,5.192,9.996,8.171,16.539,8.171c0.002,0,0.002,0,0.002,0c4.589,0,8.947-1.477,12.604-4.27
			c4.414-3.371,7.252-8.26,7.99-13.765c0.737-5.504-0.713-10.967-4.086-15.379l-1.221-1.601l2.278-0.617
			c11.065-2.999,17.628-14.441,14.63-25.509C-120.496,221.299-128.745,214.982-138.104,214.982z M-132.929,254.912l-3.674,0.995
			l2.1,2.749c6.646,8.698,4.979,21.139-3.723,27.784c-0.502,0.384-1.019,0.732-1.544,1.061c-0.17,0.106-0.344,0.2-0.516,0.3
			c-0.363,0.213-0.729,0.416-1.101,0.603c-0.202,0.102-0.406,0.196-0.61,0.29c-0.358,0.165-0.719,0.317-1.083,0.459
			c-0.206,0.08-0.411,0.161-0.619,0.233c-0.104,0.037-0.205,0.083-0.309,0.117c-0.296,0.099-0.597,0.174-0.897,0.258
			c-0.171,0.048-0.34,0.104-0.511,0.147c-0.572,0.144-1.147,0.264-1.727,0.355c-0.111,0.018-0.223,0.024-0.333,0.04
			c-0.473,0.066-0.947,0.12-1.423,0.151c-0.206,0.015-0.412,0.018-0.619,0.025c-0.242,0.009-0.483,0.028-0.725,0.028
			c-0.187,0-0.372-0.011-0.558-0.016c-0.106-0.003-0.212-0.004-0.319-0.009c-0.545-0.024-1.087-0.071-1.628-0.14
			c-0.109-0.014-0.217-0.03-0.326-0.046c-0.554-0.079-1.104-0.176-1.65-0.302c-0.046-0.011-0.091-0.024-0.137-0.035
			c-0.526-0.125-1.045-0.274-1.56-0.442c-0.085-0.028-0.17-0.053-0.254-0.081c-0.521-0.179-1.035-0.381-1.542-0.603
			c-0.104-0.046-0.207-0.092-0.31-0.14c-0.506-0.231-1.004-0.481-1.492-0.757c-0.07-0.04-0.138-0.083-0.208-0.124
			c-0.474-0.275-0.938-0.569-1.39-0.887c-0.047-0.032-0.095-0.062-0.142-0.096c-0.467-0.332-0.918-0.692-1.359-1.069
			c-0.084-0.072-0.169-0.144-0.252-0.217c-0.428-0.379-0.843-0.777-1.243-1.198c-0.07-0.074-0.137-0.15-0.207-0.226
			c-0.412-0.447-0.812-0.911-1.189-1.404l-4.4-5.763l-4.137,5.471c-0.373,0.493-0.77,0.956-1.178,1.403
			c-0.072,0.079-0.143,0.16-0.216,0.238c-0.396,0.42-0.806,0.818-1.23,1.197c-0.086,0.077-0.173,0.151-0.261,0.227
			c-0.438,0.377-0.886,0.738-1.35,1.072c-0.044,0.031-0.089,0.06-0.133,0.091c-0.446,0.315-0.905,0.608-1.372,0.884
			c-0.081,0.048-0.16,0.099-0.242,0.145c-0.482,0.275-0.975,0.525-1.476,0.758c-0.106,0.049-0.212,0.097-0.319,0.144
			c-0.507,0.225-1.021,0.432-1.542,0.611c-0.075,0.026-0.15,0.048-0.226,0.072c-0.503,0.168-1.013,0.314-1.527,0.441
			c-0.068,0.017-0.136,0.036-0.205,0.053c-0.539,0.126-1.083,0.226-1.631,0.306c-0.113,0.018-0.225,0.033-0.338,0.048
			c-0.542,0.071-1.087,0.122-1.634,0.148c-0.096,0.004-0.19,0.005-0.286,0.008c-0.22,0.007-0.439,0.019-0.659,0.019
			c-0.219,0-0.438-0.019-0.658-0.025c-0.208-0.008-0.415-0.012-0.623-0.025c-0.442-0.028-0.884-0.076-1.325-0.135
			c-0.144-0.02-0.289-0.029-0.433-0.052c-0.577-0.089-1.152-0.205-1.722-0.347c-0.155-0.038-0.307-0.09-0.461-0.132
			c-0.419-0.114-0.836-0.238-1.25-0.382c-0.206-0.071-0.409-0.152-0.614-0.23c-0.363-0.14-0.723-0.289-1.081-0.451
			c-0.207-0.095-0.413-0.19-0.618-0.292c-0.368-0.183-0.73-0.382-1.09-0.59c-0.175-0.102-0.353-0.196-0.526-0.304
			c-0.524-0.324-1.041-0.669-1.543-1.049c-8.73-6.605-10.455-19.034-3.852-27.766l3.588-4.743l-5.271-1.807
			c-10.356-3.549-15.874-14.822-12.323-25.178c0.203-0.591,0.437-1.161,0.688-1.72c0.08-0.176,0.167-0.346,0.251-0.52
			c0.186-0.382,0.379-0.757,0.587-1.123c0.104-0.183,0.209-0.364,0.319-0.543c0.221-0.363,0.455-0.715,0.697-1.06
			c0.103-0.146,0.2-0.296,0.307-0.439c0.353-0.474,0.721-0.934,1.111-1.37c0.041-0.046,0.086-0.087,0.127-0.132
			c0.355-0.39,0.725-0.763,1.107-1.122c0.136-0.127,0.277-0.247,0.417-0.371c0.306-0.271,0.618-0.532,0.938-0.782
			c0.155-0.121,0.311-0.241,0.469-0.357c0.346-0.254,0.701-0.494,1.062-0.725c0.131-0.083,0.258-0.172,0.392-0.253
			c0.498-0.302,1.006-0.583,1.527-0.84c0.077-0.038,0.157-0.068,0.234-0.105c0.448-0.213,0.902-0.41,1.365-0.589
			c0.17-0.066,0.342-0.125,0.514-0.186c0.387-0.138,0.778-0.264,1.173-0.378c0.183-0.053,0.365-0.105,0.55-0.152
			c0.433-0.112,0.871-0.206,1.312-0.288c0.137-0.025,0.271-0.058,0.409-0.08c0.046-0.008,0.091-0.02,0.137-0.027
			c0.101-0.016,0.204-0.021,0.305-0.036c0.435-0.062,0.872-0.114,1.312-0.146c0.111-0.008,0.224-0.007,0.336-0.013
			c0.366-0.021,0.732-0.043,1.101-0.043h0h0c0.11,0,0.221,0.012,0.331,0.014c0.203,0.003,0.407,0.015,0.61,0.025
			c0.407,0.02,0.815,0.051,1.224,0.096c0.211,0.023,0.421,0.048,0.632,0.078c0.425,0.061,0.849,0.141,1.274,0.23
			c0.184,0.039,0.368,0.071,0.552,0.115c0.604,0.146,1.207,0.313,1.806,0.519l5.268,1.805v-5.2c0-10.946,8.875-19.821,19.821-19.821
			s19.821,8.875,19.821,19.821v7.42l6.781-1.836c0.59-0.16,1.182-0.281,1.772-0.386c0.138-0.024,0.275-0.047,0.413-0.069
			c0.59-0.091,1.178-0.163,1.765-0.201c0.02-0.001,0.04,0,0.06-0.002c0.397-0.024,0.793-0.039,1.188-0.039
			c0.146,0,0.29,0.015,0.435,0.018c0.216,0.005,0.43,0.015,0.645,0.027c0.4,0.022,0.796,0.057,1.191,0.103
			c0.209,0.024,0.418,0.047,0.626,0.078c0.425,0.063,0.844,0.145,1.262,0.235c0.166,0.036,0.333,0.063,0.497,0.104
			c0.577,0.141,1.148,0.303,1.708,0.493c0.066,0.022,0.129,0.052,0.194,0.075c0.49,0.173,0.973,0.363,1.447,0.573
			c0.181,0.081,0.356,0.171,0.535,0.256c0.354,0.17,0.706,0.347,1.049,0.537c0.194,0.108,0.385,0.221,0.576,0.334
			c0.323,0.193,0.639,0.396,0.951,0.607c0.183,0.124,0.365,0.247,0.544,0.377c0.325,0.237,0.639,0.487,0.95,0.743
			c0.146,0.121,0.297,0.235,0.439,0.36c0.442,0.386,0.871,0.789,1.279,1.216c0.039,0.04,0.072,0.084,0.11,0.125
			c0.368,0.391,0.72,0.797,1.056,1.22c0.125,0.157,0.241,0.323,0.362,0.484c0.239,0.32,0.472,0.645,0.693,0.98
			c0.125,0.19,0.244,0.385,0.363,0.58c0.201,0.33,0.392,0.667,0.574,1.011c0.107,0.202,0.213,0.403,0.314,0.61
			c0.182,0.375,0.349,0.76,0.509,1.15c0.076,0.185,0.158,0.365,0.229,0.553c0.218,0.583,0.417,1.178,0.583,1.79
			C-116.119,241.161-122.363,252.049-132.929,254.912z"/>
		<path d="M-161.054,244.281c0-4.911-3.996-8.906-8.907-8.906s-8.906,3.995-8.906,8.906c0,4.912,3.995,8.907,8.906,8.907
			S-161.054,249.193-161.054,244.281z M-169.961,249.949c-3.125,0-5.667-2.543-5.667-5.668c0-3.124,2.542-5.668,5.667-5.668
			c3.126,0,5.668,2.544,5.668,5.668C-164.293,247.406-166.835,249.949-169.961,249.949z"/>
		<path d="M-169.648,267.617c0.837,0,1.518-0.658,1.518-1.468c-0.006-0.082-0.632-8.906-0.647-9.123
			c-0.029-0.467-0.463-0.728-0.874-0.744c-0.386,0.025-0.86,0.223-0.893,0.698c-0.014,0.217-0.622,9.177-0.622,9.177
			C-171.167,266.959-170.485,267.617-169.648,267.617z"/>
		<circle cx="-169.649" cy="271.916" r="2.034"/>
		<path d="M-181.366,248.118c-0.121-0.314-0.391-0.663-0.772-0.663c-0.052,0-0.104,0.007-0.158,0.02
			c-0.212,0.053-8.862,2.105-8.949,2.126c-0.766,0.236-1.192,1.085-0.944,1.886c0.196,0.633,0.785,1.076,1.429,1.076
			c0.143,0,0.284-0.021,0.422-0.064c0.075-0.029,8.319-3.244,8.523-3.321C-181.382,249.009-181.26,248.518-181.366,248.118z"/>
		<path d="M-196.296,250.723c-0.204,0-0.408,0.031-0.604,0.093c-0.519,0.16-0.944,0.514-1.196,0.996
			c-0.254,0.48-0.305,1.03-0.143,1.549c0.266,0.855,1.046,1.432,1.94,1.432c0.204,0,0.407-0.031,0.604-0.092
			c0.518-0.161,0.943-0.514,1.197-0.995c0.252-0.48,0.303-1.03,0.143-1.551C-194.62,251.298-195.4,250.723-196.296,250.723z"/>
		<path d="M-184.613,227.868c0.054,0.062,5.865,6.731,6.007,6.897c0.181,0.21,0.412,0.254,0.573,0.254
			c0.196,0,0.4-0.066,0.575-0.186c0.306-0.266,0.551-0.697,0.29-1.094c-0.119-0.182-4.976-7.629-5.024-7.704
			c-0.27-0.358-0.695-0.567-1.161-0.567c-0.337,0-0.658,0.108-0.931,0.315C-184.952,226.287-185.099,227.222-184.613,227.868z"/>
		<path d="M-186.868,224.384c0.443,0,0.866-0.143,1.221-0.411c0.896-0.674,1.076-1.951,0.402-2.848
			c-0.389-0.516-0.982-0.811-1.628-0.811c-0.443,0-0.866,0.142-1.222,0.41c-0.895,0.676-1.074,1.953-0.4,2.848
			C-188.106,224.088-187.514,224.384-186.868,224.384z"/>
		<path d="M-162.176,234.798c0.198,0,0.366-0.075,0.495-0.22c0.144-0.161,6.08-6.781,6.141-6.849
			c0.231-0.295,0.336-0.673,0.289-1.059c-0.05-0.406-0.258-0.771-0.586-1.027c-0.277-0.216-0.605-0.33-0.951-0.33
			c-0.455,0-0.874,0.202-1.148,0.553c-0.046,0.068-4.983,7.408-5.107,7.589c-0.262,0.387-0.082,0.857,0.232,1.123
			C-162.608,234.717-162.38,234.798-162.176,234.798z"/>
		<path d="M-154.442,223.859c0.361,0.283,0.795,0.432,1.252,0.432c0.631,0,1.216-0.284,1.604-0.781
			c0.69-0.884,0.533-2.166-0.35-2.855c-0.361-0.281-0.795-0.431-1.251-0.431c-0.632,0-1.217,0.285-1.604,0.78
			C-155.481,221.889-155.325,223.169-154.442,223.859z"/>
		<path d="M-148.55,249.159c-0.348-0.085-8.679-2.104-8.891-2.159c-0.055-0.014-0.113-0.021-0.171-0.021
			c-0.343,0-0.666,0.254-0.803,0.629c-0.093,0.377-0.048,0.891,0.394,1.062c0.202,0.078,8.469,3.349,8.553,3.382
			c0.134,0.043,0.28,0.065,0.427,0.065c0.649,0,1.224-0.429,1.427-1.066C-147.361,250.254-147.781,249.404-148.55,249.159z"/>
		<path d="M-142.899,250.42c-0.201-0.064-0.41-0.098-0.619-0.098c-0.889,0-1.667,0.57-1.938,1.419
			c-0.166,0.517-0.119,1.068,0.129,1.551c0.25,0.482,0.672,0.839,1.191,1.005c0.2,0.063,0.407,0.096,0.616,0.096
			c0.89,0,1.669-0.569,1.94-1.416C-141.241,251.909-141.833,250.762-142.899,250.42z"/>
		<path d="M-169.652,231.644c0.472-0.036,0.98-0.262,1.015-0.792c0.019-0.299,0.826-12.579,0.826-12.579
			c0-0.99-0.824-1.814-1.838-1.814c-1.013,0-1.837,0.824-1.837,1.836c0.001-0.001,0.841,12.195,0.859,12.497
			C-170.593,231.317-170.114,231.617-169.652,231.644z"/>
		<path d="M-157.831,240.836c0.152,0.387,0.539,0.841,1.053,0.717c0.291-0.071,12.259-2.94,12.259-2.94
			c0.448-0.14,0.832-0.458,1.06-0.893c0.229-0.434,0.273-0.931,0.129-1.4c-0.295-0.948-1.338-1.51-2.3-1.209
			c0.002,0-11.396,4.417-11.678,4.524C-157.808,239.826-157.949,240.384-157.831,240.836z"/>
		<path d="M-161.343,254.607c-0.209-0.243-0.473-0.295-0.657-0.295c-0.223,0-0.452,0.074-0.647,0.209
			c-0.334,0.291-0.614,0.784-0.32,1.232c0.166,0.251,6.91,10.545,6.91,10.545c0.569,0.756,1.77,0.938,2.561,0.343
			c0.809-0.609,0.971-1.764,0.361-2.571C-153.137,264.07-161.146,254.837-161.343,254.607z"/>
		<path d="M-178.712,253.744c-0.223,0-0.41,0.083-0.555,0.248c-0.199,0.225-8.398,9.404-8.398,9.404
			c-0.288,0.37-0.422,0.851-0.361,1.338s0.307,0.922,0.693,1.224c0.777,0.607,1.973,0.457,2.578-0.315
			c-0.002,0.001,6.844-10.126,7.015-10.376c0.303-0.444,0.101-0.981-0.255-1.284C-178.213,253.837-178.478,253.744-178.712,253.744z
			"/>
		<path d="M-195.161,237.808c0.465,0.113,11.875,2.906,12.168,2.982c0.44,0.108,0.93-0.188,1.112-0.689
			c0.104-0.429,0.05-0.993-0.449-1.187l-11.735-4.614c-0.161-0.051-0.35-0.081-0.537-0.081c-0.803,0-1.506,0.515-1.75,1.28
			c-0.148,0.468-0.107,0.966,0.117,1.402C-196.01,237.337-195.628,237.659-195.161,237.808z"/>
	</g>
</g>
<g id="Layer_1" display="none">
	<circle display="inline" fill="#E3D8B5" cx="283.822" cy="65.325" r="77.4"/>
</g>
<g id="Layer_9" display="none">
	<g display="inline">
		<g>
			<path d="M339.393,49.018c5.029-8.135,4.326-8.659,3.758-9.083c-5.004-3.741-13.884-7.738-23.802-7.738
				c-3.405,0-6.683,0.487-9.741,1.448c-0.768,0.242-1.515,0.521-2.253,0.816c0.068-0.832,0.114-1.668,0.114-2.513
				c0-12.797-8.186-23.878-15.846-29.98c-0.184-0.146-0.409-0.224-0.654-0.224c-1.26,0-4.364,3.323-6.968,6.398
				c-5.612-6.488-6.629-6.488-6.971-6.488l-0.356,0.026l-0.213,0.153c-0.291,0.21-0.583,0.436-0.874,0.67
				c-0.061,0.049-0.12,0.09-0.181,0.139c-7.417,5.848-15.003,17.14-15.003,29.306c0,0.966,0.054,1.921,0.141,2.868
				c-0.807-0.332-1.619-0.64-2.441-0.898c-3.065-0.967-6.321-1.457-9.677-1.457c-11.251,0-20.31,5.283-23.682,7.553
				c-0.575,0.387-1.525,1.025,3.595,9.129c-8.781,3.785-8.506,4.62-8.282,5.295c0.136,0.411,0.288,0.829,0.456,1.252
				c3.348,8.83,11.835,19.459,23.437,23.117c0.522,0.165,1.06,0.296,1.593,0.434c-0.314,0.396-0.635,0.785-0.933,1.199
				c-7.468,10.389-7.29,24.164-4.633,33.592c0.244,0.866,1.322,0.866,1.728,0.866c1.972,0,6.185-0.974,8.065-1.434
				c0.854,9.526,1.729,9.526,2.438,9.526h0.001c0.434,0,0.879-0.015,1.334-0.042c9.436-0.421,22.184-5.163,29.283-15.038
				c0.373-0.52,0.724-1.05,1.061-1.586c0.363,0.573,0.738,1.137,1.135,1.68c7.54,10.337,20.684,14.465,30.47,14.883l0.043,0.001
				c0.679,0,1.8,0,2.478-9.484c1.956,0.443,6.423,1.407,8.284,1.407c0.35,0,1.278,0,1.524-0.752c0.135-0.411,0.26-0.838,0.376-1.277
				c2.545-9.094,2.019-22.686-5.151-32.516c-0.318-0.438-0.661-0.85-0.999-1.266c0.561-0.143,1.124-0.281,1.673-0.453
				c12.207-3.839,20.324-14.971,23.85-24.109C347.818,53.793,348.23,52.727,339.393,49.018z M288.486,70.886
				c-0.006,0.007-0.011,0.013-0.017,0.019c-0.128,0.129-0.263,0.25-0.4,0.366c-0.415,0.35-0.878,0.643-1.375,0.875
				c-0.02,0.009-0.038,0.019-0.058,0.028c-0.034,0.016-0.067,0.033-0.102,0.049c-0.018,0.008-0.033,0.017-0.051,0.023
				c-0.007,0.004-0.016,0.006-0.022,0.009c-0.458,0.191-0.945,0.323-1.449,0.399c-0.014,0.002-0.027,0.005-0.041,0.007
				c-0.011,0.001-0.021,0.003-0.03,0.005c-0.027,0.004-0.054,0.008-0.081,0.012c-0.258,0.033-0.518,0.055-0.783,0.055
				c-0.471,0-0.928-0.057-1.368-0.156c-0.015-0.004-0.029-0.008-0.045-0.012c-0.019-0.005-0.037-0.01-0.056-0.015
				c-0.015-0.004-0.029-0.008-0.044-0.011c-0.487-0.124-0.955-0.301-1.39-0.531c-0.011-0.006-0.023-0.011-0.034-0.018
				c-0.017-0.008-0.033-0.019-0.05-0.027c-0.019-0.011-0.035-0.022-0.053-0.033c-0.092-0.051-0.18-0.106-0.269-0.162
				c-0.447-0.285-0.855-0.624-1.216-1.01c-0.001-0.002-0.002-0.002-0.003-0.004c-0.011-0.011-0.021-0.022-0.03-0.033
				c-0.003-0.004-0.006-0.006-0.009-0.01c-0.018-0.02-0.036-0.039-0.054-0.059c-0.324-0.363-0.61-0.762-0.843-1.195
				c-0.011-0.02-0.019-0.039-0.029-0.059c-0.009-0.018-0.017-0.037-0.025-0.055c-0.008-0.015-0.015-0.03-0.022-0.045
				c-0.32-0.641-0.538-1.343-0.619-2.086c-0.002-0.017-0.006-0.033-0.007-0.05c-0.002-0.013-0.001-0.026-0.003-0.04
				c-0.001-0.013,0-0.025-0.001-0.038c-0.017-0.182-0.028-0.364-0.028-0.551c0-0.323,0.032-0.639,0.08-0.948
				c0.003-0.017,0.005-0.033,0.008-0.05s0.005-0.033,0.008-0.05c0.002-0.011,0.003-0.021,0.005-0.033
				c0.012-0.063,0.019-0.128,0.032-0.19c0.113-0.542,0.301-1.056,0.546-1.534c0.041-0.082,0.083-0.162,0.128-0.24
				c0.017-0.03,0.036-0.059,0.053-0.088c0.007-0.012,0.015-0.023,0.021-0.034c0.005-0.009,0.01-0.018,0.016-0.026
				c0.265-0.438,0.576-0.843,0.937-1.201c0.007-0.007,0.016-0.014,0.022-0.021c0.006-0.005,0.011-0.009,0.017-0.015
				c0.016-0.016,0.033-0.029,0.05-0.045c0.362-0.346,0.766-0.648,1.203-0.9c0.014-0.008,0.027-0.017,0.041-0.024
				c0.016-0.009,0.031-0.021,0.048-0.028c0.012-0.008,0.022-0.016,0.035-0.021c0.438-0.238,0.912-0.419,1.407-0.546
				c0.012-0.003,0.024-0.007,0.037-0.01c0.015-0.004,0.029-0.008,0.044-0.011c0.022-0.006,0.045-0.013,0.067-0.018
				c0.181-0.042,0.364-0.074,0.551-0.1c0.275-0.038,0.556-0.064,0.842-0.064c0.267,0,0.527,0.022,0.785,0.055
				c0.056,0.008,0.11,0.018,0.166,0.025c0.034,0.006,0.069,0.011,0.104,0.017c0.015,0.003,0.029,0.004,0.043,0.007
				c0.01,0.002,0.019,0.002,0.027,0.004c0.503,0.093,0.982,0.246,1.436,0.452c0.011,0.005,0.022,0.011,0.034,0.017
				c0.006,0.002,0.012,0.006,0.018,0.008c0.023,0.012,0.047,0.023,0.07,0.035c0.575,0.277,1.1,0.639,1.56,1.07
				c0.023,0.022,0.048,0.043,0.07,0.064c0.001,0.001,0.002,0.002,0.003,0.002c0.01,0.01,0.021,0.019,0.031,0.029
				c0.354,0.348,0.661,0.74,0.924,1.163c0.007,0.011,0.014,0.022,0.021,0.034c0.013,0.02,0.025,0.041,0.038,0.062
				c0.007,0.013,0.015,0.024,0.021,0.036c0.069,0.118,0.134,0.238,0.195,0.361c0.241,0.482,0.425,0.997,0.534,1.54
				c0.015,0.074,0.022,0.151,0.034,0.226c0.003,0.02,0.006,0.04,0.009,0.061c0.003,0.018,0.006,0.035,0.009,0.053
				c0.003,0.021,0.007,0.044,0.01,0.066c0.035,0.266,0.06,0.535,0.06,0.812c0,0.218-0.012,0.433-0.034,0.646
				c-0.002,0.017-0.006,0.032-0.007,0.049c-0.003,0.02-0.007,0.039-0.01,0.059c-0.002,0.018-0.006,0.035-0.008,0.053
				c-0.102,0.775-0.342,1.508-0.703,2.166c-0.003,0.005-0.006,0.01-0.009,0.015c-0.012,0.021-0.026,0.042-0.038,0.063
				c-0.011,0.019-0.022,0.035-0.033,0.054c-0.244,0.42-0.536,0.809-0.869,1.159c-0.022,0.023-0.044,0.05-0.066,0.074
				C288.496,70.875,288.491,70.881,288.486,70.886z M221.825,54.49c2.192,0,7.774-1.649,9.919-3.98l0.296-0.32l-0.104-0.425
				c-0.688-2.796-3.932-6.604-5.854-8.674c4.917-3.168,11.347-4.913,18.182-4.913c4.192,0,8.401,0.656,12.51,1.952
				c1.629,0.514,3.176,1.14,4.656,1.839c2.586,10.195,9.616,18.674,15.861,22.686c-0.108,0.189-0.208,0.386-0.302,0.586
				l-18.562-5.771c-0.051-0.947-0.668-1.809-1.626-2.111c-1.233-0.392-2.552,0.293-2.942,1.527
				c-0.392,1.232,0.291,2.551,1.525,2.941c0.965,0.305,1.972-0.051,2.557-0.805l18.518,5.758c-0.039,0.171-0.07,0.345-0.098,0.52
				c-0.464-0.025-0.938-0.041-1.43-0.041c-7.991,0-18.342,3.223-25.95,10.269c-1.252-0.256-2.491-0.551-3.702-0.933
				c-12.665-3.992-20.824-12.864-23.473-20.104C221.812,54.49,221.818,54.49,221.825,54.49z M291.863,67.346
				c6.097,0.209,14.226,2.961,21.109,8.641c-0.687,0.035-1.371,0.076-2.064,0.076c-8.133,0-15.589-2.459-20.095-5.561
				C291.372,69.557,291.745,68.489,291.863,67.346z M301.6,42.293c-1.538,5.439-3.972,9.604-5.674,12.057
				c-1.938,2.795-4.128,5.119-6.245,6.731c-0.691-0.711-1.517-1.288-2.435-1.697C289.188,53.985,294.165,47.148,301.6,42.293z
				 M256.682,76.32c-0.734,0-1.461-0.041-2.188-0.082c6.975-5.9,15.463-8.988,21.791-9.072c0.092,1.141,0.426,2.213,0.956,3.165
				C272.898,73.506,265.466,76.32,256.682,76.32z M266.423,42.788c6.288,4.202,10.713,9.737,12.947,14.153
				c0.457,0.904,0.841,1.786,1.147,2.632c-0.78,0.401-1.483,0.928-2.085,1.556C273.926,57.781,268.922,51.164,266.423,42.788z
				 M283.873,96.665c-2.823-7.358-3.163-14.764-2.313-19.813c0.164-0.975,0.373-1.889,0.62-2.733
				c0.608,0.153,1.242,0.243,1.897,0.243c0.445,0,0.88-0.047,1.305-0.118C287.001,79.84,287.029,88.336,283.873,96.665z
				 M322.393,74.333c-1.263,0.396-2.558,0.7-3.867,0.962c-7.552-6.781-17.778-9.881-25.696-9.881c-0.345,0-0.678,0.012-1.01,0.023
				c-0.029-0.204-0.062-0.406-0.105-0.605l18.141-5.646c0.578,0.75,1.576,1.107,2.536,0.814c1.237-0.378,1.934-1.689,1.557-2.928
				c-0.38-1.238-1.687-1.936-2.927-1.556c-0.967,0.295-1.594,1.159-1.646,2.112l-18.182,5.66c-0.114-0.248-0.24-0.487-0.378-0.721
				c6.214-4.115,13.23-12.755,15.716-23.009c1.403-0.646,2.869-1.22,4.399-1.701c4.104-1.29,8.351-1.943,12.622-1.943
				c7.056,0,13.617,1.813,18.135,4.981c-1.788,1.234-5.443,5.804-5.866,8.951l-0.059,0.433l0.328,0.288
				c2.164,1.898,7.004,3.162,9.767,3.758C342.938,61.428,335.324,70.27,322.393,74.333z M338.098,48.012
				c0.346-0.727,0.785-1.447,1.267-2.125c-0.008,0.015-0.018,0.029-0.025,0.043c-0.39,0.671-0.799,1.356-1.21,2.03
				C338.119,47.977,338.108,47.994,338.098,48.012z M284.488,11.758c2.462-1.496,5.115-5.732,6.513-8.189
				c5.9,4.912,12.053,14.824,12.053,28.38c0,1.669-0.122,3.267-0.32,4.804c-9.152,5.452-15.293,14.812-17.32,22.078
				c-0.186-0.031-0.37-0.064-0.56-0.083l-0.106-19.473c0.887-0.335,1.521-1.185,1.521-2.188c0-1.295-1.051-2.344-2.345-2.344
				c-1.295,0-2.344,1.049-2.344,2.344c0,1.012,0.644,1.865,1.54,2.194l0.106,19.476c-0.318,0.035-0.629,0.094-0.935,0.166
				c-0.505-1.748-1.249-3.621-2.222-5.545c-3.446-6.812-8.754-12.517-14.877-16.215c-0.24-1.692-0.375-3.432-0.375-5.214
				c0-13.281,6.012-23.731,12.121-28.433c0.639,2.072,3.904,6.936,6.78,8.283l0.396,0.186L284.488,11.758z M226.57,51.725
				c0.74-0.344,1.51-0.689,2.272-1.023c-0.706,0.402-1.488,0.744-2.279,1.026C226.565,51.727,226.567,51.726,226.57,51.725z
				 M241.415,113.098c-1.923-7.433-1.132-19.076,6.78-30.081c0.731-1.018,1.521-1.973,2.339-2.896
				c1.125,0.111,2.259,0.188,3.41,0.188c10.081,0,19.184-4.102,24.398-8.467c0.062,0.066,0.121,0.139,0.186,0.203l-11.342,15.159
				c-0.908-0.269-1.928,0.025-2.533,0.826c-0.781,1.032-0.576,2.503,0.455,3.282c1.032,0.783,2.501,0.579,3.282-0.453
				c0.609-0.806,0.613-1.874,0.097-2.678l11.305-15.107c0.199,0.132,0.405,0.256,0.617,0.369c-0.643,1.725-1.164,3.703-1.527,5.861
				c-1.306,7.757-0.332,15.745,2.603,22.484c-0.673,1.201-1.413,2.387-2.244,3.543c-7.752,10.784-18.733,15.763-26.439,16.014
				c0.695-2.054,0.885-7.902-0.669-10.685l-0.213-0.382l-0.436-0.033C248.599,110.026,243.983,111.915,241.415,113.098z
				 M281.005,7.23c0.549,0.602,1.109,1.229,1.654,1.854C282.067,8.535,281.509,7.895,281.005,7.23z M251.67,115.95
				c-0.095-0.805-0.183-1.638-0.261-2.46C251.568,114.279,251.648,115.12,251.67,115.95z M316.083,110.287l-0.428,0.083
				l-0.168,0.402c-1.108,2.658-0.755,7.647-0.435,10.455c-7.661-0.492-18.477-4.877-26.465-15.827
				c-0.861-1.182-1.631-2.393-2.323-3.62c4.19-9.765,3.626-20.931,0.987-28.099c0.135-0.061,0.268-0.125,0.397-0.191l11.037,15.525
				c-0.534,0.784-0.565,1.844,0.012,2.664c0.745,1.061,2.208,1.315,3.268,0.57c1.059-0.744,1.314-2.205,0.568-3.266
				c-0.58-0.826-1.598-1.155-2.521-0.909l-10.999-15.475c0.243-0.198,0.472-0.413,0.689-0.639
				c5.292,4.237,14.275,8.086,23.965,8.086c1.131,0,2.244-0.072,3.347-0.177c0.856,0.947,1.688,1.936,2.462,2.997
				c7.827,10.731,9.131,22.718,6.966,30.115C324.709,111.684,319.205,109.674,316.083,110.287z M318.549,111.854
				c0.802,0.095,1.628,0.281,2.425,0.521C320.047,112.187,319.187,111.998,318.549,111.854z"/>
		</g>
	</g>
</g>
<g id="Layer_8" display="none">
	<circle display="inline" fill="#E3D8B5" cx="68.01" cy="57.888" r="77.4"/>
</g>
<g id="Layer_10">
	<g>
		
			<polygon fill="none" stroke="#000000" stroke-width="2.1" stroke-linecap="round" stroke-linejoin="round" stroke-miterlimit="10" points="
			68.023,57.888 101.639,114.726 34.672,114.726 		"/>
		
			<line fill="none" stroke="#000000" stroke-width="2.1" stroke-linecap="round" stroke-linejoin="round" stroke-miterlimit="10" x1="68.003" y1="95.606" x2="68.003" y2="58.281"/>
		
			<line fill="none" stroke="#000000" stroke-width="2.1" stroke-linecap="round" stroke-linejoin="round" stroke-miterlimit="10" x1="68.018" y1="95.625" x2="35.551" y2="114.199"/>
		
			<line fill="none" stroke="#000000" stroke-width="2.1" stroke-linecap="round" stroke-linejoin="round" stroke-miterlimit="10" x1="68.027" y1="95.617" x2="100.475" y2="114.064"/>
		
			<polygon fill="none" stroke="#000000" stroke-width="2.1" stroke-linecap="round" stroke-linejoin="round" stroke-miterlimit="10" points="
			34.677,114.726 1.064,57.888 68.029,57.888 		"/>
		
			<line fill="none" stroke="#000000" stroke-width="2.1" stroke-linecap="round" stroke-linejoin="round" stroke-miterlimit="10" x1="34.685" y1="77.011" x2="34.685" y2="114.334"/>
		
			<line fill="none" stroke="#000000" stroke-width="2.1" stroke-linecap="round" stroke-linejoin="round" stroke-miterlimit="10" x1="34.684" y1="76.988" x2="67.137" y2="58.412"/>
		
			<line fill="none" stroke="#000000" stroke-width="2.1" stroke-linecap="round" stroke-linejoin="round" stroke-miterlimit="10" x1="34.672" y1="76.998" x2="2.228" y2="58.547"/>
		
			<polygon fill="none" stroke="#000000" stroke-width="2.1" stroke-linecap="round" stroke-linejoin="round" stroke-miterlimit="10" points="
			101.616,114.726 68.003,57.888 134.97,57.888 		"/>
		
			<line fill="none" stroke="#000000" stroke-width="2.1" stroke-linecap="round" stroke-linejoin="round" stroke-miterlimit="10" x1="101.623" y1="77.011" x2="101.623" y2="114.334"/>
		
			<line fill="none" stroke="#000000" stroke-width="2.1" stroke-linecap="round" stroke-linejoin="round" stroke-miterlimit="10" x1="101.62" y1="76.988" x2="134.088" y2="58.412"/>
		
			<line fill="none" stroke="#000000" stroke-width="2.1" stroke-linecap="round" stroke-linejoin="round" stroke-miterlimit="10" x1="101.609" y1="76.998" x2="69.165" y2="58.547"/>
		
			<polygon fill="none" stroke="#000000" stroke-width="2.1" stroke-linecap="round" stroke-linejoin="round" stroke-miterlimit="10" points="
			34.404,1.05 68.003,57.888 1.05,57.888 		"/>
		
			<line fill="none" stroke="#000000" stroke-width="2.1" stroke-linecap="round" stroke-linejoin="round" stroke-miterlimit="10" x1="34.384" y1="38.767" x2="34.384" y2="1.443"/>
		
			<line fill="none" stroke="#000000" stroke-width="2.1" stroke-linecap="round" stroke-linejoin="round" stroke-miterlimit="10" x1="34.384" y1="38.787" x2="1.932" y2="57.363"/>
		
			<line fill="none" stroke="#000000" stroke-width="2.1" stroke-linecap="round" stroke-linejoin="round" stroke-miterlimit="10" x1="34.407" y1="38.779" x2="66.854" y2="57.23"/>
		
			<polygon fill="none" stroke="#000000" stroke-width="2.1" stroke-linecap="round" stroke-linejoin="round" stroke-miterlimit="10" points="
			101.34,1.05 134.954,57.888 67.987,57.888 		"/>
		
			<line fill="none" stroke="#000000" stroke-width="2.1" stroke-linecap="round" stroke-linejoin="round" stroke-miterlimit="10" x1="101.333" y1="38.767" x2="101.333" y2="1.443"/>
		
			<line fill="none" stroke="#000000" stroke-width="2.1" stroke-linecap="round" stroke-linejoin="round" stroke-miterlimit="10" x1="101.335" y1="38.787" x2="68.882" y2="57.363"/>
		
			<line fill="none" stroke="#000000" stroke-width="2.1" stroke-linecap="round" stroke-linejoin="round" stroke-miterlimit="10" x1="101.348" y1="38.779" x2="133.79" y2="57.23"/>
		
			<polygon fill="none" stroke="#000000" stroke-width="2.1" stroke-linecap="round" stroke-linejoin="round" stroke-miterlimit="10" points="
			67.992,57.888 34.382,1.05 101.348,1.05 		"/>
		
			<line fill="none" stroke="#000000" stroke-width="2.1" stroke-linecap="round" stroke-linejoin="round" stroke-miterlimit="10" x1="68.002" y1="20.171" x2="68.002" y2="57.494"/>
		
			<line fill="none" stroke="#000000" stroke-width="2.1" stroke-linecap="round" stroke-linejoin="round" stroke-miterlimit="10" x1="67.999" y1="20.15" x2="100.465" y2="1.574"/>
		
			<line fill="none" stroke="#000000" stroke-width="2.1" stroke-linecap="round" stroke-linejoin="round" stroke-miterlimit="10" x1="67.989" y1="20.158" x2="35.545" y2="1.709"/>
	</g>
</g>
<g id="Layer_4" display="none">
	<circle display="inline" fill="#E3D8B5" cx="65.081" cy="244.427" r="77.4"/>
</g>
<g id="Layer_2" display="none">
	<path display="inline" fill="#B49C6E" d="M127.923,227.546c-3.627-13.376-15.828-22.717-29.674-22.717
		c-0.916,0-1.832,0.042-2.744,0.124c-2.354-14.635-15.074-25.849-30.364-25.849c-14.352,0-26.439,9.881-29.816,23.197
		c-0.995-0.098-1.995-0.146-2.999-0.146c-13.139-0.001-24.83,8.352-29.091,20.787c-2.664,7.771-2.143,16.112,1.469,23.491
		c2.542,5.195,6.4,9.473,11.173,12.479c-5.863,12.817-2.279,28.471,9.417,37.319c5.386,4.074,11.797,6.228,18.538,6.228
		c7.83,0,15.151-2.879,20.769-8.042c5.652,5.305,13.076,8.27,21.012,8.27c6.792,0,13.243-2.183,18.65-6.313
		c6.529-4.985,10.727-12.216,11.816-20.358c0.66-4.925,0.137-9.828-1.484-14.377C125.745,254.629,131.542,240.901,127.923,227.546z"
		/>
	<path display="inline" fill="#E3D8B5" d="M123.93,228.648c-3.115-11.488-13.595-19.511-25.483-19.511
		c-2.318,0-4.637,0.308-6.891,0.917v-0.381c0-14.564-11.85-26.415-26.416-26.415c-13.77,0-25.113,10.592-26.31,24.057
		c-2.191-0.577-4.436-0.866-6.7-0.869c-11.284,0-21.325,7.174-24.985,17.856c-2.288,6.672-1.841,13.838,1.261,20.177
		c2.821,5.763,7.529,10.214,13.379,12.693c-7.747,11.53-5.214,27.297,6,35.781c4.626,3.5,10.13,5.351,15.919,5.351
		c8.274,0,15.887-3.742,20.927-10.277l0.095,0.123c5.041,6.599,12.697,10.383,21.007,10.383c5.833,0,11.371-1.877,16.016-5.425
		c5.607-4.281,9.213-10.491,10.149-17.484c0.743-5.539-0.26-11.045-2.837-15.882C120.829,254.581,127.39,241.417,123.93,228.648z"/>
</g>
<g id="Layer_7" display="none">
	<circle display="inline" fill="#E3D8B5" cx="286.372" cy="253.688" r="77.4"/>
	<g display="inline">
		<g>
			<g>
				<g>
					<g>
						<circle fill="#B39B6E" cx="353.377" cy="253.689" r="3.6"/>
						<circle fill="#B39B6E" cx="219.365" cy="253.689" r="3.6"/>
					</g>
					<g>
						<circle fill="#E3D8B5" cx="286.371" cy="320.694" r="1.26"/>
						<circle fill="#E3D8B5" cx="286.371" cy="186.682" r="1.26"/>
					</g>
				</g>
				<g>
					<g>
						<circle fill="#B39B6E" cx="333.751" cy="301.069" r="1.98"/>
						<circle fill="#B39B6E" cx="238.991" cy="206.308" r="1.98"/>
					</g>
					<g>
						<circle fill="#B39B6E" cx="238.991" cy="301.069" r="1.98"/>
						<circle fill="#B39B6E" cx="333.751" cy="206.309" r="1.98"/>
					</g>
				</g>
			</g>
			<g>
				<g>
					<g>
						<circle fill="#B39B6E" cx="348.276" cy="279.329" r="3.059"/>
						<circle fill="#B39B6E" cx="224.467" cy="228.045" r="3.059"/>
					</g>
					<g>
						<circle fill="#E3D8B5" cx="260.729" cy="315.593" r="1.26"/>
						<circle fill="#E3D8B5" cx="312.013" cy="191.782" r="1.259"/>
					</g>
				</g>
				<g>
					<g>
						<circle fill="#E3D8B5" cx="312.014" cy="315.593" r="1.26"/>
						<circle fill="#E3D8B5" cx="260.729" cy="191.782" r="1.259"/>
					</g>
					<g>
						<path fill="#B39B6E" d="M223.296,276.503c1.56-0.646,3.35,0.096,3.997,1.656c0.646,1.561-0.095,3.35-1.656,3.998
							c-1.561,0.645-3.351-0.096-3.998-1.658C220.993,278.94,221.735,277.149,223.296,276.503z"/>
						<circle fill="#B39B6E" cx="348.276" cy="228.045" r="3.059"/>
					</g>
				</g>
			</g>
		</g>
		<g>
			<g>
				<g>
					<g>
						<circle fill="#B39B6E" cx="352.089" cy="240.615" r="3.419"/>
						<circle fill="#B39B6E" cx="220.654" cy="266.76" r="3.42"/>
					</g>
					<g>
						<circle fill="#E3D8B5" cx="299.443" cy="319.407" r="1.26"/>
						<circle fill="#E3D8B5" cx="273.299" cy="187.97" r="1.259"/>
					</g>
				</g>
				<g>
					<g>
						<circle fill="#B39B6E" cx="342.084" cy="290.915" r="2.52"/>
						<circle fill="#B39B6E" cx="230.658" cy="216.462" r="2.519"/>
					</g>
					<g>
						<circle fill="#B39B6E" cx="249.145" cy="309.402" r="1.26"/>
						<circle fill="#B39B6E" cx="323.598" cy="197.976" r="1.26"/>
					</g>
				</g>
			</g>
			<g>
				<g>
					<g>
						<circle fill="#B39B6E" cx="352.089" cy="266.759" r="3.419"/>
						<circle fill="#B39B6E" cx="220.654" cy="240.615" r="3.419"/>
					</g>
					<g>
						<circle fill="#E3D8B5" cx="273.298" cy="319.405" r="1.26"/>
						<circle fill="#E3D8B5" cx="299.443" cy="187.969" r="1.26"/>
					</g>
				</g>
				<g>
					<g>
						<circle fill="#B39B6E" cx="323.598" cy="309.4" r="1.259"/>
						<circle fill="#B39B6E" cx="249.145" cy="197.974" r="1.26"/>
					</g>
					<g>
						<circle fill="#B39B6E" cx="230.658" cy="290.914" r="2.519"/>
						<circle fill="#B39B6E" cx="342.085" cy="216.46" r="2.52"/>
					</g>
				</g>
			</g>
		</g>
	</g>
	<g display="inline">
		<g>
			<path fill-rule="evenodd" clip-rule="evenodd" fill="#E3D8B5" d="M286.024,310.646c-10.993,0-20.771-3.429-26.155-9.171
				c-3.232-3.448-4.807-7.544-4.685-12.185c-12.669-8.438-20.079-25.324-19.379-44.291c0.853-23.142,18.642-43.378,41.378-47.072
				c3.233-0.525,6.465-0.792,9.606-0.792c17.928,0,33.449,8.511,42.584,23.35c9.624,15.633,10.149,35.316,1.405,52.652
				c-2.875,5.699-7.162,9.822-14.003,15.293c0.293,4.922-1.229,9.25-4.532,12.872C306.911,307.154,297.109,310.646,286.024,310.646z
				"/>
			<path fill="#B39B6E" d="M286.79,198.402c38.089-0.002,60.383,39.425,42.86,74.167c-2.945,5.838-7.61,10.064-14.186,15.291
				c1.334,14.392-14.049,21.521-29.44,21.521c-15.212,0-30.433-6.961-29.544-20.756c-12.648-8.043-20.106-24.725-19.411-43.579
				c0.855-23.213,18.68-42.355,40.317-45.87C280.612,198.653,283.753,198.402,286.79,198.402 M286.793,195.872v2.53V195.872
				c-3.213,0-6.513,0.272-9.812,0.808c-23.32,3.788-41.565,24.541-42.44,48.274c-0.705,19.12,6.689,36.203,19.375,45.004
				c0.051,4.654,1.774,8.909,5.03,12.383c5.619,5.993,15.742,9.57,27.078,9.57c11.435,0,21.586-3.646,27.154-9.755
				c3.343-3.667,5.018-8.185,4.888-13.138c6.691-5.386,10.936-9.548,13.843-15.31c8.942-17.731,8.397-37.876-1.459-53.886
				C321.079,204.602,305.167,195.872,286.793,195.872L286.793,195.872z"/>
		</g>
		<g>
			<path fill-rule="evenodd" clip-rule="evenodd" fill="#E3D8B5" d="M286.024,307.629c-11.118,0-20.95-3.412-26.301-9.127
				c-3.12-3.332-4.641-7.274-4.525-11.728c-12.669-8.244-20.078-24.741-19.378-43.271c0.854-22.61,18.639-42.379,41.37-45.985
				c3.231-0.513,6.461-0.772,9.6-0.772c18.23,0,33.889,8.543,42.961,23.438c9.235,15.163,9.612,34.16,1.01,50.817
				c-2.877,5.567-7.162,9.593-13.998,14.932c0.283,4.725-1.186,8.892-4.372,12.396C307.094,304.152,297.237,307.629,286.024,307.629
				z"/>
			<path fill="#B39B6E" d="M286.79,197.996c38.089-0.002,60.383,38.503,42.86,72.433c-2.945,5.699-7.61,9.828-14.186,14.932
				c1.334,14.056-14.049,21.019-29.44,21.019c-15.212,0-30.433-6.798-29.544-20.271c-12.648-7.855-20.106-24.146-19.411-42.558
				c0.855-22.67,18.68-41.365,40.317-44.798C280.612,198.241,283.753,197.996,286.79,197.996 M286.793,195.496v2.5V195.496
				c-3.208,0-6.504,0.265-9.798,0.788c-23.311,3.698-41.549,23.978-42.424,47.172c-0.706,18.689,6.688,35.385,19.375,43.987
				c0.058,4.465,1.724,8.558,4.864,11.913c5.583,5.963,15.756,9.522,27.214,9.522c11.559,0,21.761-3.629,27.291-9.709
				c3.224-3.544,4.842-7.893,4.723-12.646c6.683-5.255,10.925-9.318,13.833-14.947c8.805-17.048,8.41-36.503-1.054-52.042
				C321.514,204.257,305.467,195.496,286.793,195.496L286.793,195.496z"/>
		</g>
		<g>
			<path fill-rule="evenodd" clip-rule="evenodd" fill="#E3D8B5" d="M286.024,309.631c-11.118,0-20.95-3.412-26.301-9.127
				c-3.12-3.332-4.641-7.274-4.525-11.728c-12.669-8.244-20.078-24.741-19.378-43.271c0.854-22.61,18.639-42.379,41.37-45.985
				c3.231-0.513,6.461-0.772,9.6-0.772c18.23,0,33.889,8.543,42.961,23.438c9.235,15.163,9.612,34.16,1.01,50.817
				c-2.877,5.567-7.162,9.593-13.998,14.932c0.283,4.725-1.186,8.892-4.372,12.396C307.094,306.154,297.237,309.631,286.024,309.631
				z"/>
			<path fill="#B39B6E" d="M286.79,199.998c38.089-0.002,60.383,38.503,42.86,72.433c-2.945,5.699-7.61,9.828-14.186,14.932
				c1.334,14.056-14.049,21.019-29.44,21.019c-15.212,0-30.433-6.798-29.544-20.271c-12.648-7.855-20.106-24.146-19.411-42.558
				c0.855-22.67,18.68-41.365,40.317-44.798C280.612,200.243,283.753,199.998,286.79,199.998 M286.793,197.498v2.5V197.498
				c-3.208,0-6.504,0.265-9.798,0.788c-23.311,3.698-41.549,23.978-42.424,47.172c-0.706,18.689,6.688,35.385,19.375,43.987
				c0.058,4.465,1.724,8.558,4.864,11.913c5.583,5.963,15.756,9.522,27.214,9.522c11.559,0,21.761-3.629,27.291-9.709
				c3.224-3.544,4.842-7.893,4.723-12.646c6.683-5.255,10.925-9.318,13.833-14.947c8.805-17.048,8.41-36.503-1.054-52.042
				C321.514,206.259,305.467,197.498,286.793,197.498L286.793,197.498z"/>
		</g>
		<g>
			<path fill-rule="evenodd" clip-rule="evenodd" fill="#E3D8B5" d="M315.465,287.362c2.652,27.947-60.772,27.852-58.984,0.748
				c-12.648-7.855-20.106-24.146-19.411-42.558c0.855-22.67,18.68-41.365,40.317-44.798c43.68-6.929,71.184,35.04,52.264,71.676
				C326.705,278.13,322.04,282.259,315.465,287.362z"/>
		</g>
		<g>
			<path fill="#B39B6E" d="M328.54,257.66c0-3.113-2.522-5.637-5.636-5.637c-0.223,0-0.44,0.016-0.657,0.041
				c0.172-0.133,0.337-0.277,0.494-0.434c2.201-2.201,2.201-5.77,0-7.971s-5.771-2.201-7.972-0.002
				c-0.157,0.158-0.3,0.322-0.434,0.492c0.025-0.215,0.041-0.432,0.041-0.654c0-3.113-2.523-5.637-5.637-5.637
				s-5.637,2.523-5.637,5.637c0,0.223,0.016,0.439,0.041,0.656c-0.134-0.17-0.277-0.336-0.435-0.494
				c-2.2-2.199-5.77-2.199-7.972,0.002c-2.2,2.201-2.2,5.77,0,7.971c0.158,0.156,0.322,0.299,0.493,0.434
				c-0.216-0.025-0.434-0.041-0.655-0.041c-3.113,0-5.636,2.523-5.636,5.637s2.522,5.637,5.636,5.637
				c0.222,0,0.439-0.016,0.655-0.041c-0.171,0.135-0.335,0.277-0.493,0.435c-2.2,2.199-2.2,5.77,0.001,7.973
				c2.201,2.199,5.771,2.199,7.971,0c0.157-0.158,0.3-0.324,0.435-0.494c-0.025,0.215-0.041,0.434-0.041,0.654
				c0,3.113,2.523,5.637,5.637,5.637s5.637-2.523,5.637-5.637c0-0.221-0.016-0.439-0.041-0.652c0.134,0.17,0.276,0.334,0.434,0.492
				c2.201,2.199,5.771,2.199,7.972,0c2.201-2.203,2.201-5.773,0-7.973c-0.157-0.157-0.322-0.3-0.494-0.435
				c0.217,0.025,0.435,0.041,0.657,0.041C326.018,263.297,328.54,260.773,328.54,257.66z"/>
			<circle fill="#E3D8B5" cx="308.74" cy="257.66" r="12.811"/>
		</g>
		<g>
			<path fill="#B39B6E" d="M282.684,257.66c0-3.113-2.523-5.637-5.637-5.637c-0.223,0-0.44,0.016-0.655,0.041
				c0.169-0.133,0.335-0.277,0.491-0.434c2.203-2.201,2.203-5.77,0-7.971c-2.2-2.201-5.77-2.201-7.97,0
				c-0.157,0.156-0.3,0.32-0.434,0.49c0.024-0.215,0.041-0.432,0.041-0.652c0-3.114-2.524-5.638-5.638-5.638
				s-5.636,2.523-5.636,5.638c0,0.221,0.017,0.439,0.041,0.654c-0.134-0.17-0.277-0.336-0.435-0.492
				c-2.201-2.201-5.771-2.201-7.972,0c-2.2,2.201-2.2,5.77,0,7.971c0.157,0.156,0.322,0.299,0.492,0.434
				c-0.215-0.025-0.432-0.041-0.654-0.041c-3.113,0-5.637,2.523-5.637,5.637s2.523,5.637,5.637,5.637
				c0.223,0,0.439-0.016,0.654-0.041c-0.17,0.135-0.335,0.277-0.492,0.435c-2.2,2.199-2.2,5.77,0.001,7.971
				c2.2,2.201,5.77,2.201,7.971,0c0.157-0.156,0.3-0.324,0.435-0.492c-0.024,0.215-0.041,0.432-0.041,0.654
				c0,3.113,2.522,5.637,5.636,5.637s5.638-2.523,5.638-5.637c0-0.221-0.017-0.439-0.041-0.652c0.134,0.168,0.276,0.334,0.434,0.49
				c2.2,2.201,5.77,2.201,7.97,0c2.203-2.201,2.203-5.771,0-7.971c-0.156-0.157-0.322-0.3-0.491-0.435
				c0.215,0.025,0.433,0.041,0.655,0.041C280.16,263.297,282.684,260.773,282.684,257.66z"/>
			<circle fill="#E3D8B5" cx="262.883" cy="257.66" r="12.81"/>
		</g>
		<g>
			<ellipse fill-rule="evenodd" clip-rule="evenodd" fill="#B39B6E" cx="289.828" cy="295.532" rx="3.599" ry="3.764"/>
			<ellipse fill-rule="evenodd" clip-rule="evenodd" fill="#B39B6E" cx="289.828" cy="291.052" rx="3.599" ry="3.764"/>
			<rect x="286.229" y="291.021" fill-rule="evenodd" clip-rule="evenodd" fill="#B39B6E" width="7.2" height="4.52"/>
		</g>
		<g>
			<ellipse fill-rule="evenodd" clip-rule="evenodd" fill="#B39B6E" cx="281.227" cy="295.532" rx="3.6" ry="3.764"/>
			<ellipse fill-rule="evenodd" clip-rule="evenodd" fill="#B39B6E" cx="281.227" cy="291.052" rx="3.6" ry="3.764"/>
			<rect x="277.627" y="291.021" fill-rule="evenodd" clip-rule="evenodd" fill="#B39B6E" width="7.2" height="4.52"/>
		</g>
		<g>
			<ellipse fill-rule="evenodd" clip-rule="evenodd" fill="#B39B6E" cx="298.072" cy="294.54" rx="3.24" ry="3.406"/>
			<ellipse fill-rule="evenodd" clip-rule="evenodd" fill="#B39B6E" cx="298.072" cy="290.485" rx="3.24" ry="3.406"/>
			<rect x="294.832" y="290.458" fill-rule="evenodd" clip-rule="evenodd" fill="#B39B6E" width="6.48" height="4.088"/>
		</g>
		<g>
			<ellipse fill-rule="evenodd" clip-rule="evenodd" fill="#B39B6E" cx="272.983" cy="294.54" rx="3.24" ry="3.406"/>
			<ellipse fill-rule="evenodd" clip-rule="evenodd" fill="#B39B6E" cx="272.983" cy="290.485" rx="3.24" ry="3.406"/>
			<rect x="269.743" y="290.458" fill-rule="evenodd" clip-rule="evenodd" fill="#B39B6E" width="6.48" height="4.088"/>
		</g>
		<g>
			<ellipse fill-rule="evenodd" clip-rule="evenodd" fill="#B39B6E" cx="305.304" cy="292.788" rx="2.52" ry="2.752"/>
			<ellipse fill-rule="evenodd" clip-rule="evenodd" fill="#B39B6E" cx="305.304" cy="289.513" rx="2.52" ry="2.752"/>
			<rect x="302.784" y="289.489" fill-rule="evenodd" clip-rule="evenodd" fill="#B39B6E" width="5.04" height="3.305"/>
		</g>
		<g>
			<ellipse fill-rule="evenodd" clip-rule="evenodd" fill="#B39B6E" cx="265.751" cy="292.788" rx="2.52" ry="2.752"/>
			<ellipse fill-rule="evenodd" clip-rule="evenodd" fill="#B39B6E" cx="265.751" cy="289.513" rx="2.52" ry="2.752"/>
			<rect x="263.231" y="289.489" fill-rule="evenodd" clip-rule="evenodd" fill="#B39B6E" width="5.04" height="3.305"/>
		</g>
		<g>
			<g>
				<circle fill="#B39B6E" cx="295.103" cy="225.379" r="2.426"/>
				<circle fill="#B39B6E" cx="276.064" cy="225.564" r="2.426"/>
			</g>
			<g>
				<g>
					<path fill="#B39B6E" d="M293.518,212.24c0-1.568-1.03-3.182-3.413-3.139c-2.498,0.045-3.812,1.795-4.47,2.152
						c-0.866-0.492-2.257-2.307-4.752-2.195c-3.002,0.135-3.405,2.957-3.181,3.943c0.358,3.764,6.361,7.885,7.933,8.658
						C287.251,220.723,293.429,216.229,293.518,212.24z"/>
				</g>
				<path fill="#B39B6E" d="M289.876,237.562c0,2.371-1.922,4.293-4.293,4.293s-4.293-1.922-4.293-4.293
					c0-5.299,3.732-9.893,4.105-9.893C285.813,227.67,289.876,232.443,289.876,237.562z"/>
			</g>
		</g>
		<g>
			<g>
				<path fill="#B39B6E" d="M316.631,225.34c0.129,0.846-0.105,1.709-0.532,2.402c-1.034,1.682-4.74,2.311-6.526-0.402
					c-4.147-6.303-6.684-4.582-6.786-5.447c-0.079-0.67,1.169-0.91,2.134-1.066C310.004,219.998,315.946,220.85,316.631,225.34z"/>
				<path fill="#B39B6E" d="M254.535,225.34c-0.129,0.846,0.106,1.709,0.532,2.402c1.034,1.682,4.74,2.311,6.526-0.402
					c4.147-6.303,6.684-4.582,6.786-5.447c0.079-0.67-1.168-0.91-2.134-1.066C261.162,219.998,255.22,220.85,254.535,225.34z"/>
			</g>
			<g>
				<path fill="#B39B6E" d="M307.508,211.969c0.855,1.002,0.539,2.783-1.096,3.307c-2.863,0.918-3.363,2.25-3.841,2.07
					c-0.371-0.143-0.332-0.859-0.285-1.406c0.163-1.967,0.759-3.58,1.933-4.387C305.537,210.646,306.832,211.182,307.508,211.969z"
					/>
				<path fill="#B39B6E" d="M263.894,211.969c-0.856,1.002-0.539,2.783,1.096,3.307c2.863,0.918,3.362,2.25,3.841,2.07
					c0.371-0.143,0.331-0.859,0.285-1.406c-0.164-1.967-0.759-3.58-1.934-4.387C265.863,210.646,264.568,211.182,263.894,211.969z"
					/>
			</g>
		</g>
		<g>
			<path fill="#B39B6E" d="M279.842,278.81c0,1.113,0.734,2.262,2.428,2.23c1.778-0.031,2.713-1.275,3.182-1.531
				c0.615,0.352,1.605,1.643,3.379,1.562c2.136-0.096,2.422-2.104,2.264-2.805c-0.256-2.678-4.526-5.609-5.643-6.158
				C284.301,272.774,279.906,275.974,279.842,278.81z"/>
		</g>
		<path fill="none" stroke="#E3D8B5" stroke-width="1.3439" d="M309.368,290.872c-11.081,3.395-36.7,4.426-48.617-0.379"/>
	</g>
</g>
<g id="Layer_3" display="none">
	<g display="inline">
		<path fill="#B49C6E" d="M85.383,292.987c-6.736,0-12.941-3.065-17.026-8.411l-3.731-4.886l-3.465,4.58
			c-4.083,5.397-10.312,8.491-17.087,8.491c-4.688,0-9.147-1.497-12.896-4.333c-9.412-7.12-11.278-20.571-4.159-29.983l2.859-3.781
			l-4.119-1.412c-5.409-1.852-9.772-5.703-12.285-10.838c-2.514-5.136-2.876-10.941-1.021-16.351
			c2.966-8.654,11.102-14.469,20.245-14.469c2.358,0,4.694,0.392,6.944,1.163l4.097,1.404v-3.953
			c0-11.803,9.602-21.404,21.405-21.404c11.803,0,21.405,9.602,21.405,21.404v6.332l5.718-1.549
			c1.837-0.498,3.726-0.751,5.611-0.751c9.634,0,18.125,6.502,20.649,15.81c3.086,11.394-3.67,23.172-15.061,26.26l-2.346,0.635
			l1.258,1.648c3.472,4.541,4.965,10.165,4.205,15.831c-0.76,5.667-3.68,10.699-8.225,14.169c-3.764,2.875-8.25,4.396-12.974,4.396
			C85.384,292.987,85.384,292.987,85.383,292.987z"/>
		<path fill="#B49C6E" d="M65.143,189.804c11.269,0,20.405,9.136,20.405,20.404v7.638l6.981-1.89
			c1.787-0.485,3.582-0.716,5.349-0.716c8.987,0,17.22,5.983,19.685,15.072c2.946,10.875-3.481,22.084-14.357,25.031l-3.782,1.023
			l2.161,2.83c6.842,8.955,5.125,21.761-3.832,28.602c-3.697,2.823-8.049,4.188-12.368,4.188c-6.141,0-12.214-2.762-16.231-8.019
			l-4.53-5.934l-4.259,5.633c-4.013,5.303-10.114,8.096-16.29,8.096c-4.288,0-8.61-1.348-12.293-4.133
			c-8.987-6.799-10.763-19.594-3.964-28.582l3.693-4.883l-5.426-1.859c-10.661-3.653-16.341-15.258-12.686-25.918
			c2.903-8.468,10.822-13.794,19.299-13.794c2.195,0,4.427,0.358,6.62,1.109l5.421,1.857v-5.353
			C44.738,198.94,53.874,189.804,65.143,189.804 M65.143,187.803c-12.354,0-22.405,10.05-22.405,22.405v2.554l-2.772-0.951
			c-2.354-0.806-4.799-1.216-7.268-1.216c-9.57,0-18.087,6.086-21.191,15.146c-1.941,5.66-1.562,11.738,1.069,17.115
			c2.631,5.373,7.198,9.404,12.859,11.344l2.812,0.965l-2.026,2.678c-7.451,9.852-5.499,23.93,4.353,31.384
			c3.924,2.969,8.593,4.537,13.5,4.537c7.092,0,13.611-3.24,17.885-8.89l2.671-3.529l2.932,3.839
			c4.276,5.595,10.771,8.806,17.821,8.806c4.946,0,9.644-1.591,13.583-4.601c4.757-3.634,7.814-8.899,8.609-14.831
			s-0.769-11.818-4.402-16.573l-0.354-0.462l0.907-0.247c11.924-3.231,18.996-15.561,15.767-27.486
			c-2.645-9.743-11.532-16.549-21.616-16.549c-1.974,0-3.95,0.264-5.873,0.786l-4.456,1.206v-5.023
			C87.548,197.853,77.497,187.803,65.143,187.803L65.143,187.803z"/>
	</g>
	<path display="inline" fill="#E3D8B5" d="M117.562,230.312c-2.95-10.877-14.157-17.305-25.033-14.356l-6.981,1.89v-7.638
		c0-11.268-9.136-20.404-20.405-20.404s-20.405,9.136-20.405,20.404v5.353l-5.421-1.857c-10.661-3.654-22.265,2.024-25.919,12.685
		c-3.655,10.66,2.025,22.265,12.686,25.918l5.426,1.859l-3.693,4.883c-6.798,8.988-5.023,21.783,3.964,28.582
		s21.784,5.023,28.583-3.963l4.259-5.633l4.53,5.934c6.841,8.955,19.646,10.668,28.599,3.83c8.957-6.841,10.674-19.646,3.832-28.602
		l-2.161-2.83l3.782-1.023C114.08,252.396,120.508,241.188,117.562,230.312z"/>
	<g display="inline">
		<g>
			<path fill="#B49C6E" d="M65.088,253.207c-4.911,0-8.906-3.995-8.906-8.907c0-4.911,3.995-8.906,8.906-8.906
				c4.912,0,8.907,3.995,8.907,8.906C73.995,249.212,70,253.207,65.088,253.207z M65.088,238.632c-3.125,0-5.667,2.544-5.667,5.668
				c0,3.125,2.542,5.668,5.667,5.668c3.125,0,5.668-2.543,5.668-5.668C70.756,241.176,68.213,238.632,65.088,238.632z"/>
		</g>
		<g>
			<g>
				<path fill="#B49C6E" d="M64.396,256.991c0.033-0.501,0.493-0.767,1.004-0.799l0,0c0.491,0.021,0.946,0.345,0.979,0.845
					c0.015,0.22,0.647,9.131,0.647,9.131c0,0.87-0.727,1.575-1.625,1.575l0,0c-0.898,0-1.627-0.705-1.627-1.575
					C63.773,266.168,64.382,257.211,64.396,256.991z"/>
				<path fill="#E3D8B5" d="M65.4,267.852c-0.957,0-1.734-0.756-1.734-1.684c0-0.008,0.608-8.964,0.623-9.184
					c0.033-0.506,0.466-0.859,1.104-0.899c0.52,0.02,1.054,0.352,1.093,0.944c0.014,0.218,0.64,9.042,0.646,9.131
					C67.133,267.096,66.356,267.852,65.4,267.852z M65.396,256.301c-0.386,0.025-0.861,0.223-0.893,0.698
					c-0.014,0.217-0.623,9.177-0.623,9.177c0,0.802,0.682,1.46,1.519,1.46c0.837,0,1.518-0.658,1.518-1.468
					c-0.006-0.082-0.632-8.906-0.647-9.123C66.241,256.578,65.808,256.317,65.396,256.301z"/>
			</g>
			<g>
				<circle fill="#B49C6E" cx="65.4" cy="271.935" r="2.142"/>
				<path fill="#E3D8B5" d="M65.4,274.185c-1.241,0-2.25-1.009-2.25-2.25s1.009-2.25,2.25-2.25c1.24,0,2.25,1.009,2.25,2.25
					S66.64,274.185,65.4,274.185z M65.4,269.9c-1.122,0-2.034,0.913-2.034,2.034s0.913,2.033,2.034,2.033
					c1.121,0,2.034-0.912,2.034-2.033S66.521,269.9,65.4,269.9z"/>
			</g>
		</g>
		<g>
			<g>
				<path fill="#B49C6E" d="M52.727,247.388c0.488-0.116,0.877,0.244,1.061,0.722l0,0c0.126,0.476-0.049,1.006-0.518,1.187
					c-0.206,0.078-8.529,3.324-8.529,3.324c-0.831,0.257-1.72-0.229-1.986-1.084l0,0c-0.266-0.86,0.192-1.765,1.023-2.022
					C43.778,249.514,52.513,247.441,52.727,247.388z"/>
				<path fill="#E3D8B5" d="M44.287,252.798c-0.738,0-1.411-0.506-1.636-1.229c-0.283-0.915,0.208-1.883,1.094-2.157
					c0.095-0.023,8.744-2.076,8.956-2.127c0.489-0.116,0.963,0.201,1.187,0.787c0.134,0.503-0.025,1.112-0.58,1.325
					c-0.203,0.077-8.445,3.292-8.528,3.324C44.614,252.771,44.452,252.798,44.287,252.798z M52.91,247.474
					c-0.052,0-0.105,0.007-0.158,0.02c-0.211,0.053-8.862,2.105-8.949,2.126c-0.766,0.236-1.193,1.085-0.945,1.886
					c0.197,0.633,0.785,1.076,1.429,1.076c0.143,0,0.285-0.021,0.422-0.064c0.076-0.029,8.319-3.244,8.523-3.321
					c0.435-0.168,0.557-0.659,0.45-1.059C53.562,247.822,53.292,247.474,52.91,247.474z"/>
			</g>
			<g>
				<circle fill="#B49C6E" cx="38.751" cy="252.776" r="2.142"/>
				<path fill="#E3D8B5" d="M38.75,255.026c-0.99,0-1.853-0.636-2.147-1.583c-0.178-0.574-0.123-1.183,0.158-1.715
					c0.28-0.531,0.75-0.923,1.324-1.102c0.218-0.067,0.442-0.102,0.668-0.102c0.99,0,1.854,0.637,2.147,1.583
					c0.178,0.575,0.122,1.185-0.158,1.717c-0.28,0.531-0.75,0.922-1.324,1.1C39.201,254.991,38.976,255.026,38.75,255.026z
					 M38.753,250.741c-0.204,0-0.408,0.031-0.604,0.093c-0.519,0.16-0.944,0.514-1.197,0.996c-0.253,0.48-0.304,1.03-0.143,1.549
					c0.266,0.855,1.046,1.432,1.941,1.432c0.204,0,0.407-0.031,0.604-0.092c0.518-0.161,0.943-0.514,1.197-0.995
					c0.253-0.48,0.304-1.03,0.143-1.551C40.428,251.316,39.648,250.741,38.753,250.741z"/>
			</g>
		</g>
		<g>
			<g>
				<path fill="#B49C6E" d="M57.972,233.7c0.274,0.419,0.067,0.906-0.321,1.241l0,0c-0.405,0.278-0.963,0.294-1.29-0.087
					c-0.144-0.167-6.012-6.902-6.012-6.902c-0.523-0.695-0.367-1.695,0.35-2.237l0,0c0.718-0.54,1.724-0.414,2.248,0.28
					C52.947,225.995,57.851,233.516,57.972,233.7z"/>
				<path fill="#E3D8B5" d="M57.016,235.254c-0.292,0-0.554-0.117-0.736-0.328c-0.143-0.166-5.952-6.836-6.011-6.903
					c-0.562-0.747-0.396-1.818,0.366-2.393c0.31-0.234,0.677-0.358,1.061-0.358c0.535,0,1.022,0.239,1.338,0.659
					c0.053,0.08,4.909,7.527,5.029,7.709c0.277,0.425,0.144,0.966-0.34,1.384C57.503,235.175,57.255,235.254,57.016,235.254z
					 M51.695,225.487c-0.336,0-0.658,0.108-0.931,0.315c-0.667,0.503-0.814,1.438-0.329,2.084c0.054,0.062,5.865,6.731,6.007,6.897
					c0.18,0.21,0.411,0.254,0.573,0.254c0.197,0,0.4-0.066,0.575-0.186c0.306-0.266,0.551-0.697,0.291-1.094
					c-0.119-0.182-4.975-7.629-5.024-7.704C52.587,225.696,52.162,225.487,51.695,225.487z"/>
			</g>
			<g>
				<circle fill="#B49C6E" cx="48.178" cy="222.367" r="2.142"/>
				<path fill="#E3D8B5" d="M48.18,224.617c-0.713,0-1.37-0.326-1.799-0.896c-0.746-0.99-0.546-2.402,0.443-3.15
					c0.394-0.296,0.86-0.452,1.352-0.452c0.714,0,1.371,0.326,1.8,0.896c0.746,0.991,0.547,2.404-0.444,3.151
					C49.139,224.461,48.671,224.617,48.18,224.617z M48.176,220.333c-0.443,0-0.867,0.142-1.221,0.41
					c-0.895,0.676-1.075,1.953-0.401,2.848c0.389,0.516,0.981,0.812,1.626,0.812c0.444,0,0.867-0.143,1.222-0.411
					c0.896-0.674,1.076-1.951,0.402-2.848C49.416,220.628,48.822,220.333,48.176,220.333z"/>
			</g>
		</g>
		<g>
			<g>
				<path fill="#B49C6E" d="M73.449,234.669c-0.333,0.374-0.859,0.301-1.282,0.011l0,0c-0.374-0.316-0.533-0.853-0.251-1.268
					c0.125-0.183,5.111-7.594,5.111-7.594c0.536-0.686,1.543-0.793,2.252-0.241l0,0c0.708,0.554,0.847,1.558,0.31,2.244
					C79.589,227.821,73.594,234.505,73.449,234.669z"/>
				<path fill="#E3D8B5" d="M72.873,235.032c-0.248,0-0.52-0.094-0.767-0.264c-0.454-0.383-0.57-0.989-0.28-1.417
					c0.124-0.18,5.062-7.52,5.111-7.594c0.32-0.41,0.801-0.642,1.323-0.642c0.389,0,0.774,0.133,1.085,0.376
					c0.374,0.292,0.61,0.709,0.667,1.171c0.053,0.442-0.066,0.878-0.338,1.225c-0.064,0.072-6,6.69-6.145,6.852
					C73.36,234.932,73.133,235.032,72.873,235.032z M78.26,225.332c-0.455,0-0.874,0.202-1.148,0.553
					c-0.046,0.068-4.983,7.408-5.107,7.589c-0.262,0.387-0.082,0.857,0.232,1.123c0.203,0.139,0.433,0.22,0.636,0.22
					c0.198,0,0.366-0.075,0.496-0.22c0.143-0.161,6.08-6.781,6.14-6.849c0.232-0.295,0.336-0.673,0.289-1.059
					c-0.049-0.406-0.257-0.771-0.585-1.027C78.935,225.446,78.606,225.332,78.26,225.332z"/>
			</g>
			<g>
				<circle fill="#B49C6E" cx="81.86" cy="222.275" r="2.142"/>
				<path fill="#E3D8B5" d="M81.858,224.526c-0.506,0-0.985-0.166-1.384-0.479c-0.977-0.764-1.15-2.181-0.387-3.158
					c0.429-0.549,1.076-0.863,1.774-0.863c0.505,0,0.984,0.165,1.384,0.477c0.977,0.763,1.15,2.18,0.388,3.158
					C83.203,224.21,82.557,224.526,81.858,224.526z M81.861,220.242c-0.632,0-1.217,0.285-1.604,0.78
					c-0.69,0.885-0.533,2.165,0.35,2.855c0.361,0.283,0.794,0.432,1.251,0.432c0.631,0,1.216-0.284,1.604-0.781
					c0.69-0.884,0.532-2.166-0.35-2.855C82.751,220.392,82.318,220.242,81.861,220.242z"/>
			</g>
		</g>
		<g>
			<g>
				<path fill="#B49C6E" d="M76.989,248.789c-0.467-0.183-0.579-0.703-0.456-1.2l0,0c0.167-0.46,0.615-0.794,1.103-0.675
					c0.214,0.055,8.896,2.161,8.896,2.161c0.828,0.264,1.278,1.17,1.006,2.026l0,0c-0.274,0.855-1.168,1.335-1.997,1.069
					C85.541,252.171,77.193,248.868,76.989,248.789z"/>
				<path fill="#E3D8B5" d="M86.008,252.352c-0.169,0-0.337-0.025-0.5-0.078c-0.09-0.035-8.356-3.306-8.559-3.384
					c-0.471-0.184-0.675-0.705-0.521-1.326c0.201-0.554,0.731-0.882,1.233-0.754c0.212,0.054,8.808,2.139,8.896,2.16
					c0.89,0.283,1.372,1.254,1.084,2.165C87.408,251.863,86.75,252.352,86.008,252.352z M77.438,246.997
					c-0.343,0-0.666,0.254-0.803,0.629c-0.093,0.377-0.048,0.891,0.393,1.062c0.203,0.078,8.469,3.349,8.553,3.382
					c0.134,0.043,0.281,0.065,0.427,0.065c0.649,0,1.223-0.429,1.427-1.066c0.252-0.797-0.167-1.646-0.936-1.892
					c-0.347-0.085-8.679-2.104-8.89-2.159C77.553,247.005,77.495,246.997,77.438,246.997z"/>
			</g>
			<g>
				<circle fill="#B49C6E" cx="91.531" cy="252.376" r="2.143"/>
				<path fill="#E3D8B5" d="M91.529,254.626c-0.231,0-0.461-0.035-0.683-0.105c-0.573-0.183-1.04-0.577-1.316-1.111
					c-0.275-0.534-0.326-1.143-0.143-1.715c0.299-0.938,1.161-1.569,2.143-1.569c0.232,0,0.463,0.036,0.686,0.107
					c1.18,0.378,1.834,1.647,1.459,2.829C93.374,253.997,92.513,254.626,91.529,254.626z M91.53,250.341
					c-0.889,0-1.667,0.57-1.938,1.419c-0.166,0.517-0.12,1.068,0.129,1.551c0.25,0.482,0.672,0.839,1.191,1.005
					c0.2,0.063,0.407,0.096,0.616,0.096c0.89,0,1.669-0.569,1.94-1.416c0.338-1.067-0.254-2.215-1.32-2.557
					C91.948,250.374,91.739,250.341,91.53,250.341z"/>
			</g>
		</g>
		<g>
			<path fill="#B49C6E" d="M66.734,230.891c-0.044,0.688-0.656,1.052-1.334,1.096l0,0c-0.655-0.028-1.257-0.472-1.301-1.157
				c-0.019-0.302-0.86-12.517-0.86-12.517c0-1.193,0.967-2.16,2.161-2.16l0,0c1.193,0,2.161,0.967,2.161,2.16
				C67.561,218.312,66.752,230.591,66.734,230.891z"/>
			<path fill="#E3D8B5" d="M65.403,232.312h-0.019c-0.88-0.039-1.557-0.653-1.609-1.462c-0.019-0.301-0.859-12.515-0.859-12.515
				c-0.001-1.393,1.114-2.507,2.484-2.507s2.485,1.114,2.485,2.484c0,0.021-0.809,12.3-0.828,12.6
				c-0.05,0.786-0.692,1.335-1.636,1.398L65.403,232.312z M63.562,218.312c0-0.001,0.841,12.195,0.859,12.497
				c0.034,0.526,0.513,0.826,0.975,0.853c0.472-0.036,0.98-0.262,1.014-0.792c0.019-0.299,0.827-12.579,0.827-12.579
				c0-0.99-0.825-1.814-1.838-1.814S63.562,217.301,63.562,218.312L63.562,218.312z"/>
		</g>
		<g>
			<path fill="#B49C6E" d="M78.346,241.886c-0.668,0.16-1.197-0.313-1.441-0.948l0,0c-0.166-0.635,0.079-1.342,0.719-1.585
				c0.283-0.109,11.698-4.533,11.698-4.533c1.142-0.354,2.351,0.283,2.705,1.423l0,0c0.353,1.14-0.282,2.351-1.423,2.705
				C90.604,238.947,78.638,241.814,78.346,241.886z"/>
			<path fill="#E3D8B5" d="M78.087,242.241c-0.633,0-1.203-0.455-1.484-1.188c-0.234-0.888,0.151-1.717,0.906-2.004
				c0.283-0.108,11.697-4.533,11.697-4.533c1.408-0.438,2.732,0.346,3.132,1.63c0.195,0.634,0.135,1.307-0.174,1.894
				c-0.31,0.587-0.829,1.02-1.463,1.216c-0.02,0.006-11.985,2.873-12.278,2.945C78.31,242.228,78.197,242.241,78.087,242.241z
				 M89.418,235.129c0.002,0-11.396,4.417-11.678,4.524c-0.5,0.191-0.641,0.749-0.522,1.201c0.151,0.387,0.539,0.841,1.052,0.717
				c0.292-0.071,12.259-2.94,12.259-2.94c0.448-0.14,0.832-0.458,1.06-0.893c0.229-0.434,0.273-0.931,0.129-1.4
				C91.423,235.39,90.38,234.828,89.418,235.129z"/>
		</g>
		<g>
			<path fill="#B49C6E" d="M71.811,255.951c-0.377-0.575-0.108-1.232,0.407-1.678l0,0c0.539-0.372,1.287-0.38,1.734,0.142
				c0.198,0.229,8.22,9.478,8.22,9.478c0.718,0.953,0.527,2.309-0.425,3.026l0,0c-0.954,0.72-2.309,0.529-3.027-0.424
				C78.72,266.495,71.976,256.202,71.811,255.951z"/>
			<path fill="#E3D8B5" d="M80.446,267.679c-0.788,0-1.512-0.36-1.984-0.988c-0.013-0.017-6.756-10.311-6.921-10.562
				c-0.432-0.657-0.25-1.48,0.465-2.1c0.756-0.527,1.68-0.421,2.192,0.176c0.197,0.229,8.219,9.478,8.219,9.478
				c0.837,1.11,0.619,2.671-0.476,3.496C81.506,267.506,80.989,267.679,80.446,267.679z M73.049,254.331
				c-0.223,0-0.453,0.074-0.648,0.209c-0.333,0.291-0.614,0.784-0.319,1.232c0.166,0.251,6.91,10.545,6.91,10.545
				c0.569,0.756,1.769,0.938,2.561,0.343c0.809-0.609,0.97-1.764,0.361-2.571l0,0c-0.001,0-8.01-9.233-8.207-9.463
				C73.498,254.383,73.234,254.331,73.049,254.331z"/>
		</g>
		<g>
			<path fill="#B49C6E" d="M55.54,253.796c0.454-0.514,1.162-0.424,1.724-0.041l0,0c0.499,0.425,0.699,1.146,0.312,1.711
				c-0.171,0.252-7.028,10.395-7.028,10.395c-0.735,0.939-2.093,1.106-3.032,0.371l0,0c-0.943-0.734-1.109-2.093-0.375-3.032
				C47.143,263.199,55.34,254.021,55.54,253.796z"/>
			<path fill="#E3D8B5" d="M48.845,267.014c-0.559,0-1.087-0.182-1.528-0.527c-0.523-0.407-0.856-0.995-0.938-1.653
				c-0.081-0.659,0.1-1.311,0.508-1.834c0.014-0.016,8.21-9.192,8.41-9.417c0.508-0.575,1.398-0.606,2.149-0.095
				c0.699,0.593,0.855,1.493,0.398,2.162c-0.17,0.25-7.027,10.394-7.027,10.394C50.33,266.667,49.616,267.014,48.845,267.014z
				 M56.337,253.763c-0.222,0-0.41,0.083-0.555,0.248c-0.2,0.225-8.398,9.404-8.398,9.404c-0.289,0.37-0.422,0.851-0.362,1.338
				s0.306,0.922,0.694,1.224c0.776,0.607,1.972,0.457,2.578-0.315c-0.001,0.001,6.844-10.126,7.015-10.376
				c0.303-0.444,0.101-0.981-0.254-1.284C56.836,253.855,56.571,253.763,56.337,253.763z"/>
		</g>
		<g>
			<path fill="#B49C6E" d="M52.835,238.63c0.64,0.249,0.799,0.944,0.637,1.601l0,0c-0.226,0.617-0.832,1.056-1.497,0.891
				c-0.294-0.075-12.186-2.986-12.186-2.986c-1.137-0.362-1.765-1.577-1.401-2.715l0,0c0.362-1.139,1.579-1.766,2.714-1.403
				C41.103,234.017,52.555,238.521,52.835,238.63z"/>
			<path fill="#E3D8B5" d="M52.258,241.479c-0.12,0-0.241-0.015-0.36-0.043c-0.291-0.075-12.066-2.958-12.186-2.986
				c-0.654-0.208-1.169-0.644-1.474-1.234c-0.304-0.589-0.36-1.262-0.158-1.895c0.33-1.035,1.281-1.731,2.366-1.731
				c0.255,0,0.51,0.04,0.755,0.118l11.753,4.621c0.722,0.28,1.057,1.076,0.833,1.98C53.528,241.022,52.918,241.479,52.258,241.479z
				 M40.446,234.237c-0.803,0-1.505,0.515-1.749,1.28c-0.149,0.468-0.108,0.966,0.117,1.402c0.226,0.436,0.607,0.758,1.074,0.906
				c0.465,0.113,11.876,2.906,12.168,2.982c0.44,0.108,0.93-0.188,1.112-0.689c0.104-0.429,0.05-0.993-0.449-1.187l-11.735-4.614
				C40.822,234.268,40.634,234.237,40.446,234.237z"/>
		</g>
	</g>
</g>
</svg>
