<?xml version="1.0" encoding="utf-8"?>
<!-- Generator: Adobe Illustrator 15.1.0, SVG Export Plug-In . SVG Version: 6.00 Build 0)  -->
<!DOCTYPE svg PUBLIC "-//W3C//DTD SVG 1.1//EN" "http://www.w3.org/Graphics/SVG/1.1/DTD/svg11.dtd" [
	<!ENTITY ns_flows "http://ns.adobe.com/Flows/1.0/">
	<!ENTITY ns_extend "http://ns.adobe.com/Extensibility/1.0/">
	<!ENTITY ns_ai "http://ns.adobe.com/AdobeIllustrator/10.0/">
	<!ENTITY ns_graphs "http://ns.adobe.com/Graphs/1.0/">
	<!ENTITY ns_vars "http://ns.adobe.com/Variables/1.0/">
	<!ENTITY ns_imrep "http://ns.adobe.com/ImageReplacement/1.0/">
	<!ENTITY ns_sfw "http://ns.adobe.com/SaveForWeb/1.0/">
	<!ENTITY ns_custom "http://ns.adobe.com/GenericCustomNamespace/1.0/">
	<!ENTITY ns_adobe_xpath "http://ns.adobe.com/XPath/1.0/">
]>
<svg version="1.1"
	 xmlns:x="&ns_extend;" xmlns:i="&ns_ai;" xmlns:graph="&ns_graphs;" i:viewOrigin="527.5068 -84.4121" i:rulerOrigin="-527.5068 205.748" i:pageBounds="527.5068 -84.4121 655.1885 -205.748"
	 xmlns="http://www.w3.org/2000/svg" xmlns:xlink="http://www.w3.org/1999/xlink" xmlns:a="http://ns.adobe.com/AdobeSVGViewerExtensions/3.0/"
	 x="0px" y="0px" width="127.682px" height="121.336px" viewBox="0 0 127.682 121.336" enable-background="new 0 0 127.682 121.336"
	 xml:space="preserve">
<metadata>
	<variableSets  xmlns="&ns_vars;">
		<variableSet  locked="none" varSetName="binding1">
			<variables></variables>
			<v:sampleDataSets  xmlns="&ns_custom;" xmlns:v="&ns_vars;"></v:sampleDataSets>
		</variableSet>
	</variableSets>
</metadata>
<g id="Layer_5" i:layer="yes" i:visible="no" i:dimmedPercent="50" i:rgbTrio="#FFFFFFFF4F00" display="none">
	<circle i:knockout="Off" display="inline" fill="#E3D8B5" cx="333.03" cy="260.561" r="77.4"/>
	<g display="inline">
		<g>
			<g>
				<path i:knockout="Off" d="M346.498,300.688 M346.498,300.688c-0.776,3.971-1.309,8.293-1.196,12.597"/>
			</g>
		</g>
		<g>
			<g>
				<path i:knockout="Off" fill="#E3D8B5" d="M305.54,251.372c9.335-2.337,16.805-10.699,16.699-18.669
					c-0.102-7.965-7.757-12.528-17.096-10.196c-9.326,2.354-16.795,10.71-16.693,18.669
					C288.543,249.151,296.2,253.714,305.54,251.372 M299.048,230.819c4.599-2.587,6.616,0.58,6.616,0.58
					c-2.313,1.146-4.32,3.167-4.32,3.167h7.486c-0.871,3.738-8.27,9.916-12.96,4.899
					C291.841,235.142,299.048,230.819,299.048,230.819"/>
				<path i:knockout="Off" fill="#E3D8B5" d="M367.612,218.22c-0.096,0.112-3.091,2.648-4.69,3.203c-1.609,0.556,0.683-5.464,0-5.53
					c-0.3-0.04-2.194,4.66-3.233,4.293c-2.627-0.877-0.402-5.062-0.952-5.561c-0.163-0.164-2.331,3.769-3.605,3.635
					c-2.123-0.224-1.039-5.57-1.36-4.669c-0.32,0.892-2.617,4.472-2.617,4.472c4.966,0.493,14.265,5.188,14.265,5.188
					C365.204,222.217,367.999,217.833,367.612,218.22"/>
				<path i:knockout="Off" fill="#E3D8B5" d="M333.346,228.873c-0.021,0.938,1.162,1.712,2.633,1.732
					c1.481,0.021,2.698-0.718,2.724-1.661c0.036-0.936-1.15-1.711-2.622-1.732C334.588,227.192,333.37,227.946,333.346,228.873"/>
				<path i:knockout="Off" fill="#E3D8B5" d="M337.109,274.512c-0.215,1.101-0.362,2.297-0.331,3.489
					c5.769-0.342,10.581,0.015,14.05,0.479c0.605-1.004,1.136-2.002,1.619-2.955C347.391,274.4,342.069,274.222,337.109,274.512"/>
				<path i:knockout="Off" fill="#E3D8B5" d="M331.798,225.283c1.471,0.015,2.709-0.738,2.729-1.665
					c0.021-0.938-1.146-1.711-2.639-1.731c-1.477-0.011-2.694,0.738-2.725,1.666C329.133,224.494,330.321,225.273,331.798,225.283"
					/>
				<path i:knockout="Off" fill="#E3D8B5" d="M357.453,234.165c-4.553-0.394-22.116,2.693-21.348,3.865
					c0.534,0.794,0.936,1.589,1.223,2.361c3.1-0.545,9.971-1.414,13.877-1.363c0,0-13.231,3.259-12.243,4.634
					c0.983,1.374,7.572,0.651,9.239,1.654c1.516,0.917-5.943,0.107-10.375,1.66c-0.381,1.94-1.182,2.959-1.182,2.959
					c8.138-0.488,12.355,1.182,12.355,1.182c-1.265-2.425,2.897-1.747,1.797-3.708c-1.08-1.966,4.313-3.162,2.282-6.202
					C351.058,238.151,361.99,234.557,357.453,234.165"/>
				<path i:knockout="Off" fill="#E3D8B5" d="M351.725,228.033c1.465,0.004,2.693-0.739,2.724-1.67
					c0.025-0.943-1.156-1.706-2.634-1.732c-1.485-0.026-2.703,0.733-2.728,1.666C349.056,227.233,350.237,228.009,351.725,228.033"
					/>
				<path i:knockout="Off" fill="#E3D8B5" d="M341.884,226.148c1.489,0.03,2.701-0.729,2.735-1.654
					c0.022-0.942-1.154-1.716-2.638-1.731c-1.486-0.021-2.703,0.732-2.729,1.659C339.228,225.363,340.397,226.134,341.884,226.148"
					/>
				<path i:knockout="Off" fill="#E3D8B5" d="M343.205,230.498c-0.031,0.941,1.156,1.717,2.632,1.735
					c1.481,0.012,2.699-0.732,2.74-1.664c0.021-0.933-1.16-1.706-2.639-1.727C344.457,228.827,343.234,229.565,343.205,230.498"/>
				<path i:knockout="Off" fill="#E3D8B5" d="M356.812,311.004c0,0,3.137,3.052,3.683,3.882c0.538,0.84-1.88-4.318,0.126-5.072
					c1.192-0.449,4.319,3.014,4.451,2.806c0.388-0.637-2.846-4.344-0.523-5.892c0.911-0.603,5.361,3.249,5.641,3.142
					c0.659-0.239-4.521-5.342-2.819-5.185c1.716,0.174,5.26,2.022,5.392,2.094c0.479,0.301-3.371-3.468-3.432-4.553
					C369.329,302.226,361.501,309.269,356.812,311.004"/>
				<path i:knockout="Off" fill="#E3D8B5" d="M387.107,258.135l6.544-0.967c0.295-0.571,0.295-1.213,0.295-1.213l-7.125,0.143
					C386.928,256.815,387.021,257.492,387.107,258.135"/>
				<path i:knockout="Off" fill="#E3D8B5" d="M314.661,282.334c5.185-1.757,10.094-2.876,14.62-3.564
					c-0.382-1.253-0.622-2.353-0.784-3.3c-6.829,1.084-11.743,2.617-12.171,2.607c-0.9-0.011-2.349-1.447-2.349-1.447
					s5.821-2.148,14.295-3.534c-0.05-1.578,0.205-2.338,0.205-2.338s9.349-0.997,9.909-1.165c0.229-0.062-0.188,0.942-0.651,2.465
					c5.052-0.274,10.494-0.102,15.938,0.906c1.089-2.506,1.641-4.278,1.641-4.278c-18.711-1.97-35.928,2.095-45.649,5.164
					C310.771,276.727,312.354,279.834,314.661,282.334"/>
				<path i:knockout="Off" fill="#E3D8B5" d="M385.869,250.7c0.112,0.519,0.208,1.028,0.301,1.521l7.41-1.237
					c0-0.651-0.147-1.08-0.147-1.08l-7.681,0.163C385.794,250.286,385.84,250.49,385.869,250.7"/>
				<path i:knockout="Off" fill="#E3D8B5" d="M328.391,254.021c1.022-1.814,2.287-4.687,3.183-8.908
					c1.716-8.07-3.473-16.615-3.473-16.615c1.986,8.168,0.092,19.993-7.837,25.951c-11.159,9.146-36.773,7.588-36.773,7.588
					c0,25.64,21.22,46.433,47.404,46.433c26.167,0,47.387-20.793,47.387-46.433C360.652,255.445,343.316,253.653,328.391,254.021
					 M317.727,296.949c-0.55,1.839-3.27,2.689-6.07,1.895c-2.802-0.81-4.624-2.949-4.085-4.781c0.154-0.514,0.495-0.942,0.947-1.288
					c1.508-1.683,5.51-3.765,5.51-3.765c2.048-0.443,3.719,0.286,4.187,1.437C318.685,291.603,317.727,296.949,317.727,296.949
					 M331.885,299.48c-0.361,1.935-2.711,3.413-5.551,3.365c-3.087-0.04-5.557-1.832-5.521-4.002
					c-0.974-1.258,1.722-10.948,1.722-10.948c0.876-1.926,3.763-2.17,5.193-1.039c1.213,0.968,2.965,7.322,3.846,10.684
					c0.26,0.438,0.402,0.938,0.397,1.457C332.021,299.175,331.971,299.343,331.885,299.48 M341.722,301.635
					c-2.938,0.916-5.574-0.346-6.451-2.186c-1.008-2.244-1.05-10.954-1.05-10.954c0.347-2.118,3.016-3.259,4.665-2.611
					c1.391,0.545,4.711,6.096,6.438,9.03c0.351,0.599,0.829,1.598,0.789,1.76C346.261,298.645,344.426,300.79,341.722,301.635
					 M356.271,296.307c-2.291,1.691-5.164,1.799-6.386,0.246c0,0-2.995-4.711-3.014-5.954c-0.011-1.242,1.247-2.484,3.324-2.745
					c0,0,4.547,0.622,6.599,1.712c0.562,0.173,1.024,0.458,1.387,0.896C359.419,292.011,358.557,294.622,356.271,296.307
					 M348.348,260.121c0,0-2.099,1.599-5.089,3.626c5.409-0.429,11.093-0.556,16.903-0.235c2.18,0.133,12.09,6.244,12.09,6.244
					s-0.281,10.058-9.839,19.127c0,0-6.32-4.527-16.84-3.637c0.692-0.672,1.338-1.39,1.96-2.118
					c-15.466-2.179-29.486,1.763-33.683,3.127c-3.851,1.925-8.707,4.823-8.707,4.823c-13.297-5.505-15.98-22.738-15.98-22.738
					s9.768,0.877,18.257-3.106c0,0,0.28,2.303,1.177,5.413c5.321-1.7,12.501-3.672,20.837-5.132l7.823-4.305
					c-2.582-0.335-5.726,0.012-7.929,0.372c-3.479,3.255-7.395,4.721-7.395,4.721l-10.578-2.862
					c10.282-1.741,15.604-6.437,15.604-6.437l5.189,1.294c-0.291,0.447-0.61,0.855-0.926,1.242
					C335.011,258.965,343.424,258.048,348.348,260.121"/>
				<path i:knockout="Off" fill="#E3D8B5" d="M384.937,246.651l7.704-2.073c0.078-0.509-0.355-1.294-0.355-1.294l-8.061,1.151
					C384.428,245.097,384.81,246.243,384.937,246.651"/>
				<path i:knockout="Off" fill="#E3D8B5" d="M390.056,236.518l-8.464,1.206c0.341,0.724,0.702,1.508,1.054,2.363l7.979-2.124
					C390.555,237.245,390.056,236.518,390.056,236.518"/>
			</g>
		</g>
		<g i:knockout="Off">
			<g>
				<path i:knockout="Off" fill="#B39B6E" d="M343.204,230.498c-0.03,0.941,1.157,1.716,2.633,1.736
					c1.481,0.01,2.699-0.733,2.74-1.665c0.021-0.932-1.16-1.706-2.639-1.727C344.457,228.827,343.233,229.565,343.204,230.498
					 M341.884,226.148c1.489,0.03,2.701-0.729,2.736-1.654c0.021-0.942-1.155-1.717-2.639-1.731
					c-1.486-0.021-2.703,0.732-2.729,1.659C339.228,225.363,340.396,226.134,341.884,226.148 M333.346,228.874
					c-0.021,0.937,1.162,1.711,2.632,1.731c1.481,0.02,2.698-0.718,2.724-1.662c0.037-0.935-1.15-1.71-2.621-1.731
					C334.588,227.192,333.371,227.946,333.346,228.874 M331.798,225.283c1.472,0.015,2.71-0.738,2.729-1.665
					c0.021-0.938-1.146-1.711-2.638-1.732c-1.477-0.01-2.694,0.739-2.725,1.666C329.134,224.494,330.321,225.273,331.798,225.283
					 M305.54,251.372c9.335-2.338,16.805-10.699,16.699-18.67c-0.102-7.963-7.757-12.526-17.096-10.194
					c-9.326,2.354-16.795,10.709-16.693,18.668C288.543,249.15,296.2,253.714,305.54,251.372 M299.048,230.818
					c4.599-2.587,6.616,0.581,6.616,0.581c-2.313,1.146-4.32,3.167-4.32,3.167h7.486c-0.871,3.738-8.27,9.916-12.96,4.898
					C291.841,235.143,299.048,230.818,299.048,230.818 M357.453,234.165c-4.553-0.394-22.116,2.693-21.348,3.865
					c0.534,0.794,0.936,1.588,1.223,2.361c3.1-0.545,9.971-1.414,13.877-1.363c0,0-13.231,3.259-12.243,4.634
					c0.983,1.374,7.572,0.651,9.239,1.653c1.516,0.918-5.943,0.108-10.375,1.661c-0.381,1.941-1.182,2.959-1.182,2.959
					c8.138-0.488,12.355,1.182,12.355,1.182c-1.265-2.425,2.897-1.747,1.797-3.707c-1.08-1.966,4.312-3.163,2.282-6.203
					C351.058,238.151,361.99,234.557,357.453,234.165 M351.725,228.033c1.465,0.004,2.693-0.738,2.723-1.671
					c0.026-0.942-1.154-1.705-2.633-1.731c-1.485-0.026-2.702,0.732-2.728,1.666C349.056,227.233,350.237,228.009,351.725,228.033
					 M367.612,218.22c-0.096,0.112-3.091,2.648-4.69,3.203c-1.608,0.555,0.682-5.464,0-5.53c-0.3-0.04-2.194,4.66-3.233,4.293
					c-2.627-0.877-0.402-5.062-0.952-5.561c-0.163-0.163-2.331,3.769-3.605,3.635c-2.123-0.224-1.039-5.571-1.36-4.669
					c-0.32,0.891-2.618,4.472-2.618,4.472c4.967,0.493,14.266,5.188,14.266,5.188C365.204,222.217,368,217.833,367.612,218.22
					 M387.107,258.135l6.544-0.967c0.295-0.571,0.295-1.213,0.295-1.213l-7.125,0.143
					C386.928,256.815,387.021,257.493,387.107,258.135 M392.285,243.284l-8.062,1.151c0.204,0.662,0.586,1.809,0.713,2.216
					l7.705-2.073C392.718,244.07,392.285,243.284,392.285,243.284 M356.811,311.004c0,0,3.138,3.051,3.683,3.882
					c0.54,0.84-1.878-4.318,0.127-5.072c1.192-0.449,4.318,3.014,4.451,2.805c0.388-0.636-2.846-4.343-0.524-5.891
					c0.912-0.603,5.362,3.248,5.643,3.142c0.658-0.239-4.522-5.341-2.82-5.185c1.715,0.174,5.26,2.022,5.393,2.094
					c0.479,0.301-3.372-3.468-3.433-4.553C369.329,302.226,361.501,309.269,356.811,311.004 M328.391,254.02
					c1.023-1.813,2.287-4.686,3.183-8.906c1.716-8.071-3.473-16.617-3.473-16.617c1.985,8.169,0.092,19.994-7.838,25.951
					c-11.158,9.146-36.772,7.588-36.772,7.588c0,25.642,21.22,46.435,47.405,46.435c26.166,0,47.386-20.793,47.386-46.435
					C360.652,255.445,343.316,253.653,328.391,254.02 M317.727,296.95c-0.55,1.838-3.27,2.688-6.071,1.894
					c-2.8-0.81-4.623-2.949-4.084-4.781c0.154-0.515,0.495-0.942,0.947-1.288c1.507-1.683,5.511-3.764,5.511-3.764
					c2.047-0.444,3.719,0.285,4.186,1.436C318.685,291.603,317.727,296.95,317.727,296.95 M331.885,299.48
					c-0.361,1.936-2.711,3.412-5.552,3.365c-3.086-0.04-5.556-1.832-5.521-4.002c-0.974-1.257,1.721-10.948,1.721-10.948
					c0.877-1.925,3.764-2.17,5.194-1.039c1.212,0.968,2.964,7.322,3.846,10.684c0.261,0.438,0.402,0.938,0.396,1.457
					C332.021,299.175,331.97,299.343,331.885,299.48 M346.111,296.674c0.148,1.971-1.686,4.116-4.39,4.962
					c-2.938,0.915-5.574-0.347-6.451-2.187c-1.009-2.245-1.05-10.954-1.05-10.954c0.347-2.118,3.016-3.259,4.664-2.611
					c1.392,0.545,4.712,6.095,6.438,9.029C345.675,295.513,346.152,296.512,346.111,296.674 M356.271,296.308
					c-2.291,1.69-5.164,1.798-6.387,0.245c0,0-2.995-4.71-3.013-5.954c-0.011-1.241,1.247-2.484,3.324-2.744
					c0,0,4.548,0.621,6.599,1.711c0.562,0.173,1.024,0.458,1.387,0.896C359.419,292.011,358.557,294.622,356.271,296.308
					 M348.347,260.121c0,0-2.097,1.599-5.087,3.625c5.409-0.428,11.092-0.555,16.902-0.233c2.18,0.132,12.09,6.243,12.09,6.243
					s-0.28,10.058-9.839,19.127c0,0-6.32-4.527-16.84-3.636c0.692-0.673,1.338-1.39,1.959-2.118
					c-15.465-2.18-29.485,1.762-33.682,3.126c-3.851,1.926-8.707,4.824-8.707,4.824c-13.297-5.506-15.98-22.739-15.98-22.739
					s9.768,0.876,18.256-3.107c0,0,0.281,2.303,1.178,5.414c5.321-1.7,12.501-3.672,20.837-5.133l7.823-4.304
					c-2.582-0.335-5.726,0.012-7.929,0.372c-3.479,3.255-7.395,4.721-7.395,4.721l-10.578-2.862
					c10.282-1.741,15.604-6.437,15.604-6.437l5.189,1.294c-0.29,0.448-0.611,0.855-0.926,1.241
					C335.011,258.964,343.424,258.048,348.347,260.121 M393.433,249.904l-7.681,0.164c0.041,0.218,0.088,0.423,0.117,0.632
					c0.112,0.52,0.208,1.028,0.301,1.521l7.41-1.237C393.58,250.333,393.433,249.904,393.433,249.904 M396.797,263.945
					c0,0-4.316,0.046-9.222,0.361c-0.561,13.485-6.009,25.737-14.665,35.067l3.538,5.103c-5.19,12.903-20.269,13.581-20.269,13.581
					l-3.834-4.568c-6.616,2.658-13.856,4.126-21.45,4.126c-31.345,0-56.735-24.877-56.735-55.58c0-0.917,0.016-1.823,0.062-2.729
					c-1.608-0.826-2.943-1.472-2.943-1.472l-3.061-2.526c7.965-12.701,6.411-24.231,6.411-24.231s4.767-0.259,9.717-0.799
					c0.504-0.713,1.033-1.425,1.584-2.118h0.015c0,0,13.683-18.263,34.542-9.783c0,0,11.998-2.79,26.079-1.181l2.993-5.933
					c0,0,14.739-2.892,22.933,7.812l-2.353,5.999c3.03,1.966,5.892,4.359,8.469,7.262c3.631-0.621,8.118-1.478,13.234-2.668
					C391.842,229.668,403.326,244.436,396.797,263.945 M314.661,282.334c5.185-1.757,10.093-2.877,14.62-3.564
					c-0.382-1.253-0.622-2.353-0.784-3.3c-6.829,1.084-11.743,2.617-12.171,2.607c-0.901-0.011-2.349-1.447-2.349-1.447
					s5.821-2.148,14.296-3.534c-0.051-1.578,0.204-2.338,0.204-2.338s9.349-0.997,9.909-1.165c0.229-0.061-0.188,0.942-0.651,2.465
					c5.052-0.275,10.495-0.102,15.939,0.906c1.089-2.506,1.64-4.277,1.64-4.277c-18.711-1.971-35.928,2.094-45.649,5.163
					C310.77,276.727,312.354,279.833,314.661,282.334 M390.055,236.518l-8.464,1.206c0.342,0.724,0.703,1.508,1.055,2.363
					l7.979-2.124C390.555,237.245,390.055,236.518,390.055,236.518 M337.109,274.512c-0.215,1.101-0.362,2.297-0.331,3.489
					c5.769-0.342,10.581,0.015,14.05,0.479c0.605-1.004,1.136-2.002,1.619-2.955C347.391,274.4,342.069,274.222,337.109,274.512"/>
			</g>
		</g>
	</g>
</g>
<g id="Layer_6" i:layer="yes" i:visible="no" i:dimmedPercent="50" i:rgbTrio="#FFFF4F00FFFF" display="none">
	<g display="inline">
		<path i:knockout="Off" d="M-329.586,226.4c-3.483-12.847-15.202-21.817-28.5-21.817c-0.88,0-1.76,0.04-2.636,0.119
			c-2.262-14.057-14.479-24.827-29.163-24.827c-13.784,0-25.394,9.49-28.637,22.279c-0.956-0.094-1.917-0.14-2.88-0.14
			c-12.619-0.001-23.848,8.021-27.941,19.965c-2.559,7.463-2.059,15.476,1.411,22.562c2.44,4.989,6.146,9.098,10.73,11.986
			c-5.632,12.31-2.188,27.344,9.045,35.843c5.174,3.914,11.331,5.981,17.805,5.981c7.521,0,14.552-2.765,19.948-7.725
			c5.428,5.096,12.559,7.942,20.18,7.942c6.525,0,12.72-2.096,17.913-6.063c6.271-4.788,10.302-11.732,11.35-19.553
			c0.634-4.73,0.132-9.439-1.427-13.809C-331.678,252.413-326.11,239.229-329.586,226.4z M-347.95,257.217
			c2.461,4.618,3.418,9.875,2.709,15.164c-0.895,6.676-4.336,12.605-9.69,16.693c-4.435,3.388-9.722,5.179-15.292,5.179
			c-7.934,0-15.244-3.612-20.057-9.912l-0.09-0.118c-4.812,6.239-12.082,9.812-19.981,9.812c-5.526,0-10.782-1.767-15.199-5.108
			c-10.707-8.101-13.126-23.153-5.729-34.163c-5.584-2.367-10.08-6.617-12.773-12.119c-2.961-6.052-3.389-12.894-1.203-19.265
			c3.494-10.198,13.081-17.048,23.854-17.048c2.161,0.002,4.306,0.278,6.397,0.829c1.143-12.855,11.973-22.969,25.12-22.969
			c13.906,0,25.22,11.314,25.22,25.22v0.364c2.152-0.581,4.366-0.875,6.579-0.875c11.353,0,21.357,7.659,24.332,18.628
			C-330.45,239.721-336.715,252.289-347.95,257.217z"/>
		<path i:knockout="Off" d="M-359.233,214.338c0.524-0.031,1.045-0.031,1.564-0.021c-0.14-0.003-0.277-0.017-0.417-0.017
			C-358.467,214.301-358.85,214.316-359.233,214.338z"/>
		<path i:knockout="Off" d="M-414.974,212.808c-0.598-0.205-1.198-0.372-1.8-0.518
			C-416.172,212.436-415.571,212.603-414.974,212.808z"/>
		<path i:knockout="Off" d="M-422.841,211.787c-0.44,0.032-0.877,0.085-1.312,0.146c-0.102,0.014-0.204,0.02-0.305,0.036
			c-0.046,0.007-0.091,0.02-0.137,0.027C-424.015,211.901-423.43,211.83-422.841,211.787z"/>
		<path i:knockout="Off" d="M-363.282,214.996c0.588-0.16,1.178-0.281,1.767-0.385
			C-362.104,214.715-362.693,214.836-363.282,214.996z"/>
		<path i:knockout="Off" d="M-417.346,212.171c-0.418-0.088-0.835-0.166-1.253-0.227
			C-418.181,212.005-417.763,212.083-417.346,212.171z"/>
		<path i:knockout="Off" d="M-421.072,211.744c-0.11-0.002-0.221-0.014-0.331-0.014c-0.369,0-0.734,0.022-1.1,0.043
			C-422.028,211.747-421.551,211.736-421.072,211.744z"/>
		<path i:knockout="Off" d="M-419.244,211.865c-0.405-0.045-0.81-0.076-1.213-0.096
			C-420.053,211.789-419.649,211.82-419.244,211.865z"/>
		<path i:knockout="Off" d="M-345.032,219.226c0.439,0.385,0.866,0.785,1.272,1.209
			C-344.166,220.011-344.592,219.61-345.032,219.226z"/>
		<path i:knockout="Off" d="M-346.98,217.734c-0.304-0.206-0.613-0.404-0.928-0.592C-347.594,217.33-347.285,217.528-346.98,217.734
			z"/>
		<path i:knockout="Off" d="M-355.839,214.445c-0.38-0.044-0.762-0.077-1.146-0.099
			C-356.601,214.368-356.219,214.402-355.839,214.445z"/>
		<path i:knockout="Off" d="M-348.505,216.794c-0.333-0.185-0.674-0.355-1.018-0.521
			C-349.179,216.439-348.838,216.61-348.505,216.794z"/>
		<path i:knockout="Off" d="M-345.491,218.85c-0.303-0.25-0.61-0.495-0.928-0.726C-346.101,218.355-345.794,218.6-345.491,218.85z"
			/>
		<path i:knockout="Off" d="M-353.966,214.753c-0.4-0.086-0.802-0.165-1.208-0.225
			C-354.768,214.589-354.366,214.667-353.966,214.753z"/>
		<path i:knockout="Off" d="M-350.089,216.002c-0.45-0.199-0.908-0.378-1.372-0.543
			C-350.997,215.624-350.539,215.804-350.089,216.002z"/>
		<path i:knockout="Off" d="M-351.73,215.355c-0.554-0.188-1.118-0.348-1.688-0.488
			C-352.848,215.006-352.284,215.167-351.73,215.355z"/>
		<path i:knockout="Off" d="M-359.343,214.342c-0.581,0.037-1.164,0.109-1.748,0.199
			C-360.507,214.451-359.923,214.379-359.343,214.342z"/>
		<path i:knockout="Off" d="M-364.884,288.106c0.299-0.084,0.6-0.159,0.896-0.258c0.104-0.034,0.205-0.08,0.309-0.116
			C-364.079,287.871-364.48,287.993-364.884,288.106z"/>
		<path i:knockout="Off" d="M-425.003,212.076c-0.441,0.082-0.878,0.176-1.311,0.287
			C-425.882,212.252-425.444,212.158-425.003,212.076z"/>
		<path i:knockout="Off" d="M-437.615,220.174c-0.239,0.341-0.47,0.689-0.688,1.047
			C-438.085,220.863-437.854,220.515-437.615,220.174z"/>
		<path i:knockout="Off" d="M-370.782,288.839c0.186,0.005,0.372,0.016,0.558,0.016c0.242,0,0.483-0.02,0.725-0.028
			C-369.927,288.842-370.354,288.851-370.782,288.839z"/>
		<path i:knockout="Off" d="M-436.194,218.359c-0.388,0.435-0.754,0.892-1.105,1.363
			C-436.948,219.25-436.583,218.793-436.194,218.359z"/>
		<path i:knockout="Off" d="M-367.123,288.609c0.579-0.092,1.154-0.212,1.726-0.355
			C-365.969,288.397-366.545,288.518-367.123,288.609z"/>
		<path i:knockout="Off" d="M-368.879,288.801c0.474-0.031,0.948-0.085,1.42-0.151C-367.932,288.716-368.405,288.77-368.879,288.801
			z"/>
		<path i:knockout="Off" d="M-440.151,225.13c0.202-0.591,0.437-1.16,0.688-1.719C-439.715,223.97-439.949,224.539-440.151,225.13z"
			/>
		<path i:knockout="Off" d="M-428.555,213.081c-0.456,0.177-0.904,0.371-1.345,0.581
			C-429.459,213.452-429.011,213.258-428.555,213.081z"/>
		<path i:knockout="Off" d="M-436.042,218.201c0.347-0.38,0.708-0.745,1.081-1.095
			C-435.335,217.456-435.695,217.821-436.042,218.201z"/>
		<path i:knockout="Off" d="M-426.868,212.517c-0.393,0.113-0.781,0.239-1.165,0.375
			C-427.649,212.756-427.261,212.63-426.868,212.517z"/>
		<path i:knockout="Off" d="M-430.154,213.776c-0.519,0.255-1.024,0.536-1.52,0.835
			C-431.179,214.312-430.673,214.031-430.154,213.776z"/>
		<path i:knockout="Off" d="M-432.084,214.877c-0.354,0.227-0.702,0.461-1.042,0.71
			C-432.786,215.338-432.438,215.104-432.084,214.877z"/>
		<path i:knockout="Off" d="M-433.609,215.955c-0.315,0.246-0.621,0.502-0.921,0.768
			C-434.23,216.458-433.924,216.201-433.609,215.955z"/>
		<path i:knockout="Off" d="M-404.073,287.614c-0.503,0.168-1.013,0.315-1.527,0.441
			C-405.085,287.929-404.576,287.782-404.073,287.614z"/>
		<path i:knockout="Off" d="M-383.352,283.893c-0.428-0.379-0.843-0.778-1.243-1.198
			C-384.195,283.115-383.78,283.514-383.352,283.893z"/>
		<path i:knockout="Off" d="M-384.801,282.469c-0.412-0.447-0.812-0.911-1.189-1.404
			C-385.613,281.558-385.213,282.021-384.801,282.469z"/>
		<path i:knockout="Off" d="M-395.921,282.414c-0.396,0.42-0.806,0.818-1.23,1.197
			C-396.728,283.232-396.317,282.834-395.921,282.414z"/>
		<path i:knockout="Off" d="M-394.527,280.772c-0.373,0.493-0.77,0.956-1.178,1.403C-395.297,281.729-394.9,281.266-394.527,280.772
			z"/>
		<path i:knockout="Off" d="M-400.51,286.029c-0.482,0.275-0.975,0.525-1.476,0.758
			C-401.485,286.555-400.992,286.305-400.51,286.029z"/>
		<path i:knockout="Off" d="M-398.896,285.001c-0.446,0.315-0.905,0.608-1.372,0.884
			C-399.801,285.609-399.342,285.316-398.896,285.001z"/>
		<path i:knockout="Off" d="M-397.413,283.838c-0.438,0.377-0.886,0.738-1.35,1.072
			C-398.298,284.576-397.851,284.215-397.413,283.838z"/>
		<path i:knockout="Off" d="M-374.841,288.308c-0.526-0.125-1.045-0.274-1.56-0.442
			C-375.887,288.033-375.367,288.183-374.841,288.308z"/>
		<path i:knockout="Off" d="M-402.305,286.931c-0.507,0.225-1.021,0.432-1.542,0.611
			C-403.325,287.362-402.812,287.155-402.305,286.931z"/>
		<path i:knockout="Off" d="M-373.054,288.645c-0.554-0.079-1.105-0.176-1.65-0.302
			C-374.159,288.469-373.608,288.565-373.054,288.645z"/>
		<path i:knockout="Off" d="M-376.656,287.784c-0.521-0.178-1.035-0.381-1.542-0.603
			C-377.69,287.403-377.177,287.605-376.656,287.784z"/>
		<path i:knockout="Off" d="M-378.508,287.042c-0.506-0.231-1.004-0.481-1.492-0.757
			C-379.512,286.561-379.014,286.811-378.508,287.042z"/>
		<path i:knockout="Off" d="M-381.74,285.179c-0.467-0.332-0.918-0.692-1.359-1.069
			C-382.658,284.486-382.207,284.847-381.74,285.179z"/>
		<path i:knockout="Off" d="M-342.593,221.78c-0.329-0.413-0.674-0.811-1.033-1.194
			C-343.267,220.969-342.922,221.367-342.593,221.78z"/>
		<path i:knockout="Off" d="M-380.208,286.161c-0.474-0.275-0.938-0.569-1.39-0.887
			C-381.146,285.592-380.682,285.886-380.208,286.161z"/>
		<path i:knockout="Off" d="M-420.751,285.672c-0.524-0.324-1.041-0.669-1.543-1.049
			C-421.792,285.003-421.275,285.348-420.751,285.672z"/>
		<path i:knockout="Off" d="M-417.437,287.309c-0.363-0.14-0.724-0.289-1.081-0.451C-418.16,287.02-417.8,287.169-417.437,287.309z"
			/>
		<path i:knockout="Off" d="M-338.964,228.941c-0.166-0.612-0.365-1.206-0.583-1.789
			C-339.329,227.735-339.13,228.329-338.964,228.941z"/>
		<path i:knockout="Off" d="M-419.135,286.565c-0.368-0.183-0.73-0.382-1.09-0.59C-419.865,286.184-419.503,286.383-419.135,286.565
			z"/>
		<path i:knockout="Off" d="M-341.537,223.245c-0.219-0.333-0.45-0.655-0.687-0.972
			C-341.987,222.59-341.756,222.912-341.537,223.245z"/>
		<path i:knockout="Off" d="M-339.777,226.596c-0.159-0.389-0.325-0.772-0.507-1.146
			C-340.103,225.823-339.937,226.207-339.777,226.596z"/>
		<path i:knockout="Off" d="M-340.6,224.836c-0.182-0.342-0.372-0.678-0.572-1.007C-340.972,224.158-340.781,224.494-340.6,224.836z
			"/>
		<path i:knockout="Off" d="M-411.632,288.586c-0.442-0.028-0.884-0.076-1.325-0.135
			C-412.516,288.51-412.074,288.558-411.632,288.586z"/>
		<path i:knockout="Off" d="M-410.352,288.637c0.22,0,0.439-0.012,0.659-0.019c-0.438,0.015-0.877,0.007-1.316-0.007
			C-410.79,288.618-410.571,288.637-410.352,288.637z"/>
		<path i:knockout="Off" d="M-415.573,287.921c-0.419-0.114-0.837-0.238-1.25-0.382
			C-416.41,287.683-415.993,287.807-415.573,287.921z"/>
		<path i:knockout="Off" d="M-405.804,288.108c-0.539,0.126-1.083,0.226-1.631,0.306
			C-406.888,288.334-406.343,288.234-405.804,288.108z"/>
		<path i:knockout="Off" d="M-407.773,288.462c-0.542,0.071-1.087,0.122-1.634,0.148
			C-408.86,288.584-408.315,288.533-407.773,288.462z"/>
		<path i:knockout="Off" d="M-413.39,288.399c-0.577-0.089-1.152-0.205-1.722-0.347
			C-414.542,288.194-413.967,288.311-413.39,288.399z"/>
		<path i:knockout="Off" d="M-371.101,288.83c-0.545-0.024-1.088-0.071-1.628-0.14C-372.188,288.759-371.646,288.806-371.101,288.83
			z"/>
		<path i:knockout="Off" d="M-438.627,221.771c-0.206,0.364-0.399,0.737-0.583,1.117
			C-439.026,222.508-438.833,222.135-438.627,221.771z"/>
		<path i:knockout="Off" d="M-363.061,287.498c0.363-0.142,0.723-0.294,1.079-0.458
			C-362.338,287.204-362.698,287.356-363.061,287.498z"/>
		<path i:knockout="Off" d="M-358.208,284.786c-0.501,0.383-1.018,0.731-1.542,1.06
			C-359.226,285.518-358.709,285.169-358.208,284.786z"/>
		<path i:knockout="Off" d="M-361.367,286.748c0.37-0.186,0.733-0.388,1.095-0.599C-360.634,286.36-360.998,286.562-361.367,286.748
			z"/>
		<path i:knockout="Off" d="M-421.403,211.73L-421.403,211.73c-0.369,0-0.735,0.022-1.102,0.043c0,0,0.001,0,0.001,0
			C-422.137,211.753-421.771,211.73-421.403,211.73z"/>
		<path i:knockout="Off" d="M-424.458,211.969c-0.046,0.007-0.091,0.02-0.137,0.027l0,0
			C-424.549,211.988-424.504,211.976-424.458,211.969z"/>
		<path i:knockout="Off" d="M-370.224,288.854c0.242,0,0.483-0.02,0.725-0.028l0,0C-369.74,288.835-369.982,288.854-370.224,288.854
			z"/>
		<path i:knockout="Off" d="M-422.84,211.787c-0.44,0.032-0.877,0.085-1.312,0.146C-423.718,211.872-423.281,211.819-422.84,211.787
			C-422.84,211.787-422.84,211.787-422.84,211.787z"/>
		<path i:knockout="Off" d="M-364.886,288.106c0.3-0.084,0.601-0.159,0.897-0.258c-0.296,0.099-0.597,0.174-0.896,0.258
			C-364.885,288.106-364.885,288.106-364.886,288.106z"/>
		<path i:knockout="Off" d="M-368.879,288.801C-368.88,288.801-368.88,288.801-368.879,288.801c0.475-0.031,0.949-0.085,1.422-0.151
			c-0.001,0-0.001,0-0.002,0C-367.932,288.716-368.405,288.77-368.879,288.801z"/>
		<path i:knockout="Off" d="M-367.123,288.609C-367.124,288.609-367.124,288.609-367.123,288.609
			c0.579-0.092,1.154-0.212,1.726-0.355c0,0,0,0,0,0C-365.969,288.397-366.544,288.518-367.123,288.609z"/>
		<path i:knockout="Off" d="M-358.086,212.356c-1.917,0-3.837,0.257-5.705,0.764l-4.329,1.172v-4.88
			c0-12.002-9.764-21.765-21.765-21.765s-21.765,9.763-21.765,21.765v2.48l-2.693-0.924c-2.287-0.783-4.662-1.182-7.061-1.182
			c-9.297,0-17.57,5.912-20.586,14.713c-1.886,5.499-1.517,11.403,1.039,16.626c2.556,5.221,6.992,9.136,12.492,11.021l2.731,0.937
			l-1.968,2.602c-7.238,9.57-5.342,23.246,4.229,30.487c3.812,2.884,8.347,4.407,13.114,4.407c6.89,0,13.222-3.147,17.374-8.636
			l2.595-3.429l2.848,3.729c4.153,5.436,10.464,8.554,17.312,8.554c4.806,0,9.368-1.545,13.195-4.469
			c4.621-3.529,7.591-8.646,8.363-14.407c0.771-5.762-0.746-11.48-4.276-16.1l-0.343-0.449l0.881-0.239
			c11.583-3.14,18.453-15.116,15.315-26.701C-339.656,218.968-348.29,212.356-358.086,212.356z M-352.656,254.195l-2.278,0.617
			l1.221,1.601c3.373,4.412,4.823,9.875,4.086,15.379c-0.738,5.505-3.576,10.394-7.99,13.765c-3.656,2.793-8.015,4.27-12.604,4.27
			c0,0,0,0-0.002,0c-6.543,0-12.57-2.979-16.539-8.171l-3.624-4.746l-3.366,4.449c-3.967,5.243-10.017,8.249-16.599,8.249
			c-4.555,0-8.886-1.455-12.528-4.21c-9.143-6.917-10.955-19.983-4.039-29.127l2.777-3.673l-4.002-1.371
			c-5.254-1.8-9.492-5.54-11.934-10.528c-2.442-4.989-2.794-10.63-0.992-15.884c2.881-8.407,10.784-14.056,19.666-14.056
			c2.291,0,4.56,0.381,6.745,1.13l3.979,1.363v-3.84c0-11.466,9.328-20.793,20.794-20.793s20.793,9.327,20.793,20.793v6.15
			l5.556-1.505c1.784-0.483,3.619-0.729,5.45-0.729c9.358,0,17.607,6.316,20.06,15.358
			C-335.028,239.754-341.591,251.196-352.656,254.195z"/>
		<path i:knockout="Off" d="M-428.555,213.081c0.001,0,0.002-0.001,0.003-0.001c-0.462,0.179-0.917,0.375-1.365,0.589
			c0.006-0.003,0.012-0.005,0.017-0.007C-429.459,213.452-429.011,213.258-428.555,213.081z"/>
		<path i:knockout="Off" d="M-358.086,214.301c0.14,0,0.277,0.014,0.417,0.017c0.006,0,0.012,0,0.018,0
			C-357.796,214.314-357.94,214.3-358.086,214.301c-0.395-0.001-0.791,0.014-1.188,0.038c0.014,0,0.027,0,0.041,0
			C-358.85,214.316-358.467,214.301-358.086,214.301z"/>
		<path i:knockout="Off" d="M-355.839,214.445c0.008,0.001,0.016,0.001,0.024,0.002c-0.395-0.046-0.792-0.081-1.191-0.103
			c0.007,0,0.015,0.001,0.022,0.002C-356.601,214.368-356.219,214.401-355.839,214.445z"/>
		<path i:knockout="Off" d="M-351.73,215.355c0.003,0.001,0.006,0.001,0.009,0.002c-0.56-0.19-1.131-0.353-1.708-0.493
			c0.003,0.001,0.007,0.002,0.011,0.003C-352.848,215.007-352.284,215.167-351.73,215.355z"/>
		<path i:knockout="Off" d="M-424.458,211.969c0.101-0.016,0.204-0.021,0.305-0.036
			C-424.254,211.947-424.356,211.953-424.458,211.969z"/>
		<path i:knockout="Off" d="M-353.966,214.753c0.013,0.002,0.026,0.004,0.04,0.007c-0.418-0.09-0.837-0.172-1.262-0.235
			c0.005,0.001,0.009,0.002,0.014,0.003C-354.768,214.589-354.366,214.667-353.966,214.753z"/>
		<path i:knockout="Off" d="M-432.084,214.877c0.005-0.003,0.009-0.006,0.014-0.01c-0.361,0.231-0.716,0.471-1.062,0.725
			c0.002-0.001,0.004-0.003,0.007-0.004C-432.786,215.338-432.438,215.104-432.084,214.877z"/>
		<path i:knockout="Off" d="M-430.154,213.776c0.001,0,0.002-0.001,0.003-0.002c-0.521,0.257-1.03,0.539-1.527,0.84
			c0.001-0.001,0.003-0.002,0.004-0.003C-431.179,214.312-430.673,214.031-430.154,213.776z"/>
		<path i:knockout="Off" d="M-419.244,211.865c0.002,0,0.004,0,0.006,0c-0.409-0.045-0.816-0.077-1.224-0.096
			c0.001,0,0.002,0,0.004,0C-420.053,211.789-419.649,211.82-419.244,211.865z"/>
		<path i:knockout="Off" d="M-417.346,212.171c0.005,0.001,0.01,0.002,0.015,0.003c-0.425-0.09-0.849-0.169-1.274-0.23
			c0.002,0,0.004,0.001,0.006,0.001C-418.181,212.005-417.764,212.083-417.346,212.171z"/>
		<path i:knockout="Off" d="M-414.974,212.808c-0.599-0.206-1.202-0.373-1.806-0.519c0.001,0,0.003,0.001,0.005,0.001
			C-416.172,212.436-415.571,212.603-414.974,212.808z"/>
		<path i:knockout="Off" d="M-421.071,211.744c-0.11-0.002-0.221-0.014-0.331-0.014h0
			C-421.293,211.73-421.182,211.742-421.071,211.744C-421.072,211.744-421.072,211.744-421.071,211.744z"/>
		<path i:knockout="Off" d="M-426.868,212.517c0.001,0,0.001,0,0.002-0.001c-0.395,0.114-0.786,0.24-1.173,0.378
			c0.002,0,0.003-0.001,0.005-0.001C-427.649,212.756-427.261,212.63-426.868,212.517z"/>
		<path i:knockout="Off" d="M-425.003,212.076L-425.003,212.076c-0.441,0.082-0.879,0.176-1.312,0.288c0,0,0,0,0.001,0
			C-425.882,212.252-425.444,212.158-425.003,212.076z"/>
		<path i:knockout="Off" d="M-359.343,214.342c0.003,0,0.007,0,0.01-0.001c-0.586,0.038-1.175,0.11-1.765,0.201
			c0.002,0,0.005,0,0.007,0C-360.507,214.451-359.923,214.379-359.343,214.342z"/>
		<path i:knockout="Off" d="M-361.51,214.61c-0.59,0.104-1.182,0.226-1.772,0.386c0.589-0.16,1.178-0.281,1.767-0.385
			C-361.513,214.611-361.512,214.611-361.51,214.61z"/>
		<path i:knockout="Off" d="M-339.777,226.596c0,0.001,0.001,0.002,0.001,0.003c-0.16-0.391-0.327-0.775-0.509-1.15
			c0,0,0,0.001,0,0.001C-340.102,225.823-339.937,226.207-339.777,226.596z"/>
		<path i:knockout="Off" d="M-437.615,220.174c0.002-0.003,0.004-0.006,0.006-0.009c-0.242,0.345-0.476,0.697-0.697,1.06
			c0-0.001,0.001-0.002,0.002-0.003C-438.085,220.863-437.854,220.515-437.615,220.174z"/>
		<path i:knockout="Off" d="M-438.627,221.771c0.001-0.001,0.001-0.002,0.002-0.003c-0.208,0.366-0.401,0.741-0.587,1.123
			c0-0.001,0.001-0.002,0.001-0.002C-439.026,222.508-438.833,222.135-438.627,221.771z"/>
		<path i:knockout="Off" d="M-342.593,221.78c0.001,0.001,0.001,0.001,0.002,0.002c-0.336-0.422-0.688-0.829-1.056-1.22
			c0.007,0.007,0.014,0.016,0.021,0.023C-343.267,220.969-342.922,221.367-342.593,221.78z"/>
		<path i:knockout="Off" d="M-439.463,223.41c-0.251,0.559-0.485,1.129-0.688,1.72C-439.949,224.539-439.715,223.97-439.463,223.41
			C-439.463,223.411-439.463,223.411-439.463,223.41z"/>
		<path i:knockout="Off" d="M-341.537,223.245c0,0,0.001,0.001,0.001,0.002c-0.221-0.336-0.454-0.661-0.693-0.98
			c0.001,0.002,0.003,0.004,0.004,0.006C-341.987,222.59-341.756,222.912-341.537,223.245z"/>
		<path i:knockout="Off" d="M-338.964,228.941c-0.166-0.612-0.365-1.207-0.583-1.79c0,0.001,0,0.001,0,0.001
			C-339.329,227.735-339.13,228.329-338.964,228.941z"/>
		<path i:knockout="Off" d="M-363.989,287.849c0.104-0.034,0.205-0.08,0.309-0.117c0,0,0,0,0,0.001
			C-363.784,287.769-363.885,287.814-363.989,287.849z"/>
		<path i:knockout="Off" d="M-363.061,287.498C-363.061,287.498-363.062,287.498-363.061,287.498
			c0.363-0.142,0.724-0.294,1.082-0.459c-0.001,0.001-0.001,0.001-0.002,0.001C-362.338,287.204-362.698,287.356-363.061,287.498z"
			/>
		<path i:knockout="Off" d="M-340.6,224.836c0,0.001,0.001,0.002,0.001,0.002c-0.183-0.344-0.374-0.681-0.574-1.011
			c0,0,0.001,0.001,0.001,0.002C-340.972,224.158-340.781,224.494-340.6,224.836z"/>
		<path i:knockout="Off" d="M-343.76,220.435c0.001,0,0.002,0.001,0.002,0.002c-0.408-0.427-0.836-0.83-1.279-1.216
			c0.001,0.001,0.003,0.002,0.004,0.004C-344.592,219.61-344.166,220.011-343.76,220.435z"/>
		<path i:knockout="Off" d="M-350.089,216.002c0.003,0.001,0.006,0.002,0.009,0.003c-0.474-0.21-0.957-0.4-1.447-0.573
			c0.023,0.008,0.044,0.018,0.067,0.026C-350.997,215.624-350.539,215.804-350.089,216.002z"/>
		<path i:knockout="Off" d="M-346.98,217.734c0.003,0.002,0.007,0.004,0.011,0.007c-0.312-0.211-0.628-0.414-0.951-0.607
			c0.004,0.002,0.008,0.005,0.012,0.008C-347.593,217.33-347.285,217.528-346.98,217.734z"/>
		<path i:knockout="Off" d="M-434.961,217.106c0.001-0.001,0.003-0.003,0.005-0.005c-0.383,0.358-0.752,0.731-1.107,1.122
			c0.007-0.008,0.014-0.014,0.021-0.022C-435.695,217.821-435.335,217.456-434.961,217.106z"/>
		<path i:knockout="Off" d="M-433.609,215.955c0.002-0.002,0.005-0.004,0.007-0.006c-0.321,0.25-0.633,0.512-0.938,0.782
			c0.003-0.003,0.007-0.005,0.01-0.008C-434.23,216.458-433.924,216.201-433.609,215.955z"/>
		<path i:knockout="Off" d="M-348.505,216.794c0.003,0.002,0.006,0.003,0.009,0.005c-0.344-0.19-0.695-0.367-1.049-0.537
			c0.008,0.004,0.015,0.008,0.022,0.012C-349.179,216.439-348.838,216.61-348.505,216.794z"/>
		<path i:knockout="Off" d="M-436.194,218.359c0.001-0.001,0.002-0.002,0.003-0.003c-0.39,0.437-0.758,0.896-1.111,1.37
			c0.001-0.001,0.002-0.002,0.003-0.003C-436.948,219.25-436.583,218.793-436.194,218.359z"/>
		<path i:knockout="Off" d="M-345.491,218.85c0.005,0.004,0.01,0.008,0.015,0.012c-0.311-0.256-0.625-0.506-0.95-0.743
			c0.002,0.002,0.004,0.004,0.007,0.005C-346.101,218.355-345.794,218.6-345.491,218.85z"/>
		<path i:knockout="Off" d="M-361.367,286.748c-0.001,0.001-0.001,0.001-0.002,0.001c0.372-0.187,0.738-0.39,1.101-0.603
			c-0.001,0.001-0.003,0.002-0.004,0.003C-360.634,286.36-360.998,286.562-361.367,286.748z"/>
		<path i:knockout="Off" d="M-359.752,285.847c0.525-0.328,1.042-0.677,1.544-1.061c-0.501,0.383-1.018,0.731-1.542,1.06
			C-359.751,285.846-359.751,285.847-359.752,285.847z"/>
		<path i:knockout="Off" d="M-358.086,213.328c-1.831,0-3.666,0.246-5.45,0.729l-5.556,1.505v-6.15
			c0-11.466-9.327-20.793-20.793-20.793s-20.794,9.327-20.794,20.793v3.84l-3.979-1.363c-2.186-0.749-4.454-1.13-6.745-1.13
			c-8.882,0-16.785,5.648-19.666,14.056c-1.802,5.254-1.45,10.895,0.992,15.884c2.441,4.988,6.68,8.729,11.934,10.528l4.002,1.371
			l-2.777,3.673c-6.916,9.144-5.104,22.21,4.039,29.127c3.643,2.755,7.974,4.21,12.528,4.21c6.582,0,12.632-3.006,16.599-8.249
			l3.366-4.449l3.624,4.746c3.969,5.192,9.996,8.171,16.539,8.171c0.002,0,0.002,0,0.002,0c4.589,0,8.947-1.477,12.604-4.27
			c4.414-3.371,7.252-8.26,7.99-13.765c0.737-5.504-0.713-10.967-4.086-15.379l-1.221-1.601l2.278-0.617
			c11.065-2.999,17.628-14.441,14.63-25.509C-340.479,219.645-348.728,213.328-358.086,213.328z M-352.911,253.258l-3.674,0.995
			l2.1,2.749c6.646,8.698,4.979,21.139-3.723,27.784c-0.502,0.384-1.019,0.732-1.544,1.061c-0.17,0.106-0.344,0.2-0.516,0.3
			c-0.363,0.213-0.729,0.416-1.101,0.603c-0.202,0.102-0.406,0.196-0.61,0.29c-0.358,0.165-0.719,0.317-1.083,0.459
			c-0.206,0.08-0.411,0.161-0.619,0.233c-0.104,0.037-0.205,0.083-0.309,0.117c-0.296,0.099-0.597,0.174-0.897,0.258
			c-0.171,0.048-0.34,0.104-0.511,0.147c-0.572,0.144-1.147,0.264-1.727,0.355c-0.111,0.018-0.223,0.024-0.333,0.04
			c-0.473,0.066-0.947,0.12-1.423,0.151c-0.206,0.015-0.412,0.018-0.619,0.025c-0.242,0.009-0.483,0.028-0.725,0.028
			c-0.187,0-0.372-0.011-0.558-0.016c-0.106-0.003-0.212-0.004-0.319-0.009c-0.545-0.024-1.087-0.071-1.628-0.14
			c-0.109-0.014-0.217-0.03-0.326-0.046c-0.554-0.079-1.104-0.176-1.65-0.302c-0.046-0.011-0.091-0.024-0.137-0.035
			c-0.526-0.125-1.045-0.274-1.56-0.442c-0.085-0.028-0.17-0.053-0.254-0.081c-0.521-0.179-1.035-0.381-1.542-0.603
			c-0.104-0.046-0.207-0.092-0.31-0.14c-0.506-0.231-1.004-0.481-1.492-0.757c-0.07-0.04-0.138-0.083-0.208-0.124
			c-0.474-0.275-0.938-0.569-1.39-0.887c-0.047-0.032-0.095-0.062-0.142-0.096c-0.467-0.332-0.918-0.692-1.359-1.069
			c-0.084-0.072-0.169-0.144-0.252-0.217c-0.428-0.379-0.843-0.777-1.243-1.198c-0.07-0.074-0.137-0.15-0.207-0.226
			c-0.412-0.447-0.812-0.911-1.189-1.404l-4.4-5.763l-4.137,5.471c-0.373,0.493-0.77,0.956-1.178,1.403
			c-0.072,0.079-0.143,0.16-0.216,0.238c-0.396,0.42-0.806,0.818-1.23,1.197c-0.086,0.077-0.173,0.151-0.261,0.227
			c-0.438,0.377-0.886,0.738-1.35,1.072c-0.044,0.031-0.089,0.06-0.133,0.091c-0.446,0.315-0.905,0.608-1.372,0.884
			c-0.081,0.048-0.16,0.099-0.242,0.145c-0.482,0.275-0.975,0.525-1.476,0.758c-0.106,0.049-0.212,0.097-0.319,0.144
			c-0.507,0.225-1.021,0.432-1.542,0.611c-0.075,0.026-0.15,0.048-0.226,0.072c-0.503,0.168-1.013,0.314-1.527,0.441
			c-0.068,0.017-0.136,0.036-0.205,0.053c-0.539,0.126-1.083,0.226-1.631,0.306c-0.113,0.018-0.225,0.033-0.338,0.048
			c-0.542,0.071-1.087,0.122-1.634,0.148c-0.096,0.004-0.19,0.005-0.286,0.008c-0.22,0.007-0.439,0.019-0.659,0.019
			c-0.219,0-0.438-0.019-0.658-0.025c-0.208-0.008-0.415-0.012-0.623-0.025c-0.442-0.028-0.884-0.076-1.325-0.135
			c-0.144-0.02-0.289-0.029-0.433-0.052c-0.577-0.089-1.152-0.205-1.722-0.347c-0.155-0.038-0.307-0.09-0.461-0.132
			c-0.419-0.114-0.836-0.238-1.25-0.382c-0.206-0.071-0.409-0.152-0.614-0.23c-0.363-0.14-0.723-0.289-1.081-0.451
			c-0.207-0.095-0.413-0.19-0.618-0.292c-0.368-0.183-0.73-0.382-1.09-0.59c-0.175-0.102-0.353-0.196-0.526-0.304
			c-0.524-0.324-1.041-0.669-1.543-1.049c-8.73-6.605-10.455-19.034-3.852-27.766l3.588-4.743l-5.271-1.807
			c-10.356-3.549-15.874-14.822-12.323-25.178c0.203-0.591,0.437-1.161,0.688-1.72c0.08-0.176,0.167-0.346,0.251-0.52
			c0.186-0.382,0.379-0.757,0.587-1.123c0.104-0.183,0.209-0.364,0.319-0.543c0.221-0.363,0.455-0.715,0.697-1.06
			c0.103-0.146,0.2-0.296,0.307-0.439c0.353-0.474,0.721-0.934,1.111-1.37c0.041-0.046,0.086-0.087,0.127-0.132
			c0.355-0.39,0.725-0.763,1.107-1.122c0.136-0.127,0.277-0.247,0.417-0.371c0.306-0.271,0.618-0.532,0.938-0.782
			c0.155-0.121,0.311-0.241,0.469-0.357c0.346-0.254,0.701-0.494,1.062-0.725c0.131-0.083,0.258-0.172,0.392-0.253
			c0.498-0.302,1.006-0.583,1.527-0.84c0.077-0.038,0.157-0.068,0.234-0.105c0.448-0.213,0.902-0.41,1.365-0.589
			c0.17-0.066,0.342-0.125,0.514-0.186c0.387-0.138,0.778-0.264,1.173-0.378c0.183-0.053,0.365-0.105,0.55-0.152
			c0.433-0.112,0.871-0.206,1.312-0.288c0.137-0.025,0.271-0.058,0.409-0.08c0.046-0.008,0.091-0.02,0.137-0.027
			c0.101-0.016,0.204-0.021,0.305-0.036c0.435-0.062,0.872-0.114,1.312-0.146c0.111-0.008,0.224-0.007,0.336-0.013
			c0.366-0.021,0.732-0.043,1.101-0.043h0h0c0.11,0,0.221,0.012,0.331,0.014c0.203,0.003,0.407,0.015,0.61,0.025
			c0.407,0.02,0.815,0.051,1.224,0.096c0.211,0.023,0.421,0.048,0.632,0.078c0.425,0.061,0.849,0.141,1.274,0.23
			c0.184,0.039,0.368,0.071,0.552,0.115c0.604,0.146,1.207,0.313,1.806,0.519l5.268,1.805v-5.2c0-10.946,8.875-19.821,19.821-19.821
			s19.821,8.875,19.821,19.821v7.42l6.781-1.836c0.59-0.16,1.182-0.281,1.772-0.386c0.138-0.024,0.275-0.047,0.413-0.069
			c0.59-0.091,1.178-0.163,1.765-0.201c0.02-0.001,0.04,0,0.06-0.002c0.397-0.024,0.793-0.039,1.188-0.039
			c0.146,0,0.29,0.015,0.435,0.018c0.216,0.005,0.43,0.015,0.645,0.027c0.4,0.022,0.796,0.057,1.191,0.103
			c0.209,0.024,0.418,0.047,0.626,0.078c0.425,0.063,0.844,0.145,1.262,0.235c0.166,0.036,0.333,0.063,0.497,0.104
			c0.577,0.141,1.148,0.303,1.708,0.493c0.066,0.022,0.129,0.052,0.194,0.075c0.49,0.173,0.973,0.363,1.447,0.573
			c0.181,0.081,0.356,0.171,0.535,0.256c0.354,0.17,0.706,0.347,1.049,0.537c0.194,0.108,0.385,0.221,0.576,0.334
			c0.323,0.193,0.639,0.396,0.951,0.607c0.183,0.124,0.365,0.247,0.544,0.377c0.325,0.237,0.639,0.487,0.95,0.743
			c0.146,0.121,0.297,0.235,0.439,0.36c0.442,0.386,0.871,0.789,1.279,1.216c0.039,0.04,0.072,0.084,0.11,0.125
			c0.368,0.391,0.72,0.797,1.056,1.22c0.125,0.157,0.241,0.323,0.362,0.484c0.239,0.32,0.472,0.645,0.693,0.98
			c0.125,0.19,0.244,0.385,0.363,0.58c0.201,0.33,0.392,0.667,0.574,1.011c0.107,0.202,0.213,0.403,0.314,0.61
			c0.182,0.375,0.349,0.76,0.509,1.15c0.076,0.185,0.158,0.365,0.229,0.553c0.218,0.583,0.417,1.178,0.583,1.79
			C-336.102,239.507-342.346,250.395-352.911,253.258z"/>
		<path i:knockout="Off" d="M-381.036,242.627c0-4.911-3.996-8.906-8.907-8.906s-8.906,3.995-8.906,8.906
			c0,4.912,3.995,8.907,8.906,8.907S-381.036,247.539-381.036,242.627z M-389.943,248.295c-3.125,0-5.667-2.543-5.667-5.668
			c0-3.124,2.542-5.668,5.667-5.668c3.126,0,5.668,2.544,5.668,5.668C-384.275,245.752-386.817,248.295-389.943,248.295z"/>
		<path i:knockout="Off" d="M-389.631,265.963c0.837,0,1.518-0.658,1.518-1.468c-0.006-0.082-0.632-8.906-0.647-9.123
			c-0.029-0.467-0.463-0.728-0.874-0.744c-0.386,0.025-0.86,0.223-0.893,0.698c-0.014,0.217-0.622,9.177-0.622,9.177
			C-391.149,265.305-390.468,265.963-389.631,265.963z"/>
		<circle i:knockout="Off" cx="-389.632" cy="270.261" r="2.034"/>
		<path i:knockout="Off" d="M-401.349,246.464c-0.121-0.314-0.391-0.663-0.772-0.663c-0.052,0-0.104,0.007-0.158,0.02
			c-0.212,0.053-8.862,2.105-8.949,2.126c-0.766,0.236-1.192,1.085-0.944,1.886c0.196,0.633,0.785,1.076,1.429,1.076
			c0.143,0,0.284-0.021,0.422-0.064c0.075-0.029,8.319-3.244,8.523-3.321C-401.364,247.354-401.242,246.863-401.349,246.464z"/>
		<path i:knockout="Off" d="M-416.278,249.068c-0.204,0-0.408,0.031-0.604,0.093c-0.519,0.16-0.944,0.514-1.196,0.996
			c-0.254,0.48-0.305,1.03-0.143,1.549c0.266,0.855,1.046,1.432,1.94,1.432c0.204,0,0.407-0.031,0.604-0.092
			c0.518-0.161,0.943-0.514,1.197-0.995c0.252-0.48,0.303-1.03,0.143-1.551C-414.603,249.644-415.383,249.068-416.278,249.068z"/>
		<path i:knockout="Off" d="M-404.596,226.214c0.054,0.062,5.865,6.731,6.007,6.897c0.181,0.21,0.412,0.254,0.573,0.254
			c0.196,0,0.4-0.066,0.575-0.186c0.306-0.266,0.551-0.697,0.29-1.094c-0.119-0.182-4.976-7.629-5.024-7.704
			c-0.27-0.358-0.695-0.567-1.161-0.567c-0.337,0-0.658,0.108-0.931,0.315C-404.935,224.633-405.081,225.567-404.596,226.214z"/>
		<path i:knockout="Off" d="M-406.851,222.729c0.443,0,0.866-0.143,1.221-0.411c0.896-0.674,1.076-1.951,0.402-2.848
			c-0.389-0.516-0.982-0.811-1.628-0.811c-0.443,0-0.866,0.142-1.222,0.41c-0.895,0.676-1.074,1.953-0.4,2.848
			C-408.089,222.434-407.496,222.729-406.851,222.729z"/>
		<path i:knockout="Off" d="M-382.158,233.144c0.198,0,0.366-0.075,0.495-0.22c0.144-0.161,6.08-6.781,6.141-6.849
			c0.231-0.295,0.336-0.673,0.289-1.059c-0.05-0.406-0.258-0.771-0.586-1.027c-0.277-0.216-0.605-0.33-0.951-0.33
			c-0.455,0-0.874,0.202-1.148,0.553c-0.046,0.068-4.983,7.408-5.107,7.589c-0.262,0.387-0.082,0.857,0.232,1.123
			C-382.591,233.062-382.362,233.144-382.158,233.144z"/>
		<path i:knockout="Off" d="M-374.425,222.205c0.361,0.283,0.795,0.432,1.252,0.432c0.631,0,1.216-0.284,1.604-0.781
			c0.69-0.884,0.533-2.166-0.35-2.855c-0.361-0.281-0.795-0.431-1.251-0.431c-0.632,0-1.217,0.285-1.604,0.78
			C-375.464,220.234-375.308,221.515-374.425,222.205z"/>
		<path i:knockout="Off" d="M-368.532,247.505c-0.348-0.085-8.679-2.104-8.891-2.159c-0.055-0.014-0.113-0.021-0.171-0.021
			c-0.343,0-0.666,0.254-0.803,0.629c-0.093,0.377-0.048,0.891,0.394,1.062c0.202,0.078,8.469,3.349,8.553,3.382
			c0.134,0.043,0.28,0.065,0.427,0.065c0.649,0,1.224-0.429,1.427-1.066C-367.344,248.6-367.764,247.75-368.532,247.505z"/>
		<path i:knockout="Off" d="M-362.882,248.766c-0.201-0.064-0.41-0.098-0.619-0.098c-0.889,0-1.667,0.57-1.938,1.419
			c-0.166,0.517-0.119,1.068,0.129,1.551c0.25,0.482,0.672,0.839,1.191,1.005c0.2,0.063,0.407,0.096,0.616,0.096
			c0.89,0,1.669-0.569,1.94-1.416C-361.224,250.255-361.815,249.107-362.882,248.766z"/>
		<path i:knockout="Off" d="M-389.635,229.989c0.472-0.036,0.98-0.262,1.015-0.792c0.019-0.299,0.826-12.579,0.826-12.579
			c0-0.99-0.824-1.814-1.838-1.814c-1.013,0-1.837,0.824-1.837,1.836c0.001-0.001,0.841,12.195,0.859,12.497
			C-390.575,229.663-390.097,229.963-389.635,229.989z"/>
		<path i:knockout="Off" d="M-377.813,239.182c0.152,0.387,0.539,0.841,1.053,0.717c0.291-0.071,12.259-2.94,12.259-2.94
			c0.448-0.14,0.832-0.458,1.06-0.893c0.229-0.434,0.273-0.931,0.129-1.4c-0.295-0.948-1.338-1.51-2.3-1.209
			c0.002,0-11.396,4.417-11.678,4.524C-377.79,238.172-377.932,238.729-377.813,239.182z"/>
		<path i:knockout="Off" d="M-381.325,252.953c-0.209-0.243-0.473-0.295-0.657-0.295c-0.223,0-0.452,0.074-0.647,0.209
			c-0.334,0.291-0.614,0.784-0.32,1.232c0.166,0.251,6.91,10.545,6.91,10.545c0.569,0.756,1.77,0.938,2.561,0.343
			c0.809-0.609,0.971-1.764,0.361-2.571C-373.119,262.416-381.128,253.183-381.325,252.953z"/>
		<path i:knockout="Off" d="M-398.694,252.09c-0.223,0-0.41,0.083-0.555,0.248c-0.199,0.225-8.398,9.404-8.398,9.404
			c-0.288,0.37-0.422,0.851-0.361,1.338s0.307,0.922,0.693,1.224c0.777,0.607,1.973,0.457,2.578-0.315
			c-0.002,0.001,6.844-10.126,7.015-10.376c0.303-0.444,0.101-0.981-0.255-1.284C-398.195,252.183-398.46,252.09-398.694,252.09z"/>
		<path i:knockout="Off" d="M-415.144,236.153c0.465,0.113,11.875,2.906,12.168,2.982c0.44,0.108,0.93-0.188,1.112-0.689
			c0.104-0.429,0.05-0.993-0.449-1.187l-11.735-4.614c-0.161-0.051-0.35-0.081-0.537-0.081c-0.803,0-1.506,0.515-1.75,1.28
			c-0.148,0.468-0.107,0.966,0.117,1.402C-415.992,235.683-415.61,236.005-415.144,236.153z"/>
	</g>
</g>
<g id="Layer_1" i:layer="yes" i:visible="no" i:dimmedPercent="50" i:rgbTrio="#4F008000FFFF" display="none">
	<circle i:knockout="Off" display="inline" fill="#E3D8B5" cx="63.84" cy="63.671" r="77.4"/>
</g>
<g id="Layer_9" i:layer="yes" i:dimmedPercent="50" i:rgbTrio="#000000000000">
	<g>
		<g>
			<path i:knockout="Off" d="M119.41,47.363c5.029-8.135,4.326-8.659,3.758-9.083c-5.004-3.741-13.884-7.738-23.802-7.738
				c-3.405,0-6.683,0.487-9.741,1.448c-0.768,0.242-1.515,0.521-2.253,0.816c0.068-0.832,0.114-1.668,0.114-2.513
				c0-12.797-8.186-23.878-15.846-29.98c-0.184-0.146-0.409-0.224-0.654-0.224c-1.26,0-4.364,3.323-6.968,6.398
				C58.406,0,57.39,0,57.048,0l-0.356,0.026L56.479,0.18c-0.291,0.21-0.583,0.436-0.874,0.67c-0.061,0.049-0.12,0.09-0.181,0.139
				c-7.417,5.848-15.003,17.14-15.003,29.306c0,0.966,0.054,1.921,0.141,2.868c-0.807-0.332-1.619-0.64-2.441-0.898
				c-3.065-0.967-6.321-1.457-9.677-1.457c-11.251,0-20.31,5.283-23.682,7.553c-0.575,0.387-1.525,1.025,3.595,9.129
				c-8.781,3.785-8.506,4.62-8.282,5.295c0.136,0.411,0.288,0.829,0.456,1.252c3.348,8.83,11.835,19.459,23.437,23.117
				c0.522,0.165,1.06,0.296,1.593,0.434c-0.314,0.396-0.635,0.785-0.933,1.199c-7.468,10.389-7.29,24.164-4.633,33.592
				c0.244,0.866,1.322,0.866,1.728,0.866c1.972,0,6.185-0.974,8.065-1.434c0.854,9.526,1.729,9.526,2.438,9.526h0.001
				c0.434,0,0.879-0.015,1.334-0.042c9.436-0.421,22.184-5.163,29.283-15.038c0.373-0.52,0.724-1.05,1.061-1.586
				c0.363,0.573,0.738,1.137,1.135,1.68c7.54,10.337,20.684,14.465,30.47,14.883l0.043,0.001c0.679,0,1.8,0,2.478-9.484
				c1.956,0.443,6.423,1.407,8.284,1.407c0.35,0,1.278,0,1.524-0.752c0.135-0.411,0.26-0.838,0.376-1.277
				c2.545-9.094,2.019-22.686-5.151-32.516c-0.318-0.438-0.661-0.85-0.999-1.266c0.561-0.143,1.124-0.281,1.673-0.453
				c12.207-3.839,20.324-14.971,23.85-24.109C127.836,52.139,128.248,51.072,119.41,47.363z M68.504,69.231
				c-0.006,0.007-0.011,0.013-0.017,0.019c-0.128,0.129-0.263,0.25-0.4,0.366c-0.415,0.35-0.878,0.643-1.375,0.875
				c-0.02,0.009-0.038,0.019-0.058,0.028c-0.034,0.016-0.067,0.033-0.102,0.049c-0.018,0.008-0.033,0.017-0.051,0.023
				c-0.007,0.004-0.016,0.006-0.022,0.009c-0.458,0.191-0.945,0.323-1.449,0.399c-0.014,0.002-0.027,0.005-0.041,0.007
				c-0.011,0.001-0.021,0.003-0.03,0.005c-0.027,0.004-0.054,0.008-0.081,0.012c-0.258,0.033-0.518,0.055-0.783,0.055
				c-0.471,0-0.928-0.057-1.368-0.156c-0.015-0.004-0.029-0.008-0.045-0.012c-0.019-0.005-0.037-0.01-0.056-0.015
				c-0.015-0.004-0.029-0.008-0.044-0.011c-0.487-0.124-0.955-0.301-1.39-0.531c-0.011-0.006-0.023-0.011-0.034-0.018
				c-0.017-0.008-0.033-0.019-0.05-0.027c-0.019-0.011-0.035-0.022-0.053-0.033c-0.092-0.051-0.18-0.106-0.269-0.162
				c-0.447-0.285-0.855-0.624-1.216-1.01c-0.001-0.002-0.002-0.002-0.003-0.004c-0.011-0.011-0.021-0.022-0.03-0.033
				c-0.003-0.004-0.006-0.006-0.009-0.01c-0.018-0.02-0.036-0.039-0.054-0.059c-0.324-0.363-0.61-0.762-0.843-1.195
				c-0.011-0.02-0.019-0.039-0.029-0.059c-0.009-0.018-0.017-0.037-0.025-0.055c-0.008-0.015-0.015-0.03-0.022-0.045
				c-0.32-0.641-0.538-1.343-0.619-2.086c-0.002-0.017-0.006-0.033-0.007-0.05c-0.002-0.013-0.001-0.026-0.003-0.04
				c-0.001-0.013,0-0.025-0.001-0.038c-0.017-0.182-0.028-0.364-0.028-0.551c0-0.323,0.032-0.639,0.08-0.948
				c0.003-0.017,0.005-0.033,0.008-0.05s0.005-0.033,0.008-0.05c0.002-0.011,0.003-0.021,0.005-0.033
				c0.012-0.063,0.019-0.128,0.032-0.19c0.113-0.542,0.301-1.056,0.546-1.534c0.041-0.082,0.083-0.162,0.128-0.24
				c0.017-0.03,0.036-0.059,0.053-0.088c0.007-0.012,0.015-0.023,0.021-0.034c0.005-0.009,0.01-0.018,0.016-0.026
				c0.265-0.438,0.576-0.843,0.937-1.201c0.007-0.007,0.016-0.014,0.022-0.021c0.006-0.005,0.011-0.009,0.017-0.015
				c0.016-0.016,0.033-0.029,0.05-0.045c0.362-0.346,0.766-0.648,1.203-0.9c0.014-0.008,0.027-0.017,0.041-0.024
				c0.016-0.009,0.031-0.021,0.048-0.028c0.012-0.008,0.022-0.016,0.035-0.021c0.438-0.238,0.912-0.419,1.407-0.546
				c0.012-0.003,0.024-0.007,0.037-0.01c0.015-0.004,0.029-0.008,0.044-0.011c0.022-0.006,0.045-0.013,0.067-0.018
				c0.181-0.042,0.364-0.074,0.551-0.1c0.275-0.038,0.556-0.064,0.842-0.064c0.267,0,0.527,0.022,0.785,0.055
				c0.056,0.008,0.11,0.018,0.166,0.025c0.034,0.006,0.069,0.011,0.104,0.017c0.015,0.003,0.029,0.004,0.043,0.007
				c0.01,0.002,0.019,0.002,0.027,0.004c0.503,0.093,0.982,0.246,1.436,0.452c0.011,0.005,0.022,0.011,0.034,0.017
				c0.006,0.002,0.012,0.006,0.018,0.008c0.023,0.012,0.047,0.023,0.07,0.035c0.575,0.277,1.1,0.639,1.56,1.07
				c0.023,0.022,0.048,0.043,0.07,0.064c0.001,0.001,0.002,0.002,0.003,0.002c0.01,0.01,0.021,0.019,0.031,0.029
				c0.354,0.348,0.661,0.74,0.924,1.163c0.007,0.011,0.014,0.022,0.021,0.034c0.013,0.02,0.025,0.041,0.038,0.062
				c0.007,0.013,0.015,0.024,0.021,0.036c0.069,0.118,0.134,0.238,0.195,0.361c0.241,0.482,0.425,0.997,0.534,1.54
				c0.015,0.074,0.022,0.151,0.034,0.226c0.003,0.02,0.006,0.04,0.009,0.061c0.003,0.018,0.006,0.035,0.009,0.053
				c0.003,0.021,0.007,0.044,0.01,0.066c0.035,0.266,0.06,0.535,0.06,0.812c0,0.218-0.012,0.433-0.034,0.646
				c-0.002,0.017-0.006,0.032-0.007,0.049c-0.003,0.02-0.007,0.039-0.01,0.059c-0.002,0.018-0.006,0.035-0.008,0.053
				c-0.102,0.775-0.342,1.508-0.703,2.166c-0.003,0.005-0.006,0.01-0.009,0.015c-0.012,0.021-0.026,0.042-0.038,0.063
				c-0.011,0.019-0.022,0.035-0.033,0.054c-0.244,0.42-0.536,0.809-0.869,1.159c-0.022,0.023-0.044,0.05-0.066,0.074
				C68.514,69.221,68.509,69.227,68.504,69.231z M1.843,52.836c2.192,0,7.774-1.649,9.919-3.98l0.296-0.32l-0.104-0.425
				c-0.688-2.796-3.932-6.604-5.854-8.674c4.917-3.168,11.347-4.913,18.182-4.913c4.192,0,8.401,0.656,12.51,1.952
				c1.629,0.514,3.176,1.14,4.656,1.839C44.033,48.51,51.063,56.988,57.309,61c-0.108,0.189-0.208,0.386-0.302,0.586l-18.562-5.771
				c-0.051-0.947-0.668-1.809-1.626-2.111c-1.233-0.392-2.552,0.293-2.942,1.527c-0.392,1.232,0.291,2.551,1.525,2.941
				c0.965,0.305,1.972-0.051,2.557-0.805l18.518,5.758c-0.039,0.171-0.07,0.345-0.098,0.52c-0.464-0.025-0.938-0.041-1.43-0.041
				c-7.991,0-18.342,3.223-25.95,10.269c-1.252-0.256-2.491-0.551-3.702-0.933C12.631,68.947,4.472,60.075,1.823,52.836
				C1.83,52.836,1.836,52.836,1.843,52.836z M71.881,65.691c6.097,0.209,14.226,2.961,21.109,8.641
				c-0.687,0.035-1.371,0.076-2.064,0.076c-8.133,0-15.589-2.459-20.095-5.561C71.39,67.902,71.763,66.835,71.881,65.691z
				 M81.617,40.639c-1.538,5.439-3.972,9.604-5.674,12.057c-1.938,2.795-4.128,5.119-6.245,6.731
				c-0.691-0.711-1.517-1.288-2.435-1.697C69.205,52.331,74.183,45.494,81.617,40.639z M36.699,74.666
				c-0.734,0-1.461-0.041-2.188-0.082c6.975-5.9,15.463-8.988,21.791-9.072c0.092,1.141,0.426,2.213,0.956,3.165
				C52.916,71.852,45.483,74.666,36.699,74.666z M46.44,41.134c6.288,4.202,10.713,9.737,12.947,14.153
				c0.457,0.904,0.841,1.786,1.147,2.632c-0.78,0.401-1.483,0.928-2.085,1.556C53.943,56.127,48.939,49.51,46.44,41.134z
				 M63.891,95.011c-2.823-7.358-3.163-14.764-2.313-19.813c0.164-0.975,0.373-1.889,0.62-2.733
				c0.608,0.153,1.242,0.243,1.897,0.243c0.445,0,0.88-0.047,1.305-0.118C67.019,78.186,67.047,86.682,63.891,95.011z
				 M102.41,72.679c-1.263,0.396-2.558,0.7-3.867,0.962c-7.552-6.781-17.778-9.881-25.696-9.881c-0.345,0-0.678,0.012-1.01,0.023
				c-0.029-0.204-0.062-0.406-0.105-0.605l18.141-5.646c0.578,0.75,1.576,1.107,2.536,0.814c1.237-0.378,1.934-1.689,1.557-2.928
				c-0.38-1.238-1.687-1.936-2.927-1.556c-0.967,0.295-1.594,1.159-1.646,2.112l-18.182,5.66c-0.114-0.248-0.24-0.487-0.378-0.721
				c6.214-4.115,13.23-12.755,15.716-23.009c1.403-0.646,2.869-1.22,4.399-1.701c4.104-1.29,8.351-1.943,12.622-1.943
				c7.056,0,13.617,1.813,18.135,4.981c-1.788,1.234-5.443,5.804-5.866,8.951l-0.059,0.433l0.328,0.288
				c2.164,1.898,7.004,3.162,9.767,3.758C122.956,59.773,115.342,68.615,102.41,72.679z M118.115,46.357
				c0.346-0.727,0.785-1.447,1.267-2.125c-0.008,0.015-0.018,0.029-0.025,0.043c-0.39,0.671-0.799,1.356-1.21,2.03
				C118.137,46.322,118.126,46.34,118.115,46.357z M64.506,10.104c2.462-1.496,5.115-5.732,6.513-8.189
				c5.9,4.912,12.053,14.824,12.053,28.38c0,1.669-0.122,3.267-0.32,4.804c-9.152,5.452-15.293,14.812-17.32,22.078
				c-0.186-0.031-0.37-0.064-0.56-0.083L64.765,37.62c0.887-0.335,1.521-1.185,1.521-2.188c0-1.295-1.051-2.344-2.345-2.344
				c-1.295,0-2.344,1.049-2.344,2.344c0,1.012,0.644,1.865,1.54,2.194l0.106,19.476c-0.318,0.035-0.629,0.094-0.935,0.166
				c-0.505-1.748-1.249-3.621-2.222-5.545c-3.446-6.812-8.754-12.517-14.877-16.215c-0.24-1.692-0.375-3.432-0.375-5.214
				c0-13.281,6.012-23.731,12.121-28.433c0.639,2.072,3.904,6.936,6.78,8.283l0.396,0.186L64.506,10.104z M6.588,50.07
				c0.74-0.344,1.51-0.689,2.272-1.023c-0.706,0.402-1.488,0.744-2.279,1.026C6.583,50.072,6.585,50.071,6.588,50.07z
				 M21.433,111.443c-1.923-7.433-1.132-19.076,6.78-30.081c0.731-1.018,1.521-1.973,2.339-2.896
				c1.125,0.111,2.259,0.188,3.41,0.188c10.081,0,19.184-4.102,24.398-8.467c0.062,0.066,0.121,0.139,0.186,0.203L47.204,85.55
				c-0.908-0.269-1.928,0.025-2.533,0.826c-0.781,1.032-0.576,2.503,0.455,3.282c1.032,0.783,2.501,0.579,3.282-0.453
				c0.609-0.806,0.613-1.874,0.097-2.678L59.81,71.42c0.199,0.132,0.405,0.256,0.617,0.369c-0.643,1.725-1.164,3.703-1.527,5.861
				c-1.306,7.757-0.332,15.745,2.603,22.484c-0.673,1.201-1.413,2.387-2.244,3.543c-7.752,10.784-18.733,15.763-26.439,16.014
				c0.695-2.054,0.885-7.902-0.669-10.685l-0.213-0.382l-0.436-0.033C28.616,108.372,24.001,110.261,21.433,111.443z M61.022,5.576
				c0.549,0.602,1.109,1.229,1.654,1.854C62.085,6.881,61.526,6.24,61.022,5.576z M31.688,114.296
				c-0.095-0.805-0.183-1.638-0.261-2.46C31.586,112.625,31.666,113.466,31.688,114.296z M96.101,108.633l-0.428,0.083l-0.168,0.402
				c-1.108,2.658-0.755,7.647-0.435,10.455c-7.661-0.492-18.477-4.877-26.465-15.827c-0.861-1.182-1.631-2.393-2.323-3.62
				c4.19-9.765,3.626-20.931,0.987-28.099c0.135-0.061,0.268-0.125,0.397-0.191l11.037,15.525c-0.534,0.784-0.565,1.844,0.012,2.664
				c0.745,1.061,2.208,1.315,3.268,0.57c1.059-0.744,1.314-2.205,0.568-3.266c-0.58-0.826-1.598-1.155-2.521-0.909L69.032,70.946
				c0.243-0.198,0.472-0.413,0.689-0.639c5.292,4.237,14.275,8.086,23.965,8.086c1.131,0,2.244-0.072,3.347-0.177
				c0.856,0.947,1.688,1.936,2.462,2.997c7.827,10.731,9.131,22.718,6.966,30.115C104.727,110.029,99.223,108.02,96.101,108.633z
				 M98.566,110.2c0.802,0.095,1.628,0.281,2.425,0.521C100.064,110.532,99.204,110.344,98.566,110.2z"/>
		</g>
	</g>
</g>
<g id="Layer_8" i:layer="yes" i:visible="no" i:dimmedPercent="50" i:rgbTrio="#800080008000" display="none">
	<circle i:knockout="Off" display="inline" fill="#E3D8B5" cx="-151.973" cy="56.233" r="77.4"/>
</g>
<g id="Layer_10" i:layer="yes" i:visible="no" i:dimmedPercent="50" i:rgbTrio="#FFFF66660000" display="none">
	<g display="inline">
		
			<polygon i:knockout="Off" fill="none" stroke="#000000" stroke-width="2.1" stroke-linecap="round" stroke-linejoin="round" stroke-miterlimit="10" points="
			-151.959,56.233 -118.344,113.071 -185.311,113.071 		"/>
		
			<line i:knockout="Off" fill="none" stroke="#000000" stroke-width="2.1" stroke-linecap="round" stroke-linejoin="round" stroke-miterlimit="10" x1="-151.979" y1="93.952" x2="-151.979" y2="56.627"/>
		
			<line i:knockout="Off" fill="none" stroke="#000000" stroke-width="2.1" stroke-linecap="round" stroke-linejoin="round" stroke-miterlimit="10" x1="-151.965" y1="93.971" x2="-184.432" y2="112.545"/>
		
			<line i:knockout="Off" fill="none" stroke="#000000" stroke-width="2.1" stroke-linecap="round" stroke-linejoin="round" stroke-miterlimit="10" x1="-151.955" y1="93.963" x2="-119.508" y2="112.41"/>
		
			<polygon i:knockout="Off" fill="none" stroke="#000000" stroke-width="2.1" stroke-linecap="round" stroke-linejoin="round" stroke-miterlimit="10" points="
			-185.306,113.071 -218.918,56.233 -151.953,56.233 		"/>
		
			<line i:knockout="Off" fill="none" stroke="#000000" stroke-width="2.1" stroke-linecap="round" stroke-linejoin="round" stroke-miterlimit="10" x1="-185.298" y1="75.356" x2="-185.298" y2="112.68"/>
		
			<line i:knockout="Off" fill="none" stroke="#000000" stroke-width="2.1" stroke-linecap="round" stroke-linejoin="round" stroke-miterlimit="10" x1="-185.299" y1="75.334" x2="-152.846" y2="56.758"/>
		
			<line i:knockout="Off" fill="none" stroke="#000000" stroke-width="2.1" stroke-linecap="round" stroke-linejoin="round" stroke-miterlimit="10" x1="-185.311" y1="75.344" x2="-217.755" y2="56.893"/>
		
			<polygon i:knockout="Off" fill="none" stroke="#000000" stroke-width="2.1" stroke-linecap="round" stroke-linejoin="round" stroke-miterlimit="10" points="
			-118.366,113.071 -151.979,56.233 -85.013,56.233 		"/>
		
			<line i:knockout="Off" fill="none" stroke="#000000" stroke-width="2.1" stroke-linecap="round" stroke-linejoin="round" stroke-miterlimit="10" x1="-118.359" y1="75.356" x2="-118.359" y2="112.68"/>
		
			<line i:knockout="Off" fill="none" stroke="#000000" stroke-width="2.1" stroke-linecap="round" stroke-linejoin="round" stroke-miterlimit="10" x1="-118.362" y1="75.334" x2="-85.895" y2="56.758"/>
		
			<line i:knockout="Off" fill="none" stroke="#000000" stroke-width="2.1" stroke-linecap="round" stroke-linejoin="round" stroke-miterlimit="10" x1="-118.373" y1="75.344" x2="-150.817" y2="56.893"/>
		
			<polygon i:knockout="Off" fill="none" stroke="#000000" stroke-width="2.1" stroke-linecap="round" stroke-linejoin="round" stroke-miterlimit="10" points="
			-185.578,-0.604 -151.979,56.233 -218.933,56.233 		"/>
		
			<line i:knockout="Off" fill="none" stroke="#000000" stroke-width="2.1" stroke-linecap="round" stroke-linejoin="round" stroke-miterlimit="10" x1="-185.599" y1="37.112" x2="-185.599" y2="-0.211"/>
		
			<line i:knockout="Off" fill="none" stroke="#000000" stroke-width="2.1" stroke-linecap="round" stroke-linejoin="round" stroke-miterlimit="10" x1="-185.599" y1="37.133" x2="-218.051" y2="55.709"/>
		
			<line i:knockout="Off" fill="none" stroke="#000000" stroke-width="2.1" stroke-linecap="round" stroke-linejoin="round" stroke-miterlimit="10" x1="-185.575" y1="37.125" x2="-153.129" y2="55.576"/>
		
			<polygon i:knockout="Off" fill="none" stroke="#000000" stroke-width="2.1" stroke-linecap="round" stroke-linejoin="round" stroke-miterlimit="10" points="
			-118.643,-0.604 -85.028,56.233 -151.995,56.233 		"/>
		
			<line i:knockout="Off" fill="none" stroke="#000000" stroke-width="2.1" stroke-linecap="round" stroke-linejoin="round" stroke-miterlimit="10" x1="-118.649" y1="37.112" x2="-118.649" y2="-0.211"/>
		
			<line i:knockout="Off" fill="none" stroke="#000000" stroke-width="2.1" stroke-linecap="round" stroke-linejoin="round" stroke-miterlimit="10" x1="-118.647" y1="37.133" x2="-151.101" y2="55.709"/>
		
			<line i:knockout="Off" fill="none" stroke="#000000" stroke-width="2.1" stroke-linecap="round" stroke-linejoin="round" stroke-miterlimit="10" x1="-118.635" y1="37.125" x2="-86.192" y2="55.576"/>
		
			<polygon i:knockout="Off" fill="none" stroke="#000000" stroke-width="2.1" stroke-linecap="round" stroke-linejoin="round" stroke-miterlimit="10" points="
			-151.99,56.233 -185.601,-0.604 -118.635,-0.604 		"/>
		
			<line i:knockout="Off" fill="none" stroke="#000000" stroke-width="2.1" stroke-linecap="round" stroke-linejoin="round" stroke-miterlimit="10" x1="-151.98" y1="18.517" x2="-151.98" y2="55.84"/>
		
			<line i:knockout="Off" fill="none" stroke="#000000" stroke-width="2.1" stroke-linecap="round" stroke-linejoin="round" stroke-miterlimit="10" x1="-151.983" y1="18.496" x2="-119.518" y2="-0.08"/>
		
			<line i:knockout="Off" fill="none" stroke="#000000" stroke-width="2.1" stroke-linecap="round" stroke-linejoin="round" stroke-miterlimit="10" x1="-151.993" y1="18.504" x2="-184.438" y2="0.055"/>
	</g>
</g>
<g id="Layer_4" i:layer="yes" i:visible="no" i:dimmedPercent="50" i:rgbTrio="#4F004F00FFFF" display="none">
	<circle i:knockout="Off" display="inline" fill="#E3D8B5" cx="-154.901" cy="242.772" r="77.4"/>
</g>
<g id="Layer_2" i:layer="yes" i:visible="no" i:dimmedPercent="50" i:rgbTrio="#FFFF4F004F00" display="none">
	<path i:knockout="Off" display="inline" fill="#B49C6E" d="M-92.06,225.892c-3.627-13.376-15.828-22.717-29.674-22.717
		c-0.916,0-1.832,0.042-2.744,0.124c-2.354-14.635-15.074-25.849-30.364-25.849c-14.352,0-26.439,9.881-29.816,23.197
		c-0.995-0.098-1.995-0.146-2.999-0.146c-13.139-0.001-24.83,8.352-29.091,20.787c-2.664,7.771-2.143,16.112,1.469,23.491
		c2.542,5.195,6.4,9.473,11.173,12.479c-5.863,12.817-2.279,28.471,9.417,37.319c5.386,4.074,11.797,6.228,18.538,6.228
		c7.83,0,15.151-2.879,20.769-8.042c5.652,5.305,13.076,8.27,21.012,8.27c6.792,0,13.243-2.183,18.65-6.313
		c6.529-4.985,10.727-12.216,11.816-20.358c0.66-4.925,0.137-9.828-1.484-14.377C-94.237,252.975-88.44,239.247-92.06,225.892z"/>
	<path i:knockout="Off" display="inline" fill="#E3D8B5" d="M-96.053,226.994c-3.115-11.488-13.595-19.511-25.483-19.511
		c-2.318,0-4.637,0.308-6.891,0.917v-0.381c0-14.564-11.85-26.415-26.416-26.415c-13.77,0-25.113,10.592-26.31,24.057
		c-2.191-0.577-4.436-0.866-6.7-0.869c-11.284,0-21.325,7.174-24.985,17.856c-2.288,6.672-1.841,13.838,1.261,20.177
		c2.821,5.763,7.529,10.214,13.379,12.693c-7.747,11.53-5.214,27.297,6,35.781c4.626,3.5,10.13,5.351,15.919,5.351
		c8.274,0,15.887-3.742,20.927-10.277l0.095,0.123c5.041,6.599,12.697,10.383,21.007,10.383c5.833,0,11.371-1.877,16.016-5.425
		c5.607-4.281,9.213-10.491,10.149-17.484c0.743-5.539-0.26-11.045-2.837-15.882C-99.153,252.927-92.593,239.763-96.053,226.994z"/>
</g>
<g id="Layer_7" i:layer="yes" i:visible="no" i:dimmedPercent="50" i:rgbTrio="#4F00FFFFFFFF" display="none">
	<circle i:knockout="Off" display="inline" fill="#E3D8B5" cx="66.389" cy="252.033" r="77.4"/>
	<g display="inline">
		<g>
			<g>
				<g>
					<g>
						<circle i:knockout="Off" fill="#B39B6E" cx="133.395" cy="252.035" r="3.6"/>
						<circle i:knockout="Off" fill="#B39B6E" cx="-0.617" cy="252.035" r="3.6"/>
					</g>
					<g>
						<circle i:knockout="Off" fill="#E3D8B5" cx="66.388" cy="319.04" r="1.26"/>
						<circle i:knockout="Off" fill="#E3D8B5" cx="66.388" cy="185.027" r="1.26"/>
					</g>
				</g>
				<g>
					<g>
						<circle i:knockout="Off" fill="#B39B6E" cx="113.769" cy="299.415" r="1.98"/>
						<circle i:knockout="Off" fill="#B39B6E" cx="19.008" cy="204.654" r="1.98"/>
					</g>
					<g>
						<circle i:knockout="Off" fill="#B39B6E" cx="19.008" cy="299.415" r="1.98"/>
						<circle i:knockout="Off" fill="#B39B6E" cx="113.769" cy="204.654" r="1.98"/>
					</g>
				</g>
			</g>
			<g>
				<g>
					<g>
						<circle i:knockout="Off" fill="#B39B6E" cx="128.294" cy="277.675" r="3.059"/>
						<circle i:knockout="Off" fill="#B39B6E" cx="4.484" cy="226.391" r="3.059"/>
					</g>
					<g>
						<circle i:knockout="Off" fill="#E3D8B5" cx="40.746" cy="313.938" r="1.26"/>
						<circle i:knockout="Off" fill="#E3D8B5" cx="92.031" cy="190.127" r="1.259"/>
					</g>
				</g>
				<g>
					<g>
						<circle i:knockout="Off" fill="#E3D8B5" cx="92.031" cy="313.938" r="1.26"/>
						<circle i:knockout="Off" fill="#E3D8B5" cx="40.747" cy="190.127" r="1.259"/>
					</g>
					<g>
						<path i:knockout="Off" fill="#B39B6E" d="M3.313,274.849c1.56-0.646,3.35,0.096,3.997,1.656
							c0.646,1.561-0.095,3.35-1.656,3.998c-1.561,0.645-3.351-0.096-3.998-1.658C1.011,277.286,1.753,275.495,3.313,274.849z"/>
						<circle i:knockout="Off" fill="#B39B6E" cx="128.294" cy="226.391" r="3.059"/>
					</g>
				</g>
			</g>
		</g>
		<g>
			<g>
				<g>
					<g>
						<circle i:knockout="Off" fill="#B39B6E" cx="132.106" cy="238.961" r="3.419"/>
						<circle i:knockout="Off" fill="#B39B6E" cx="0.671" cy="265.106" r="3.42"/>
					</g>
					<g>
						<circle i:knockout="Off" fill="#E3D8B5" cx="79.461" cy="317.753" r="1.26"/>
						<circle i:knockout="Off" fill="#E3D8B5" cx="53.316" cy="186.315" r="1.259"/>
					</g>
				</g>
				<g>
					<g>
						<circle i:knockout="Off" fill="#B39B6E" cx="122.102" cy="289.261" r="2.52"/>
						<circle i:knockout="Off" fill="#B39B6E" cx="10.675" cy="214.808" r="2.519"/>
					</g>
					<g>
						<circle i:knockout="Off" fill="#B39B6E" cx="29.163" cy="307.748" r="1.26"/>
						<circle i:knockout="Off" fill="#B39B6E" cx="103.616" cy="196.321" r="1.26"/>
					</g>
				</g>
			</g>
			<g>
				<g>
					<g>
						<circle i:knockout="Off" fill="#B39B6E" cx="132.106" cy="265.104" r="3.419"/>
						<circle i:knockout="Off" fill="#B39B6E" cx="0.672" cy="238.961" r="3.419"/>
					</g>
					<g>
						<circle i:knockout="Off" fill="#E3D8B5" cx="53.316" cy="317.751" r="1.26"/>
						<circle i:knockout="Off" fill="#E3D8B5" cx="79.461" cy="186.314" r="1.26"/>
					</g>
				</g>
				<g>
					<g>
						<circle i:knockout="Off" fill="#B39B6E" cx="103.615" cy="307.746" r="1.259"/>
						<circle i:knockout="Off" fill="#B39B6E" cx="29.163" cy="196.319" r="1.26"/>
					</g>
					<g>
						<circle i:knockout="Off" fill="#B39B6E" cx="10.675" cy="289.26" r="2.519"/>
						<circle i:knockout="Off" fill="#B39B6E" cx="122.103" cy="214.806" r="2.52"/>
					</g>
				</g>
			</g>
		</g>
	</g>
	<g display="inline">
		<g i:knockout="Off">
			<path i:knockout="Off" fill-rule="evenodd" clip-rule="evenodd" fill="#E3D8B5" d="M66.042,308.992
				c-10.993,0-20.771-3.429-26.155-9.171c-3.232-3.448-4.807-7.544-4.685-12.185c-12.669-8.438-20.079-25.324-19.379-44.291
				c0.853-23.142,18.642-43.378,41.378-47.072c3.233-0.525,6.465-0.792,9.606-0.792c17.928,0,33.449,8.511,42.584,23.35
				c9.624,15.633,10.149,35.316,1.405,52.652c-2.875,5.699-7.162,9.822-14.003,15.293c0.293,4.922-1.229,9.25-4.532,12.872
				C86.929,305.5,77.127,308.992,66.042,308.992z"/>
			<path i:knockout="Off" fill="#B39B6E" d="M66.808,196.748c38.089-0.002,60.383,39.425,42.86,74.167
				c-2.945,5.838-7.61,10.064-14.186,15.291c1.334,14.392-14.049,21.521-29.44,21.521c-15.212,0-30.433-6.961-29.544-20.756
				c-12.648-8.043-20.106-24.725-19.411-43.579c0.855-23.213,18.68-42.355,40.317-45.87
				C60.63,196.999,63.771,196.748,66.808,196.748 M66.811,194.218v2.53V194.218c-3.213,0-6.513,0.272-9.812,0.808
				c-23.32,3.788-41.565,24.541-42.44,48.274c-0.705,19.12,6.689,36.203,19.375,45.004c0.051,4.654,1.774,8.909,5.03,12.383
				c5.619,5.993,15.742,9.57,27.078,9.57c11.435,0,21.586-3.646,27.154-9.755c3.343-3.667,5.018-8.185,4.888-13.138
				c6.691-5.386,10.936-9.548,13.843-15.31c8.942-17.731,8.397-37.876-1.459-53.886C101.097,202.947,85.185,194.218,66.811,194.218
				L66.811,194.218z"/>
		</g>
		<g i:knockout="Off">
			<path i:knockout="Off" fill-rule="evenodd" clip-rule="evenodd" fill="#E3D8B5" d="M66.042,305.975
				c-11.118,0-20.95-3.412-26.301-9.127c-3.12-3.332-4.641-7.274-4.525-11.728c-12.669-8.244-20.078-24.741-19.378-43.271
				c0.854-22.61,18.639-42.379,41.37-45.985c3.231-0.513,6.461-0.772,9.6-0.772c18.23,0,33.889,8.543,42.961,23.438
				c9.235,15.163,9.612,34.16,1.01,50.817c-2.877,5.567-7.162,9.593-13.998,14.932c0.283,4.725-1.186,8.892-4.372,12.396
				C87.111,302.498,77.255,305.975,66.042,305.975z"/>
			<path i:knockout="Off" fill="#B39B6E" d="M66.808,196.342c38.089-0.002,60.383,38.503,42.86,72.433
				c-2.945,5.699-7.61,9.828-14.186,14.932c1.334,14.056-14.049,21.019-29.44,21.019c-15.212,0-30.433-6.798-29.544-20.271
				c-12.648-7.855-20.106-24.146-19.411-42.558c0.855-22.67,18.68-41.365,40.317-44.798
				C60.63,196.587,63.771,196.342,66.808,196.342 M66.811,193.842v2.5V193.842c-3.208,0-6.504,0.265-9.798,0.788
				c-23.311,3.698-41.549,23.978-42.424,47.172c-0.706,18.689,6.688,35.385,19.375,43.987c0.058,4.465,1.724,8.558,4.864,11.913
				c5.583,5.963,15.756,9.522,27.214,9.522c11.559,0,21.761-3.629,27.291-9.709c3.224-3.544,4.842-7.893,4.723-12.646
				c6.683-5.255,10.925-9.318,13.833-14.947c8.805-17.048,8.41-36.503-1.054-52.042C101.531,202.603,85.484,193.842,66.811,193.842
				L66.811,193.842z"/>
		</g>
		<g i:knockout="Off">
			<path i:knockout="Off" fill-rule="evenodd" clip-rule="evenodd" fill="#E3D8B5" d="M66.042,307.977
				c-11.118,0-20.95-3.412-26.301-9.127c-3.12-3.332-4.641-7.274-4.525-11.728c-12.669-8.244-20.078-24.741-19.378-43.271
				c0.854-22.61,18.639-42.379,41.37-45.985c3.231-0.513,6.461-0.772,9.6-0.772c18.23,0,33.889,8.543,42.961,23.438
				c9.235,15.163,9.612,34.16,1.01,50.817c-2.877,5.567-7.162,9.593-13.998,14.932c0.283,4.725-1.186,8.892-4.372,12.396
				C87.111,304.5,77.255,307.977,66.042,307.977z"/>
			<path i:knockout="Off" fill="#B39B6E" d="M66.808,198.344c38.089-0.002,60.383,38.503,42.86,72.433
				c-2.945,5.699-7.61,9.828-14.186,14.932c1.334,14.056-14.049,21.019-29.44,21.019c-15.212,0-30.433-6.798-29.544-20.271
				c-12.648-7.855-20.106-24.146-19.411-42.558c0.855-22.67,18.68-41.365,40.317-44.798
				C60.63,198.589,63.771,198.344,66.808,198.344 M66.811,195.844v2.5V195.844c-3.208,0-6.504,0.265-9.798,0.788
				c-23.311,3.698-41.549,23.978-42.424,47.172c-0.706,18.689,6.688,35.385,19.375,43.987c0.058,4.465,1.724,8.558,4.864,11.913
				c5.583,5.963,15.756,9.522,27.214,9.522c11.559,0,21.761-3.629,27.291-9.709c3.224-3.544,4.842-7.893,4.723-12.646
				c6.683-5.255,10.925-9.318,13.833-14.947c8.805-17.048,8.41-36.503-1.054-52.042C101.531,204.605,85.484,195.844,66.811,195.844
				L66.811,195.844z"/>
		</g>
		<g i:knockout="Off">
			<path i:knockout="Off" fill-rule="evenodd" clip-rule="evenodd" fill="#E3D8B5" d="M95.482,285.708
				c2.652,27.947-60.772,27.852-58.984,0.748c-12.648-7.855-20.106-24.146-19.411-42.558c0.855-22.67,18.68-41.365,40.317-44.798
				c43.68-6.929,71.184,35.04,52.264,71.676C106.723,276.476,102.058,280.604,95.482,285.708z"/>
		</g>
		<g>
			<path i:knockout="Off" fill="#B39B6E" d="M108.558,256.006c0-3.113-2.522-5.637-5.636-5.637c-0.223,0-0.44,0.016-0.657,0.041
				c0.172-0.133,0.337-0.277,0.494-0.434c2.201-2.201,2.201-5.77,0-7.971s-5.771-2.201-7.972-0.002
				c-0.157,0.158-0.3,0.322-0.434,0.492c0.025-0.215,0.041-0.432,0.041-0.654c0-3.113-2.523-5.637-5.637-5.637
				s-5.637,2.523-5.637,5.637c0,0.223,0.016,0.439,0.041,0.656c-0.134-0.17-0.277-0.336-0.435-0.494
				c-2.2-2.199-5.77-2.199-7.972,0.002c-2.2,2.201-2.2,5.77,0,7.971c0.158,0.156,0.322,0.299,0.493,0.434
				c-0.216-0.025-0.434-0.041-0.655-0.041c-3.113,0-5.636,2.523-5.636,5.637s2.522,5.637,5.636,5.637
				c0.222,0,0.439-0.016,0.655-0.041c-0.171,0.135-0.335,0.277-0.493,0.435c-2.2,2.199-2.2,5.77,0.001,7.973
				c2.201,2.199,5.771,2.199,7.971,0c0.157-0.158,0.3-0.324,0.435-0.494c-0.025,0.215-0.041,0.434-0.041,0.654
				c0,3.113,2.523,5.637,5.637,5.637s5.637-2.523,5.637-5.637c0-0.221-0.016-0.439-0.041-0.652c0.134,0.17,0.276,0.334,0.434,0.492
				c2.201,2.199,5.771,2.199,7.972,0c2.201-2.203,2.201-5.773,0-7.973c-0.157-0.157-0.322-0.3-0.494-0.435
				c0.217,0.025,0.435,0.041,0.657,0.041C106.035,261.643,108.558,259.119,108.558,256.006z"/>
			<circle i:knockout="Off" fill="#E3D8B5" cx="88.758" cy="256.006" r="12.811"/>
		</g>
		<g>
			<path i:knockout="Off" fill="#B39B6E" d="M62.701,256.006c0-3.113-2.523-5.637-5.637-5.637c-0.223,0-0.44,0.016-0.655,0.041
				c0.169-0.133,0.335-0.277,0.491-0.434c2.203-2.201,2.203-5.77,0-7.971c-2.2-2.201-5.77-2.201-7.97,0
				c-0.157,0.156-0.3,0.32-0.434,0.49c0.024-0.215,0.041-0.432,0.041-0.652c0-3.114-2.524-5.638-5.638-5.638
				s-5.636,2.523-5.636,5.638c0,0.221,0.017,0.439,0.041,0.654c-0.134-0.17-0.277-0.336-0.435-0.492
				c-2.201-2.201-5.771-2.201-7.972,0c-2.2,2.201-2.2,5.77,0,7.971c0.157,0.156,0.322,0.299,0.492,0.434
				c-0.215-0.025-0.432-0.041-0.654-0.041c-3.113,0-5.637,2.523-5.637,5.637s2.523,5.637,5.637,5.637
				c0.223,0,0.439-0.016,0.654-0.041c-0.17,0.135-0.335,0.277-0.492,0.435c-2.2,2.199-2.2,5.77,0.001,7.971
				c2.2,2.201,5.77,2.201,7.971,0c0.157-0.156,0.3-0.324,0.435-0.492c-0.024,0.215-0.041,0.432-0.041,0.654
				c0,3.113,2.522,5.637,5.636,5.637s5.638-2.523,5.638-5.637c0-0.221-0.017-0.439-0.041-0.652c0.134,0.168,0.276,0.334,0.434,0.49
				c2.2,2.201,5.77,2.201,7.97,0c2.203-2.201,2.203-5.771,0-7.971c-0.156-0.157-0.322-0.3-0.491-0.435
				c0.215,0.025,0.433,0.041,0.655,0.041C60.178,261.643,62.701,259.119,62.701,256.006z"/>
			<circle i:knockout="Off" fill="#E3D8B5" cx="42.901" cy="256.006" r="12.81"/>
		</g>
		<g>
			
				<ellipse i:knockout="Off" fill-rule="evenodd" clip-rule="evenodd" fill="#B39B6E" cx="69.845" cy="293.878" rx="3.599" ry="3.764"/>
			
				<ellipse i:knockout="Off" fill-rule="evenodd" clip-rule="evenodd" fill="#B39B6E" cx="69.845" cy="289.397" rx="3.599" ry="3.764"/>
			
				<rect x="66.246" y="289.366" i:knockout="Off" fill-rule="evenodd" clip-rule="evenodd" fill="#B39B6E" width="7.2" height="4.52"/>
		</g>
		<g>
			
				<ellipse i:knockout="Off" fill-rule="evenodd" clip-rule="evenodd" fill="#B39B6E" cx="61.244" cy="293.878" rx="3.6" ry="3.764"/>
			
				<ellipse i:knockout="Off" fill-rule="evenodd" clip-rule="evenodd" fill="#B39B6E" cx="61.244" cy="289.397" rx="3.6" ry="3.764"/>
			
				<rect x="57.645" y="289.366" i:knockout="Off" fill-rule="evenodd" clip-rule="evenodd" fill="#B39B6E" width="7.2" height="4.52"/>
		</g>
		<g>
			
				<ellipse i:knockout="Off" fill-rule="evenodd" clip-rule="evenodd" fill="#B39B6E" cx="78.089" cy="292.886" rx="3.24" ry="3.406"/>
			
				<ellipse i:knockout="Off" fill-rule="evenodd" clip-rule="evenodd" fill="#B39B6E" cx="78.089" cy="288.831" rx="3.24" ry="3.406"/>
			
				<rect x="74.85" y="288.804" i:knockout="Off" fill-rule="evenodd" clip-rule="evenodd" fill="#B39B6E" width="6.48" height="4.088"/>
		</g>
		<g>
			
				<ellipse i:knockout="Off" fill-rule="evenodd" clip-rule="evenodd" fill="#B39B6E" cx="53.001" cy="292.886" rx="3.24" ry="3.406"/>
			
				<ellipse i:knockout="Off" fill-rule="evenodd" clip-rule="evenodd" fill="#B39B6E" cx="53.001" cy="288.831" rx="3.24" ry="3.406"/>
			
				<rect x="49.761" y="288.804" i:knockout="Off" fill-rule="evenodd" clip-rule="evenodd" fill="#B39B6E" width="6.48" height="4.088"/>
		</g>
		<g>
			
				<ellipse i:knockout="Off" fill-rule="evenodd" clip-rule="evenodd" fill="#B39B6E" cx="85.322" cy="291.134" rx="2.52" ry="2.752"/>
			
				<ellipse i:knockout="Off" fill-rule="evenodd" clip-rule="evenodd" fill="#B39B6E" cx="85.322" cy="287.858" rx="2.52" ry="2.752"/>
			
				<rect x="82.802" y="287.835" i:knockout="Off" fill-rule="evenodd" clip-rule="evenodd" fill="#B39B6E" width="5.04" height="3.305"/>
		</g>
		<g>
			
				<ellipse i:knockout="Off" fill-rule="evenodd" clip-rule="evenodd" fill="#B39B6E" cx="45.769" cy="291.134" rx="2.52" ry="2.752"/>
			
				<ellipse i:knockout="Off" fill-rule="evenodd" clip-rule="evenodd" fill="#B39B6E" cx="45.769" cy="287.858" rx="2.52" ry="2.752"/>
			
				<rect x="43.249" y="287.835" i:knockout="Off" fill-rule="evenodd" clip-rule="evenodd" fill="#B39B6E" width="5.04" height="3.305"/>
		</g>
		<g>
			<g i:knockout="Off">
				<circle i:knockout="Off" fill="#B39B6E" cx="75.121" cy="223.725" r="2.426"/>
				<circle i:knockout="Off" fill="#B39B6E" cx="56.082" cy="223.91" r="2.426"/>
			</g>
			<g>
				<g i:knockout="Off">
					<path i:knockout="Off" fill="#B39B6E" d="M73.535,210.586c0-1.568-1.03-3.182-3.413-3.139c-2.498,0.045-3.812,1.795-4.47,2.152
						c-0.866-0.492-2.257-2.307-4.752-2.195c-3.002,0.135-3.405,2.957-3.181,3.943c0.358,3.764,6.361,7.885,7.933,8.658
						C67.269,219.068,73.446,214.574,73.535,210.586z"/>
				</g>
				<path i:knockout="Off" fill="#B39B6E" d="M69.894,235.908c0,2.371-1.922,4.293-4.293,4.293s-4.293-1.922-4.293-4.293
					c0-5.299,3.732-9.893,4.105-9.893C65.831,226.016,69.894,230.789,69.894,235.908z"/>
			</g>
		</g>
		<g>
			<g>
				<path i:knockout="Off" fill="#B39B6E" d="M96.648,223.686c0.129,0.846-0.105,1.709-0.532,2.402
					c-1.034,1.682-4.74,2.311-6.526-0.402c-4.147-6.303-6.684-4.582-6.786-5.447c-0.079-0.67,1.169-0.91,2.134-1.066
					C90.021,218.344,95.964,219.195,96.648,223.686z"/>
				<path i:knockout="Off" fill="#B39B6E" d="M34.553,223.686c-0.129,0.846,0.106,1.709,0.532,2.402
					c1.034,1.682,4.74,2.311,6.526-0.402c4.147-6.303,6.684-4.582,6.786-5.447c0.079-0.67-1.168-0.91-2.134-1.066
					C41.18,218.344,35.237,219.195,34.553,223.686z"/>
			</g>
			<g>
				<path i:knockout="Off" fill="#B39B6E" d="M87.525,210.314c0.855,1.002,0.539,2.783-1.096,3.307
					c-2.863,0.918-3.363,2.25-3.841,2.07c-0.371-0.143-0.332-0.859-0.285-1.406c0.163-1.967,0.759-3.58,1.933-4.387
					C85.555,208.992,86.85,209.527,87.525,210.314z"/>
				<path i:knockout="Off" fill="#B39B6E" d="M43.911,210.314c-0.856,1.002-0.539,2.783,1.096,3.307
					c2.863,0.918,3.362,2.25,3.841,2.07c0.371-0.143,0.331-0.859,0.285-1.406c-0.164-1.967-0.759-3.58-1.934-4.387
					C45.881,208.992,44.586,209.527,43.911,210.314z"/>
			</g>
		</g>
		<g i:knockout="Off">
			<path i:knockout="Off" fill="#B39B6E" d="M59.859,277.155c0,1.113,0.734,2.262,2.428,2.23c1.778-0.031,2.713-1.275,3.182-1.531
				c0.615,0.352,1.605,1.643,3.379,1.562c2.136-0.096,2.422-2.104,2.264-2.805c-0.256-2.678-4.526-5.609-5.643-6.158
				C64.318,271.12,59.924,274.319,59.859,277.155z"/>
		</g>
		<path i:knockout="Off" fill="none" stroke="#E3D8B5" stroke-width="1.3439" d="M89.386,289.218
			c-11.081,3.395-36.7,4.426-48.617-0.379"/>
	</g>
</g>
<g id="Layer_3" i:layer="yes" i:visible="no" i:dimmedPercent="50" i:rgbTrio="#4F00FFFF4F00" display="none">
	<g i:knockout="Off" display="inline">
		<path i:knockout="Off" fill="#B49C6E" d="M-134.6,291.333c-6.736,0-12.941-3.065-17.026-8.411l-3.731-4.886l-3.465,4.58
			c-4.083,5.397-10.312,8.491-17.087,8.491c-4.688,0-9.147-1.497-12.896-4.333c-9.412-7.12-11.278-20.571-4.159-29.983l2.859-3.781
			l-4.119-1.412c-5.409-1.852-9.772-5.703-12.285-10.838c-2.514-5.136-2.876-10.941-1.021-16.351
			c2.966-8.654,11.102-14.469,20.245-14.469c2.358,0,4.694,0.392,6.944,1.163l4.097,1.404v-3.953
			c0-11.803,9.602-21.404,21.405-21.404c11.803,0,21.405,9.602,21.405,21.404v6.332l5.718-1.549
			c1.837-0.498,3.726-0.751,5.611-0.751c9.634,0,18.125,6.502,20.649,15.81c3.086,11.394-3.67,23.172-15.061,26.26l-2.346,0.635
			l1.258,1.648c3.472,4.541,4.965,10.165,4.205,15.831c-0.76,5.667-3.68,10.699-8.225,14.169c-3.764,2.875-8.25,4.396-12.974,4.396
			C-134.598,291.333-134.598,291.333-134.6,291.333z"/>
		<path i:knockout="Off" fill="#B49C6E" d="M-154.84,188.149c11.269,0,20.405,9.136,20.405,20.404v7.638l6.981-1.89
			c1.787-0.485,3.582-0.716,5.349-0.716c8.987,0,17.22,5.983,19.685,15.072c2.946,10.875-3.481,22.084-14.357,25.031l-3.782,1.023
			l2.161,2.83c6.842,8.955,5.125,21.761-3.832,28.602c-3.697,2.823-8.049,4.188-12.368,4.188c-6.141,0-12.214-2.762-16.231-8.019
			l-4.53-5.934l-4.259,5.633c-4.013,5.303-10.114,8.096-16.29,8.096c-4.288,0-8.61-1.348-12.293-4.133
			c-8.987-6.799-10.763-19.594-3.964-28.582l3.693-4.883l-5.426-1.859c-10.661-3.653-16.341-15.258-12.686-25.918
			c2.903-8.468,10.822-13.794,19.299-13.794c2.195,0,4.427,0.358,6.62,1.109l5.421,1.857v-5.353
			C-175.245,197.286-166.108,188.149-154.84,188.149 M-154.84,186.149c-12.354,0-22.405,10.05-22.405,22.405v2.554l-2.772-0.951
			c-2.354-0.806-4.799-1.216-7.268-1.216c-9.57,0-18.087,6.086-21.191,15.146c-1.941,5.66-1.562,11.738,1.069,17.115
			c2.631,5.373,7.198,9.404,12.859,11.344l2.812,0.965l-2.026,2.678c-7.451,9.852-5.499,23.93,4.353,31.384
			c3.924,2.969,8.593,4.537,13.5,4.537c7.092,0,13.611-3.24,17.885-8.89l2.671-3.529l2.932,3.839
			c4.276,5.595,10.771,8.806,17.821,8.806c4.946,0,9.644-1.591,13.583-4.601c4.757-3.634,7.814-8.899,8.609-14.831
			s-0.769-11.818-4.402-16.573l-0.354-0.462l0.907-0.247c11.924-3.231,18.996-15.561,15.767-27.486
			c-2.645-9.743-11.532-16.549-21.616-16.549c-1.974,0-3.95,0.264-5.873,0.786l-4.456,1.206v-5.023
			C-132.435,196.199-142.485,186.149-154.84,186.149L-154.84,186.149z"/>
	</g>
	<path i:knockout="Off" display="inline" fill="#E3D8B5" d="M-102.421,228.658c-2.95-10.877-14.157-17.305-25.033-14.356
		l-6.981,1.89v-7.638c0-11.268-9.136-20.404-20.405-20.404s-20.405,9.136-20.405,20.404v5.353l-5.421-1.857
		c-10.661-3.654-22.265,2.024-25.919,12.685c-3.655,10.66,2.025,22.265,12.686,25.918l5.426,1.859l-3.693,4.883
		c-6.798,8.988-5.023,21.783,3.964,28.582s21.784,5.023,28.583-3.963l4.259-5.633l4.53,5.934c6.841,8.955,19.646,10.668,28.599,3.83
		c8.957-6.841,10.674-19.646,3.832-28.602l-2.161-2.83l3.782-1.023C-105.902,250.742-99.475,239.533-102.421,228.658z"/>
	<g display="inline">
		<g i:knockout="Off">
			<path i:knockout="Off" fill="#B49C6E" d="M-154.895,251.553c-4.911,0-8.906-3.995-8.906-8.907c0-4.911,3.995-8.906,8.906-8.906
				c4.912,0,8.907,3.995,8.907,8.906C-145.988,247.558-149.983,251.553-154.895,251.553z M-154.895,236.978
				c-3.125,0-5.667,2.544-5.667,5.668c0,3.125,2.542,5.668,5.667,5.668c3.125,0,5.668-2.543,5.668-5.668
				C-149.227,239.521-151.769,236.978-154.895,236.978z"/>
		</g>
		<g>
			<g i:knockout="Off">
				<path i:knockout="Off" fill="#B49C6E" d="M-155.586,255.337c0.033-0.501,0.493-0.767,1.004-0.799l0,0
					c0.491,0.021,0.946,0.345,0.979,0.845c0.015,0.22,0.647,9.131,0.647,9.131c0,0.87-0.727,1.575-1.625,1.575l0,0
					c-0.898,0-1.627-0.705-1.627-1.575C-156.209,264.514-155.6,255.557-155.586,255.337z"/>
				<path i:knockout="Off" fill="#E3D8B5" d="M-154.582,266.197c-0.957,0-1.734-0.756-1.734-1.684c0-0.008,0.608-8.964,0.623-9.184
					c0.033-0.506,0.466-0.859,1.104-0.899c0.52,0.02,1.054,0.352,1.093,0.944c0.014,0.218,0.64,9.042,0.646,9.131
					C-152.849,265.441-153.626,266.197-154.582,266.197z M-154.586,254.646c-0.386,0.025-0.861,0.223-0.893,0.698
					c-0.014,0.217-0.623,9.177-0.623,9.177c0,0.802,0.682,1.46,1.519,1.46c0.837,0,1.518-0.658,1.518-1.468
					c-0.006-0.082-0.632-8.906-0.647-9.123C-153.742,254.924-154.175,254.663-154.586,254.646z"/>
			</g>
			<g i:knockout="Off">
				<circle i:knockout="Off" fill="#B49C6E" cx="-154.583" cy="270.28" r="2.142"/>
				<path i:knockout="Off" fill="#E3D8B5" d="M-154.583,272.53c-1.241,0-2.25-1.009-2.25-2.25s1.009-2.25,2.25-2.25
					c1.24,0,2.25,1.009,2.25,2.25S-153.342,272.53-154.583,272.53z M-154.583,268.246c-1.122,0-2.034,0.913-2.034,2.034
					s0.913,2.033,2.034,2.033c1.121,0,2.034-0.912,2.034-2.033S-153.461,268.246-154.583,268.246z"/>
			</g>
		</g>
		<g>
			<g i:knockout="Off">
				<path i:knockout="Off" fill="#B49C6E" d="M-167.255,245.733c0.488-0.116,0.877,0.244,1.061,0.722l0,0
					c0.126,0.476-0.049,1.006-0.518,1.187c-0.206,0.078-8.529,3.324-8.529,3.324c-0.831,0.257-1.72-0.229-1.986-1.084l0,0
					c-0.266-0.86,0.192-1.765,1.023-2.022C-176.205,247.859-167.47,245.787-167.255,245.733z"/>
				<path i:knockout="Off" fill="#E3D8B5" d="M-175.695,251.144c-0.738,0-1.411-0.506-1.636-1.229
					c-0.283-0.915,0.208-1.883,1.094-2.157c0.095-0.023,8.744-2.076,8.956-2.127c0.489-0.116,0.963,0.201,1.187,0.787
					c0.134,0.503-0.025,1.112-0.58,1.325c-0.203,0.077-8.445,3.292-8.528,3.324C-175.368,251.117-175.531,251.144-175.695,251.144z
					 M-167.072,245.819c-0.052,0-0.105,0.007-0.158,0.02c-0.211,0.053-8.862,2.105-8.949,2.126
					c-0.766,0.236-1.193,1.085-0.945,1.886c0.197,0.633,0.785,1.076,1.429,1.076c0.143,0,0.285-0.021,0.422-0.064
					c0.076-0.029,8.319-3.244,8.523-3.321c0.435-0.168,0.557-0.659,0.45-1.059C-166.421,246.168-166.691,245.819-167.072,245.819z"
					/>
			</g>
			<g i:knockout="Off">
				<circle i:knockout="Off" fill="#B49C6E" cx="-181.231" cy="251.122" r="2.142"/>
				<path i:knockout="Off" fill="#E3D8B5" d="M-181.232,253.372c-0.99,0-1.853-0.636-2.147-1.583
					c-0.178-0.574-0.123-1.183,0.158-1.715c0.28-0.531,0.75-0.923,1.324-1.102c0.218-0.067,0.442-0.102,0.668-0.102
					c0.99,0,1.854,0.637,2.147,1.583c0.178,0.575,0.122,1.185-0.158,1.717c-0.28,0.531-0.75,0.922-1.324,1.1
					C-180.782,253.337-181.006,253.372-181.232,253.372z M-181.229,249.087c-0.204,0-0.408,0.031-0.604,0.093
					c-0.519,0.16-0.944,0.514-1.197,0.996c-0.253,0.48-0.304,1.03-0.143,1.549c0.266,0.855,1.046,1.432,1.941,1.432
					c0.204,0,0.407-0.031,0.604-0.092c0.518-0.161,0.943-0.514,1.197-0.995c0.253-0.48,0.304-1.03,0.143-1.551
					C-179.554,249.662-180.334,249.087-181.229,249.087z"/>
			</g>
		</g>
		<g>
			<g i:knockout="Off">
				<path i:knockout="Off" fill="#B49C6E" d="M-162.01,232.046c0.274,0.419,0.067,0.906-0.321,1.241l0,0
					c-0.405,0.278-0.963,0.294-1.29-0.087c-0.144-0.167-6.012-6.902-6.012-6.902c-0.523-0.695-0.367-1.695,0.35-2.237l0,0
					c0.718-0.54,1.724-0.414,2.248,0.28C-167.035,224.341-162.132,231.861-162.01,232.046z"/>
				<path i:knockout="Off" fill="#E3D8B5" d="M-162.967,233.6c-0.292,0-0.554-0.117-0.736-0.328
					c-0.143-0.166-5.952-6.836-6.011-6.903c-0.562-0.747-0.396-1.818,0.366-2.393c0.31-0.234,0.677-0.358,1.061-0.358
					c0.535,0,1.022,0.239,1.338,0.659c0.053,0.08,4.909,7.527,5.029,7.709c0.277,0.425,0.144,0.966-0.34,1.384
					C-162.479,233.521-162.727,233.6-162.967,233.6z M-168.287,223.833c-0.336,0-0.658,0.108-0.931,0.315
					c-0.667,0.503-0.814,1.438-0.329,2.084c0.054,0.062,5.865,6.731,6.007,6.897c0.18,0.21,0.411,0.254,0.573,0.254
					c0.197,0,0.4-0.066,0.575-0.186c0.306-0.266,0.551-0.697,0.291-1.094c-0.119-0.182-4.975-7.629-5.024-7.704
					C-167.396,224.042-167.821,223.833-168.287,223.833z"/>
			</g>
			<g i:knockout="Off">
				<circle i:knockout="Off" fill="#B49C6E" cx="-171.804" cy="220.713" r="2.142"/>
				<path i:knockout="Off" fill="#E3D8B5" d="M-171.802,222.963c-0.713,0-1.37-0.326-1.799-0.896
					c-0.746-0.99-0.546-2.402,0.443-3.15c0.394-0.296,0.86-0.452,1.352-0.452c0.714,0,1.371,0.326,1.8,0.896
					c0.746,0.991,0.547,2.404-0.444,3.151C-170.844,222.807-171.311,222.963-171.802,222.963z M-171.807,218.679
					c-0.443,0-0.867,0.142-1.221,0.41c-0.895,0.676-1.075,1.953-0.401,2.848c0.389,0.516,0.981,0.812,1.626,0.812
					c0.444,0,0.867-0.143,1.222-0.411c0.896-0.674,1.076-1.951,0.402-2.848C-170.567,218.974-171.161,218.679-171.807,218.679z"/>
			</g>
		</g>
		<g>
			<g i:knockout="Off">
				<path i:knockout="Off" fill="#B49C6E" d="M-146.534,233.015c-0.333,0.374-0.859,0.301-1.282,0.011l0,0
					c-0.374-0.316-0.533-0.853-0.251-1.268c0.125-0.183,5.111-7.594,5.111-7.594c0.536-0.686,1.543-0.793,2.252-0.241l0,0
					c0.708,0.554,0.847,1.558,0.31,2.244C-140.394,226.167-146.388,232.851-146.534,233.015z"/>
				<path i:knockout="Off" fill="#E3D8B5" d="M-147.109,233.378c-0.248,0-0.52-0.094-0.767-0.264
					c-0.454-0.383-0.57-0.989-0.28-1.417c0.124-0.18,5.062-7.52,5.111-7.594c0.32-0.41,0.801-0.642,1.323-0.642
					c0.389,0,0.774,0.133,1.085,0.376c0.374,0.292,0.61,0.709,0.667,1.171c0.053,0.442-0.066,0.878-0.338,1.225
					c-0.064,0.072-6,6.69-6.145,6.852C-146.623,233.277-146.85,233.378-147.109,233.378z M-141.722,223.678
					c-0.455,0-0.874,0.202-1.148,0.553c-0.046,0.068-4.983,7.408-5.107,7.589c-0.262,0.387-0.082,0.857,0.232,1.123
					c0.203,0.139,0.433,0.22,0.636,0.22c0.198,0,0.366-0.075,0.496-0.22c0.143-0.161,6.08-6.781,6.14-6.849
					c0.232-0.295,0.336-0.673,0.289-1.059c-0.049-0.406-0.257-0.771-0.585-1.027C-141.047,223.792-141.376,223.678-141.722,223.678z
					"/>
			</g>
			<g i:knockout="Off">
				<circle i:knockout="Off" fill="#B49C6E" cx="-138.122" cy="220.621" r="2.142"/>
				<path i:knockout="Off" fill="#E3D8B5" d="M-138.124,222.872c-0.506,0-0.985-0.166-1.384-0.479
					c-0.977-0.764-1.15-2.181-0.387-3.158c0.429-0.549,1.076-0.863,1.774-0.863c0.505,0,0.984,0.165,1.384,0.477
					c0.977,0.763,1.15,2.18,0.388,3.158C-136.779,222.556-137.426,222.872-138.124,222.872z M-138.121,218.588
					c-0.632,0-1.217,0.285-1.604,0.78c-0.69,0.885-0.533,2.165,0.35,2.855c0.361,0.283,0.794,0.432,1.251,0.432
					c0.631,0,1.216-0.284,1.604-0.781c0.69-0.884,0.532-2.166-0.35-2.855C-137.231,218.737-137.665,218.588-138.121,218.588z"/>
			</g>
		</g>
		<g>
			<g i:knockout="Off">
				<path i:knockout="Off" fill="#B49C6E" d="M-142.994,247.135c-0.467-0.183-0.579-0.703-0.456-1.2l0,0
					c0.167-0.46,0.615-0.794,1.103-0.675c0.214,0.055,8.896,2.161,8.896,2.161c0.828,0.264,1.278,1.17,1.006,2.026l0,0
					c-0.274,0.855-1.168,1.335-1.997,1.069C-134.441,250.517-142.79,247.214-142.994,247.135z"/>
				<path i:knockout="Off" fill="#E3D8B5" d="M-133.975,250.697c-0.169,0-0.337-0.025-0.5-0.078
					c-0.09-0.035-8.356-3.306-8.559-3.384c-0.471-0.184-0.675-0.705-0.521-1.326c0.201-0.554,0.731-0.882,1.233-0.754
					c0.212,0.054,8.808,2.139,8.896,2.16c0.89,0.283,1.372,1.254,1.084,2.165C-132.575,250.209-133.232,250.697-133.975,250.697z
					 M-142.545,245.343c-0.343,0-0.666,0.254-0.803,0.629c-0.093,0.377-0.048,0.891,0.393,1.062
					c0.203,0.078,8.469,3.349,8.553,3.382c0.134,0.043,0.281,0.065,0.427,0.065c0.649,0,1.223-0.429,1.427-1.066
					c0.252-0.797-0.167-1.646-0.936-1.892c-0.347-0.085-8.679-2.104-8.89-2.159C-142.429,245.351-142.487,245.343-142.545,245.343z"
					/>
			</g>
			<g i:knockout="Off">
				<circle i:knockout="Off" fill="#B49C6E" cx="-128.451" cy="250.722" r="2.143"/>
				<path i:knockout="Off" fill="#E3D8B5" d="M-128.453,252.972c-0.231,0-0.461-0.035-0.683-0.105
					c-0.573-0.183-1.04-0.577-1.316-1.111c-0.275-0.534-0.326-1.143-0.143-1.715c0.299-0.938,1.161-1.569,2.143-1.569
					c0.232,0,0.463,0.036,0.686,0.107c1.18,0.378,1.834,1.647,1.459,2.829C-126.608,252.343-127.47,252.972-128.453,252.972z
					 M-128.452,248.687c-0.889,0-1.667,0.57-1.938,1.419c-0.166,0.517-0.12,1.068,0.129,1.551c0.25,0.482,0.672,0.839,1.191,1.005
					c0.2,0.063,0.407,0.096,0.616,0.096c0.89,0,1.669-0.569,1.94-1.416c0.338-1.067-0.254-2.215-1.32-2.557
					C-128.034,248.72-128.243,248.687-128.452,248.687z"/>
			</g>
		</g>
		<g i:knockout="Off">
			<path i:knockout="Off" fill="#B49C6E" d="M-153.249,229.236c-0.044,0.688-0.656,1.052-1.334,1.096l0,0
				c-0.655-0.028-1.257-0.472-1.301-1.157c-0.019-0.302-0.86-12.517-0.86-12.517c0-1.193,0.967-2.16,2.161-2.16l0,0
				c1.193,0,2.161,0.967,2.161,2.16C-152.422,216.658-153.23,228.937-153.249,229.236z"/>
			<path i:knockout="Off" fill="#E3D8B5" d="M-154.579,230.657h-0.019c-0.88-0.039-1.557-0.653-1.609-1.462
				c-0.019-0.301-0.859-12.515-0.859-12.515c-0.001-1.393,1.114-2.507,2.484-2.507s2.485,1.114,2.485,2.484
				c0,0.021-0.809,12.3-0.828,12.6c-0.05,0.786-0.692,1.335-1.636,1.398L-154.579,230.657z M-156.42,216.658
				c0-0.001,0.841,12.195,0.859,12.497c0.034,0.526,0.513,0.826,0.975,0.853c0.472-0.036,0.98-0.262,1.014-0.792
				c0.019-0.299,0.827-12.579,0.827-12.579c0-0.99-0.825-1.814-1.838-1.814S-156.42,215.646-156.42,216.658L-156.42,216.658z"/>
		</g>
		<g i:knockout="Off">
			<path i:knockout="Off" fill="#B49C6E" d="M-141.637,240.231c-0.668,0.16-1.197-0.313-1.441-0.948l0,0
				c-0.166-0.635,0.079-1.342,0.719-1.585c0.283-0.109,11.698-4.533,11.698-4.533c1.142-0.354,2.351,0.283,2.705,1.423l0,0
				c0.353,1.14-0.282,2.351-1.423,2.705C-129.378,237.293-141.344,240.16-141.637,240.231z"/>
			<path i:knockout="Off" fill="#E3D8B5" d="M-141.896,240.587c-0.633,0-1.203-0.455-1.484-1.188
				c-0.234-0.888,0.151-1.717,0.906-2.004c0.283-0.108,11.697-4.533,11.697-4.533c1.408-0.438,2.732,0.346,3.132,1.63
				c0.195,0.634,0.135,1.307-0.174,1.894c-0.31,0.587-0.829,1.02-1.463,1.216c-0.02,0.006-11.985,2.873-12.278,2.945
				C-141.672,240.573-141.785,240.587-141.896,240.587z M-130.564,233.475c0.002,0-11.396,4.417-11.678,4.524
				c-0.5,0.191-0.641,0.749-0.522,1.201c0.151,0.387,0.539,0.841,1.052,0.717c0.292-0.071,12.259-2.94,12.259-2.94
				c0.448-0.14,0.832-0.458,1.06-0.893c0.229-0.434,0.273-0.931,0.129-1.4C-128.56,233.735-129.603,233.174-130.564,233.475z"/>
		</g>
		<g i:knockout="Off">
			<path i:knockout="Off" fill="#B49C6E" d="M-148.172,254.297c-0.377-0.575-0.108-1.232,0.407-1.678l0,0
				c0.539-0.372,1.287-0.38,1.734,0.142c0.198,0.229,8.22,9.478,8.22,9.478c0.718,0.953,0.527,2.309-0.425,3.026l0,0
				c-0.954,0.72-2.309,0.529-3.027-0.424C-141.263,264.841-148.007,254.548-148.172,254.297z"/>
			<path i:knockout="Off" fill="#E3D8B5" d="M-139.537,266.024c-0.788,0-1.512-0.36-1.984-0.988
				c-0.013-0.017-6.756-10.311-6.921-10.562c-0.432-0.657-0.25-1.48,0.465-2.1c0.756-0.527,1.68-0.421,2.192,0.176
				c0.197,0.229,8.219,9.478,8.219,9.478c0.837,1.11,0.619,2.671-0.476,3.496C-138.477,265.852-138.993,266.024-139.537,266.024z
				 M-146.934,252.677c-0.223,0-0.453,0.074-0.648,0.209c-0.333,0.291-0.614,0.784-0.319,1.232c0.166,0.251,6.91,10.545,6.91,10.545
				c0.569,0.756,1.769,0.938,2.561,0.343c0.809-0.609,0.97-1.764,0.361-2.571l0,0c-0.001,0-8.01-9.233-8.207-9.463
				C-146.485,252.729-146.749,252.677-146.934,252.677z"/>
		</g>
		<g i:knockout="Off">
			<path i:knockout="Off" fill="#B49C6E" d="M-164.442,252.142c0.454-0.514,1.162-0.424,1.724-0.041l0,0
				c0.499,0.425,0.699,1.146,0.312,1.711c-0.171,0.252-7.028,10.395-7.028,10.395c-0.735,0.939-2.093,1.106-3.032,0.371l0,0
				c-0.943-0.734-1.109-2.093-0.375-3.032C-172.84,261.545-164.643,252.367-164.442,252.142z"/>
			<path i:knockout="Off" fill="#E3D8B5" d="M-171.137,265.359c-0.559,0-1.087-0.182-1.528-0.527
				c-0.523-0.407-0.856-0.995-0.938-1.653c-0.081-0.659,0.1-1.311,0.508-1.834c0.014-0.016,8.21-9.192,8.41-9.417
				c0.508-0.575,1.398-0.606,2.149-0.095c0.699,0.593,0.855,1.493,0.398,2.162c-0.17,0.25-7.027,10.394-7.027,10.394
				C-169.653,265.013-170.367,265.359-171.137,265.359z M-163.646,252.108c-0.222,0-0.41,0.083-0.555,0.248
				c-0.2,0.225-8.398,9.404-8.398,9.404c-0.289,0.37-0.422,0.851-0.362,1.338s0.306,0.922,0.694,1.224
				c0.776,0.607,1.972,0.457,2.578-0.315c-0.001,0.001,6.844-10.126,7.015-10.376c0.303-0.444,0.101-0.981-0.254-1.284
				C-163.146,252.201-163.412,252.108-163.646,252.108z"/>
		</g>
		<g i:knockout="Off">
			<path i:knockout="Off" fill="#B49C6E" d="M-167.147,236.976c0.64,0.249,0.799,0.944,0.637,1.601l0,0
				c-0.226,0.617-0.832,1.056-1.497,0.891c-0.294-0.075-12.186-2.986-12.186-2.986c-1.137-0.362-1.765-1.577-1.401-2.715l0,0
				c0.362-1.139,1.579-1.766,2.714-1.403C-178.88,232.362-167.428,236.866-167.147,236.976z"/>
			<path i:knockout="Off" fill="#E3D8B5" d="M-167.725,239.825c-0.12,0-0.241-0.015-0.36-0.043
				c-0.291-0.075-12.066-2.958-12.186-2.986c-0.654-0.208-1.169-0.644-1.474-1.234c-0.304-0.589-0.36-1.262-0.158-1.895
				c0.33-1.035,1.281-1.731,2.366-1.731c0.255,0,0.51,0.04,0.755,0.118l11.753,4.621c0.722,0.28,1.057,1.076,0.833,1.98
				C-166.455,239.368-167.064,239.825-167.725,239.825z M-179.537,232.583c-0.803,0-1.505,0.515-1.749,1.28
				c-0.149,0.468-0.108,0.966,0.117,1.402c0.226,0.436,0.607,0.758,1.074,0.906c0.465,0.113,11.876,2.906,12.168,2.982
				c0.44,0.108,0.93-0.188,1.112-0.689c0.104-0.429,0.05-0.993-0.449-1.187l-11.735-4.614
				C-179.16,232.613-179.348,232.583-179.537,232.583z"/>
		</g>
	</g>
</g>
</svg>
